<?xml version="1.0" encoding="UTF-8"?>
<svg xmlns="http://www.w3.org/2000/svg" xmlns:xlink="http://www.w3.org/1999/xlink" width="2322.500mm" height="608.000mm" viewBox="-2707.000000 -1000.000000 2322.500000 608.000000">
    <rect transform="matrix(1,0,0,-1,-1678,-692)" style="stroke:#000000;stroke-width:0.05mm;fill:none" x="-177.5" y="-300" width="355" height="600"/>
    <circle transform="matrix(1,0,0,-1,-1808,-864.5)" style="stroke:#000000;stroke-width:0.05mm;fill:none" r="12.5" cx="0" cy="0"/>
    <path transform="matrix(1,0,0,-1,-1676.569214,-723.653076)" style="stroke:#000000;stroke-width:0.05mm;fill:none" d="M0.147217,-35.246338C1.370706,-35.204372,2.58562,-35.025021,3.769043,-34.71167C7.789832,-33.634659,11.112353,-30.807529,12.819092,-27.010986C13.63803,-25.047375,13.9782,-22.917139,13.811523,-20.796143C13.727033,-18.958954,13.183078,-17.172213,12.229492,-15.599609C11.055235,-13.736395,9.273514,-12.335614,7.185791,-11.634277C6.737339,-11.47675,6.280417,-11.344548,5.817139,-11.238281L6.5271,-10.886719C7.815028,-10.226034,8.94641,-9.296953,9.844971,-8.162109C11.086651,-6.551472,11.752228,-4.570733,11.735107,-2.537109C11.720882,1.002001,9.962143,4.305482,7.033936,6.293213C4.955724,7.686155,2.536222,8.484299,0.037109,8.601318C-1.841078,8.723212,-3.725364,8.483853,-5.513428,7.89624C-8.763931,6.777495,-11.375848,4.313424,-12.681885,1.133545C-13.174277,-0.036267,-13.533629,-1.257727,-13.753174,-2.507813L-8.479736,-3.445313L-8.400635,-2.969482C-8.181785,-1.581911,-7.700187,-0.248817,-6.981689,0.958252C-5.713438,2.995059,-3.49558,4.247423,-1.096436,4.281494C0.217286,4.362894,1.530368,4.109518,2.719482,3.545166C4.977479,2.427408,6.381187,0.098727,6.315186,-2.419922C6.341092,-3.519845,6.11038,-4.610711,5.641357,-5.605957C5.182114,-6.51979,4.483434,-7.291883,3.619873,-7.839844C2.055594,-8.861372,0.252112,-9.457708,-1.612793,-9.570068C-2.172838,-9.617334,-2.736266,-9.606945,-3.294189,-9.539063L-3.880127,-14.167969L-3.334961,-14.030762C-2.152338,-13.713565,-0.930702,-13.565606,0.293457,-13.591309C2.102789,-13.623829,3.8506,-14.255695,5.262451,-15.387695C7.106987,-16.878946,8.197188,-19.110847,8.239502,-21.482422C8.336922,-23.119041,7.994388,-24.752125,7.247559,-26.21167C6.14895,-28.286747,4.272423,-29.840996,2.029053,-30.533936C0.218572,-31.066206,-1.712572,-31.020123,-3.495605,-30.4021C-5.274854,-29.730982,-6.734773,-28.411665,-7.582031,-26.709229C-8.254297,-25.366413,-8.734013,-23.93565,-9.00708,-22.458984L-14.280518,-23.162109C-14.105431,-25.257072,-13.451118,-27.283829,-12.368164,-29.085693C-10.378741,-32.303314,-7.075756,-34.484741,-3.335449,-35.05127C-2.183931,-35.232033,-1.017277,-35.297379,0.147217,-35.246338z"/>
    <rect transform="matrix(1,0,0,-1,-1218,-695)" style="stroke:#000000;stroke-width:0.05mm;fill:none" x="-257.5" y="-300" width="515" height="600"/>
    <path transform="matrix(1,0,0,-1,-1227.569214,-719.153076)" style="stroke:#000000;stroke-width:0.05mm;fill:none" d="M18.54248,-31.306641C15.980175,-29.467842,13.717171,-27.244366,11.833496,-24.714844L12.129883,-24.25293C13.403513,-22.13895,14.395243,-19.867485,15.079834,-17.496338C15.283926,-16.821287,15.471411,-16.141268,15.64209,-15.457031L10.163574,-14.285156L9.971436,-15.12207C9.554832,-16.901991,8.931019,-18.62701,8.112793,-20.261719L0.407715,-10.447266C2.214912,-9.521584,3.880272,-8.341869,5.353027,-6.944092C6.531783,-5.827072,7.4422,-4.457481,8.015869,-2.938232C9.088678,0.054823,8.463696,3.393348,6.380859,5.795654C4.793145,7.652304,2.553938,8.830276,0.124512,9.086914C-1.830451,9.340252,-3.817678,9.128019,-5.675049,8.467529C-8.180822,7.517102,-10.221879,5.636076,-11.373291,3.216064C-12.302404,1.129063,-12.379234,-1.238253,-11.587402,-3.381104C-11.131402,-4.607398,-10.500524,-5.761349,-9.714355,-6.807129C-8.956436,-7.852646,-8.149849,-8.862099,-7.297363,-9.832031L-7.924561,-10.138916C-9.791525,-11.046209,-11.533886,-12.190142,-13.108643,-13.54248C-14.54657,-14.766716,-15.709381,-16.281408,-16.520508,-17.986816C-18.089039,-21.53006,-17.803822,-25.618761,-15.758545,-28.909912C-14.497399,-31.01186,-12.668296,-32.715118,-10.481934,-33.823486C-8.929866,-34.573284,-7.251814,-35.027466,-5.533447,-35.162842C-3.276974,-35.382851,-0.9994,-35.128716,1.153076,-34.416748C3.070788,-33.749985,4.8455,-32.727581,6.384277,-31.403076C7.101675,-30.792116,7.777016,-30.133495,8.405762,-29.431641L9.252197,-30.404297C10.511475,-31.838648,11.895603,-33.15847,13.388184,-34.348145C13.906536,-34.755569,14.443581,-35.138634,14.997559,-35.496094L18.54248,-31.306641zM-31.346436,8.625L-34.744873,8.625L-35.119385,7.926514C-35.897881,6.626965,-36.830814,5.426556,-37.897949,4.351318C-40.276096,1.921999,-43.04023,-0.096617,-46.078125,-1.622559L-47.166748,-2.15625L-47.166748,-7.253906C-44.969479,-6.394915,-42.858208,-5.330652,-40.86084,-4.075195C-39.340492,-3.166037,-37.919086,-2.100657,-36.619873,-0.896484L-36.619873,-34.5L-31.346436,-34.5L-31.346436,8.625zM50.305176,-29.431641L29.240723,-29.431641C30.184271,-27.949276,31.328655,-26.604916,32.641357,-25.436768C34.477859,-23.775879,36.350861,-22.15564,38.258789,-20.577393L38.931152,-20.000732C41.053627,-18.210224,43.088455,-16.318386,45.028564,-14.331787C46.402729,-12.917932,47.594879,-11.338021,48.577393,-9.628662C50.176788,-6.793329,50.647217,-3.458377,49.894531,-0.29126C49.36544,1.814647,48.235813,3.721479,46.643066,5.197266C45.097874,6.648045,43.196354,7.66438,41.131592,8.143066C38.113476,8.833013,34.974705,8.789651,31.976807,8.016602C29.780701,7.446241,27.791632,6.263521,26.241699,4.606445C24.983658,3.202613,24.066284,1.527682,23.560791,-0.28833C23.23225,-1.43424,23.015179,-2.609211,22.912598,-3.796875L28.33252,-4.353516L28.344971,-3.85498C28.373329,-2.378865,28.74807,-0.930002,29.438965,0.374756C30.51276,2.277435,32.365253,3.6154,34.509033,4.036621C36.335381,4.430824,38.234371,4.321893,40.003662,3.721436C42.39473,2.855458,44.166298,0.813733,44.686523,-1.675537C44.972805,-3.217966,44.807823,-4.810486,44.211426,-6.261475C43.592239,-7.766654,42.737572,-9.163741,41.679443,-10.400391C40.180973,-12.133797,38.562359,-13.759422,36.835449,-15.265381C35.189735,-16.722061,33.513588,-18.143997,31.808105,-19.530273L31.2854,-19.974365C29.394154,-21.552029,27.628201,-23.274067,26.003418,-25.125C24.700611,-26.620277,23.628582,-28.30201,22.822998,-30.114258C22.182802,-31.485332,21.872324,-32.987469,21.916504,-34.5L50.305176,-34.5L50.305176,-29.431641zM-4.660645,-4.324219C-5.408695,-3.475223,-6.004827,-2.50364,-6.422852,-1.452148C-7.126038,0.435279,-6.518505,2.560801,-4.924072,3.791504C-4.158835,4.397301,-3.228101,4.757338,-2.254395,4.824219C-1.272423,4.928163,-0.28124,4.746846,0.600342,4.302002C2.059762,3.528723,3.0112,2.050488,3.110596,0.401855C3.301878,-1.659333,2.419188,-3.674906,0.774658,-4.932129C-0.197496,-5.719377,-1.231319,-6.427205,-2.316895,-7.048828L-4.660645,-4.324219zM-4.338867,-30.563232C-5.758162,-30.530529,-7.13483,-30.071102,-8.289307,-29.244873C-9.070189,-28.643734,-9.733379,-27.903656,-10.245605,-27.061768C-11.018113,-25.942432,-11.536767,-24.667629,-11.765137,-23.326904C-11.951118,-22.078196,-11.773883,-20.802126,-11.254639,-19.651367C-10.635157,-18.247931,-9.69261,-17.010555,-8.50415,-16.040527C-7.274004,-15.013618,-5.958834,-14.09317,-4.572754,-13.289063L5.095215,-25.271484C3.925364,-27.0488,2.308407,-28.486919,0.406738,-29.441406C-0.733475,-30.053768,-1.985003,-30.431095,-3.273682,-30.551025C-3.628141,-30.577221,-3.983898,-30.581299,-4.338867,-30.563232z"/>
    <rect transform="matrix(1,0,0,-1,-1218.100464,-879.29895)" style="stroke:#000000;stroke-width:0.05mm;fill:none" x="-237.5" y="-5.5" width="475" height="11.000001"/>
    <rect transform="matrix(1,0,0,-1,-2084,-726)" style="stroke:#000000;stroke-width:0.05mm;fill:none" x="-195.000015" y="-257.5" width="390.000031" height="515"/>
    <path transform="matrix(1,0,0,-1,-2083.931641,-633.684875)" style="stroke:#000000;stroke-width:0.05mm;fill:none" d="M0.37085,-35.212158C1.48204,-35.164993,2.5852,-35.001087,3.662109,-34.723145C6.216309,-34.061703,8.510063,-32.641129,10.240234,-30.64917C12.530251,-28.075821,13.893873,-24.810034,14.11377,-21.372314C14.274858,-19.454287,14.108923,-17.522835,13.623047,-15.6604C12.846425,-12.831171,11.143886,-10.343725,8.787598,-8.595703C6.681868,-7.011912,4.137313,-6.118609,1.503662,-6.038574C-1.256245,-5.912364,-3.989631,-6.626636,-6.334961,-8.086914C-6.666193,-8.286657,-6.990673,-8.497385,-7.307861,-8.71875L-4.993408,2.824219L12.145264,2.824219L12.145264,7.863281L-9.212158,7.863281L-13.372314,-14.197266L-8.421143,-14.841797L-8.114502,-14.391113C-6.351873,-12.017763,-3.55483,-10.637233,-0.598877,-10.681641C0.966405,-10.649142,2.516073,-10.998765,3.915771,-11.700195C6.092062,-12.85219,7.660967,-14.89295,8.214844,-17.292236C8.784353,-19.738993,8.679667,-22.293583,7.911865,-24.685547C7.093433,-27.109261,5.321094,-29.093224,3.004639,-30.178711C0.732331,-31.171539,-1.855379,-31.143284,-4.105469,-30.101074C-5.849734,-29.232857,-7.210227,-27.748121,-7.923096,-25.934814C-8.333425,-24.922054,-8.618726,-23.863079,-8.772705,-22.78125L-14.309814,-23.25C-14.153481,-25.147253,-13.609168,-26.992346,-12.710693,-28.670654C-10.992661,-31.759502,-8.046479,-33.976124,-4.602539,-34.770996C-2.973524,-35.150032,-1.299444,-35.298531,0.37085,-35.212158z"/>
    <circle transform="matrix(1,0,0,-1,-2084.169434,-725.948975)" style="stroke:#000000;stroke-width:0.05mm;fill:none" r="5" cx="0" cy="0"/>
    <rect transform="matrix(1,0,0,-1,-2512,-728)" style="stroke:#000000;stroke-width:0.05mm;fill:none" x="-195.000015" y="-257.5" width="390.000031" height="515"/>
    <path transform="matrix(1,0,0,-1,-2522.815186,-633.025391)" style="stroke:#000000;stroke-width:0.05mm;fill:none" d="M7.86792,-24.216797L13.668701,-24.216797L13.668701,-19.382813L7.86792,-19.382813L7.86792,8.449219L3.561279,8.449219L-16.03833,-19.382813L-16.03833,-24.216797L2.594482,-24.216797L2.594482,-34.5L7.86792,-34.5L7.86792,-24.216797zM-10.852783,-19.382813L2.594482,-0.017578L2.594482,-19.382813L-10.852783,-19.382813z"/>
    <rect transform="matrix(1,0,0,-1,-736,-644)" style="stroke:#000000;stroke-width:0.05mm;fill:none" x="-155.5" y="-230" width="311" height="460"/>
    <path transform="matrix(1,0,0,-1,-232.5,32)" style="stroke:#000000;stroke-width:0.05mm;fill:none" d="M-659,906L-448,1032L-152,1032L-348,906"/>
    <path transform="matrix(1,0,0,-1,-232.5,32)" style="stroke:#000000;stroke-width:0.05mm;fill:none" d="M-348,446L-152,584L-152,1032"/>
    <path transform="matrix(1,0,0,-1,-232.5,32)" style="stroke:#000000;stroke-width:0.05mm;fill:none" d="M-659,446L-454,596L-448,1032"/>
    <path transform="matrix(1,0,0,-1,-232.5,32)" style="stroke:#000000;stroke-width:0.05mm;fill:none" d="M-454,596C-152,584,-152,584,-152,584"/>
    <path transform="matrix(1,0,0,-1,-554.268616,-795.275513)" style="stroke:#000000;stroke-width:0.05mm;fill:none" d="M0.147217,-35.246338C1.370706,-35.204372,2.58562,-35.025021,3.769043,-34.71167C7.789832,-33.634659,11.112353,-30.807529,12.819092,-27.010986C13.63803,-25.047375,13.9782,-22.917139,13.811523,-20.796143C13.727033,-18.958954,13.183078,-17.172213,12.229492,-15.599609C11.055235,-13.736395,9.273514,-12.335614,7.185791,-11.634277C6.737339,-11.47675,6.280417,-11.344548,5.817139,-11.238281L6.5271,-10.886719C7.815028,-10.226034,8.94641,-9.296953,9.844971,-8.162109C11.086651,-6.551472,11.752228,-4.570733,11.735107,-2.537109C11.720882,1.002001,9.962143,4.305482,7.033936,6.293213C4.955724,7.686155,2.536222,8.484299,0.037109,8.601318C-1.841078,8.723212,-3.725364,8.483853,-5.513428,7.89624C-8.763931,6.777495,-11.375848,4.313424,-12.681885,1.133545C-13.174277,-0.036267,-13.533629,-1.257727,-13.753174,-2.507813L-8.479736,-3.445313L-8.400635,-2.969482C-8.181785,-1.581911,-7.700187,-0.248817,-6.981689,0.958252C-5.713438,2.995059,-3.49558,4.247423,-1.096436,4.281494C0.217286,4.362894,1.530368,4.109518,2.719482,3.545166C4.977479,2.427408,6.381187,0.098727,6.315186,-2.419922C6.341092,-3.519845,6.11038,-4.610711,5.641357,-5.605957C5.182114,-6.51979,4.483434,-7.291883,3.619873,-7.839844C2.055594,-8.861372,0.252112,-9.457708,-1.612793,-9.570068C-2.172838,-9.617334,-2.736266,-9.606945,-3.294189,-9.539063L-3.880127,-14.167969L-3.334961,-14.030762C-2.152338,-13.713565,-0.930702,-13.565606,0.293457,-13.591309C2.102789,-13.623829,3.8506,-14.255695,5.262451,-15.387695C7.106987,-16.878946,8.197188,-19.110847,8.239502,-21.482422C8.336922,-23.119041,7.994388,-24.752125,7.247559,-26.21167C6.14895,-28.286747,4.272423,-29.840996,2.029053,-30.533936C0.218572,-31.066206,-1.712572,-31.020123,-3.495605,-30.4021C-5.274854,-29.730982,-6.734773,-28.411665,-7.582031,-26.709229C-8.254297,-25.366413,-8.734013,-23.93565,-9.00708,-22.458984L-14.280518,-23.162109C-14.105431,-25.257072,-13.451118,-27.283829,-12.368164,-29.085693C-10.378741,-32.303314,-7.075756,-34.484741,-3.335449,-35.05127C-2.183931,-35.232033,-1.017277,-35.297379,0.147217,-35.246338z"/>
    <path transform="matrix(1,0,0,-1,-480.143311,-719.9375)" style="stroke:#000000;stroke-width:0.05mm;fill:none" d="M5.553467,8.625L2.155029,8.625L1.780518,7.926514C1.002024,6.626966,0.069082,5.426545,-0.998047,4.351318C-3.376202,1.921986,-6.140335,-0.096622,-9.178223,-1.622559L-10.266846,-2.15625L-10.266846,-7.253906C-8.069574,-6.394934,-5.9583,-5.330671,-3.960938,-4.075195C-2.440506,-3.166168,-1.019093,-2.100784,0.280029,-0.896484L0.280029,-34.5L5.553467,-34.5L5.553467,8.625z"/>
    <path transform="matrix(1,0,0,-1,-785.210693,-719.93573)" style="stroke:#000000;stroke-width:0.05mm;fill:none" d="M13.405029,-29.431641L-7.659424,-29.431641C-6.715782,-27.949276,-5.571304,-26.604906,-4.258545,-25.436768C-2.422058,-23.775894,-0.549255,-22.155746,1.358643,-20.577393L2.03125,-20.000732C4.153595,-18.210083,6.18837,-16.318295,8.128662,-14.331787C9.502778,-12.917889,10.694921,-11.337986,11.67749,-9.628662C13.276618,-6.793231,13.747031,-3.45839,12.994629,-0.29126C12.46557,1.814713,11.335836,3.721579,9.74292,5.197266C8.197807,6.648158,6.296257,7.664507,4.231445,8.143066C1.213411,8.833007,-1.925276,8.789649,-4.923096,8.016602C-7.119223,7.44628,-9.108301,6.263553,-10.658203,4.606445C-11.916279,3.202635,-12.833654,1.5277,-13.339111,-0.28833C-13.667626,-1.434273,-13.884774,-2.609221,-13.987549,-3.796875L-8.567627,-4.353516L-8.555176,-3.85498C-8.526576,-2.378869,-8.151763,-0.93004,-7.460938,0.374756C-6.387168,2.277459,-4.534668,3.615431,-2.390869,4.036621C-0.564608,4.430841,1.334312,4.321911,3.103516,3.721436C5.371435,2.897156,7.091271,1.014628,7.707764,-1.318359C8.09579,-2.966925,7.957117,-4.695833,7.311279,-6.261475C6.692305,-7.766705,5.837709,-9.163809,4.779541,-10.400391C3.281052,-12.133764,1.662415,-13.75942,-0.064453,-15.265381C-1.710373,-16.72226,-3.386246,-18.14389,-5.092041,-19.530273L-5.614502,-19.974365C-7.505733,-21.552086,-9.271824,-23.274178,-10.896729,-25.125C-12.199549,-26.620224,-13.271502,-28.301971,-14.076904,-30.114258C-14.717195,-31.485304,-15.027759,-32.987453,-14.983643,-34.5L13.405029,-34.5L13.405029,-29.431641z"/>
    <path transform="matrix(1,0,0,-1,-633.431763,-937.684875)" style="stroke:#000000;stroke-width:0.05mm;fill:none" d="M0.37085,-35.212158C1.48204,-35.164993,2.5852,-35.001087,3.662109,-34.723145C6.216309,-34.061703,8.510063,-32.641129,10.240234,-30.64917C12.530251,-28.075821,13.893873,-24.810034,14.11377,-21.372314C14.274858,-19.454287,14.108923,-17.522835,13.623047,-15.6604C12.846425,-12.831171,11.143886,-10.343725,8.787598,-8.595703C6.681868,-7.011912,4.137313,-6.118609,1.503662,-6.038574C-1.256245,-5.912364,-3.989631,-6.626636,-6.334961,-8.086914C-6.666193,-8.286657,-6.990673,-8.497385,-7.307861,-8.71875L-4.993408,2.824219L12.145264,2.824219L12.145264,7.863281L-9.212158,7.863281L-13.372314,-14.197266L-8.421143,-14.841797L-8.114502,-14.391113C-6.351873,-12.017763,-3.55483,-10.637233,-0.598877,-10.681641C0.966405,-10.649142,2.516073,-10.998765,3.915771,-11.700195C6.092062,-12.85219,7.660967,-14.89295,8.214844,-17.292236C8.784353,-19.738993,8.679667,-22.293583,7.911865,-24.685547C7.093433,-27.109261,5.321094,-29.093224,3.004639,-30.178711C0.732331,-31.171539,-1.855379,-31.143284,-4.105469,-30.101074C-5.849734,-29.232857,-7.210227,-27.748121,-7.923096,-25.934814C-8.333425,-24.922054,-8.618726,-23.863079,-8.772705,-22.78125L-14.309814,-23.25C-14.153481,-25.147253,-13.609168,-26.992346,-12.710693,-28.670654C-10.992661,-31.759502,-8.046479,-33.976124,-4.602539,-34.770996C-2.973524,-35.150032,-1.299444,-35.298531,0.37085,-35.212158z"/>
    <path transform="matrix(1,0,0,-1,-641.315186,-498.025391)" style="stroke:#000000;stroke-width:0.05mm;fill:none" d="M7.86792,-24.216797L13.668701,-24.216797L13.668701,-19.382813L7.86792,-19.382813L7.86792,8.449219L3.561279,8.449219L-16.03833,-19.382813L-16.03833,-24.216797L2.594482,-24.216797L2.594482,-34.5L7.86792,-34.5L7.86792,-24.216797zM-10.852783,-19.382813L2.594482,-0.017578L2.594482,-19.382813L-10.852783,-19.382813z"/>
</svg>
