<?xml version="1.0" encoding="UTF-8"?>
<svg xmlns="http://www.w3.org/2000/svg" xmlns:xlink="http://www.w3.org/1999/xlink" width="717.186mm" height="734.200mm" viewBox="-993.592896 -786.099976 717.185852 734.199951">
    <path transform="matrix(1,0,0,-1,-638.892944,-1017.299988)" style="stroke:#000000;stroke-width:0.05mm;fill:none" d="M14.4,-612.400024L356.399994,-612.400024L360.399994,-612.400024C360.454987,-612.400024,360.5,-612.35498,360.5,-612.299988L360.5,-598.299988C360.5,-598.244995,360.454987,-598.200012,360.399994,-598.200012L356.5,-598.200012C356.399994,-598.200012,356.5,-598.299988,356.5,-598.200012L356.5,-590.400024C356.5,-590.299988,356.399994,-590.400024,356.5,-590.400024L360.399994,-590.400024C360.454987,-590.400024,360.5,-590.35498,360.5,-590.299988L360.5,-582.299988C360.5,-582.244995,360.454987,-582.200012,360.399994,-582.200012L356.5,-582.200012C356.399994,-582.200012,356.5,-582.299988,356.5,-582.200012L356.5,-574.400024C356.5,-574.299988,356.399994,-574.400024,356.5,-574.400024L360.399994,-574.400024C360.454987,-574.400024,360.5,-574.35498,360.5,-574.299988L360.5,-566.299988C360.5,-566.244995,360.454987,-566.200012,360.399994,-566.200012L356.5,-566.200012C356.399994,-566.200012,356.5,-566.299988,356.5,-566.200012L356.5,-558.400024C356.5,-558.299988,356.399994,-558.400024,356.5,-558.400024L360.399994,-558.400024C360.454987,-558.400024,360.5,-558.35498,360.5,-558.299988L360.5,-550.299988C360.5,-550.244995,360.454987,-550.200012,360.399994,-550.200012L356.5,-550.200012C356.399994,-550.200012,356.5,-550.299988,356.5,-550.200012L356.5,-542.400024C356.5,-542.299988,356.399994,-542.400024,356.5,-542.400024L360.399994,-542.400024C360.454987,-542.400024,360.5,-542.35498,360.5,-542.299988L360.5,-534.299988C360.5,-534.244995,360.454987,-534.200012,360.399994,-534.200012L356.5,-534.200012C356.399994,-534.200012,356.5,-534.299988,356.5,-534.200012L356.5,-526.400024C356.5,-526.299988,356.399994,-526.400024,356.5,-526.400024L360.399994,-526.400024C360.454987,-526.400024,360.5,-526.35498,360.5,-526.299988L360.5,-512.299988C360.5,-512.244995,360.454987,-512.200012,360.399994,-512.200012L356.399994,-512.200012L14.4,-512.200012L10.4,-512.200012C10.345,-512.200012,10.3,-512.244995,10.3,-512.299988L10.3,-526.299988C10.3,-526.35498,10.345,-526.400024,10.4,-526.400024L14.3,-526.400024C14.4,-526.400024,14.3,-526.299988,14.3,-526.400024L14.3,-534.200012C14.3,-534.299988,14.4,-534.200012,14.3,-534.200012L10.4,-534.200012C10.345,-534.200012,10.3,-534.244995,10.3,-534.299988L10.3,-542.299988C10.3,-542.35498,10.345,-542.400024,10.4,-542.400024L14.3,-542.400024C14.4,-542.400024,14.3,-542.299988,14.3,-542.400024L14.3,-550.200012C14.3,-550.299988,14.4,-550.200012,14.3,-550.200012L10.4,-550.200012C10.345,-550.200012,10.3,-550.244995,10.3,-550.299988L10.3,-558.299988C10.3,-558.35498,10.345,-558.400024,10.4,-558.400024L14.3,-558.400024C14.4,-558.400024,14.3,-558.299988,14.3,-558.400024L14.3,-566.200012C14.3,-566.299988,14.4,-566.200012,14.3,-566.200012L10.4,-566.200012C10.345,-566.200012,10.3,-566.244995,10.3,-566.299988L10.3,-574.299988C10.3,-574.35498,10.345,-574.400024,10.4,-574.400024L14.3,-574.400024C14.4,-574.400024,14.3,-574.299988,14.3,-574.400024L14.3,-582.200012C14.3,-582.299988,14.4,-582.200012,14.3,-582.200012L10.4,-582.200012C10.345,-582.200012,10.3,-582.244995,10.3,-582.299988L10.3,-590.299988C10.3,-590.35498,10.345,-590.400024,10.4,-590.400024L14.3,-590.400024C14.4,-590.400024,14.3,-590.299988,14.3,-590.400024L14.3,-598.200012C14.3,-598.299988,14.4,-598.200012,14.3,-598.200012L10.4,-598.200012C10.345,-598.200012,10.3,-598.244995,10.3,-598.299988L10.3,-612.299988C10.3,-612.35498,10.345,-612.400024,10.4,-612.400024L14.4,-612.400024z"/>
    <path transform="matrix(1,0,0,-1,-1003.892883,-796.099976)" style="stroke:#000000;stroke-width:0.05mm;fill:none" d="M14.4,-506.200012L29.299999,-506.200012C29.4,-506.200012,29.299999,-506.100006,29.299999,-506.200012L29.299999,-510.100006C29.299999,-510.154999,29.344999,-510.200012,29.4,-510.200012L37.400002,-510.200012C37.455002,-510.200012,37.5,-510.154999,37.5,-510.100006L37.5,-506.200012C37.5,-506.100006,37.400002,-506.200012,37.5,-506.200012L45.299999,-506.200012C45.400002,-506.200012,45.299999,-506.100006,45.299999,-506.200012L45.299999,-510.100006C45.299999,-510.154999,45.345001,-510.200012,45.400002,-510.200012L53.400002,-510.200012C53.455002,-510.200012,53.5,-510.154999,53.5,-510.100006L53.5,-506.200012C53.5,-506.100006,53.400002,-506.200012,53.5,-506.200012L61.299999,-506.200012C61.400002,-506.200012,61.299999,-506.100006,61.299999,-506.200012L61.299999,-510.100006C61.299999,-510.154999,61.345001,-510.200012,61.400002,-510.200012L69.400002,-510.200012C69.455002,-510.200012,69.5,-510.154999,69.5,-510.100006L69.5,-506.200012C69.5,-506.100006,69.400002,-506.200012,69.5,-506.200012L77.300003,-506.200012C77.400002,-506.200012,77.300003,-506.100006,77.300003,-506.200012L77.300003,-510.100006C77.300003,-510.154999,77.345001,-510.200012,77.400002,-510.200012L85.400002,-510.200012C85.455002,-510.200012,85.5,-510.154999,85.5,-510.100006L85.5,-506.200012C85.5,-506.100006,85.400002,-506.200012,85.5,-506.200012L93.300003,-506.200012C93.400002,-506.200012,93.300003,-506.100006,93.300003,-506.200012L93.300003,-510.100006C93.300003,-510.154999,93.345001,-510.200012,93.400002,-510.200012L101.400002,-510.200012C101.455002,-510.200012,101.5,-510.154999,101.5,-510.100006L101.5,-506.200012C101.5,-506.100006,101.400002,-506.200012,101.5,-506.200012L109.300003,-506.200012C109.400002,-506.200012,109.300003,-506.100006,109.300003,-506.200012L109.300003,-510.100006C109.300003,-510.154999,109.345001,-510.200012,109.400002,-510.200012L117.400002,-510.200012C117.455002,-510.200012,117.5,-510.154999,117.5,-510.100006L117.5,-506.200012C117.5,-506.100006,117.400002,-506.200012,117.5,-506.200012L125.300003,-506.200012C125.400002,-506.200012,125.300003,-506.100006,125.300003,-506.200012L125.300003,-510.100006C125.300003,-510.154999,125.345001,-510.200012,125.400002,-510.200012L133.399994,-510.200012C133.455002,-510.200012,133.5,-510.154999,133.5,-510.100006L133.5,-506.200012C133.5,-506.100006,133.399994,-506.200012,133.5,-506.200012L141.300003,-506.200012C141.399994,-506.200012,141.300003,-506.100006,141.300003,-506.200012L141.300003,-510.100006C141.300003,-510.154999,141.345001,-510.200012,141.399994,-510.200012L149.399994,-510.200012C149.455002,-510.200012,149.5,-510.154999,149.5,-510.100006L149.5,-506.200012C149.5,-506.100006,149.399994,-506.200012,149.5,-506.200012L157.300003,-506.200012C157.399994,-506.200012,157.300003,-506.100006,157.300003,-506.200012L157.300003,-510.100006C157.300003,-510.154999,157.345001,-510.200012,157.399994,-510.200012L165.399994,-510.200012C165.455002,-510.200012,165.5,-510.154999,165.5,-510.100006L165.5,-506.200012C165.5,-506.100006,165.399994,-506.200012,165.5,-506.200012L173.300003,-506.200012C173.399994,-506.200012,173.300003,-506.100006,173.300003,-506.200012L173.300003,-510.100006C173.300003,-510.154999,173.345001,-510.200012,173.399994,-510.200012L181.399994,-510.200012C181.455002,-510.200012,181.5,-510.154999,181.5,-510.100006L181.5,-506.200012C181.5,-506.100006,181.399994,-506.200012,181.5,-506.200012L189.300003,-506.200012C189.399994,-506.200012,189.300003,-506.100006,189.300003,-506.200012L189.300003,-510.100006C189.300003,-510.154999,189.345001,-510.200012,189.399994,-510.200012L197.399994,-510.200012C197.455002,-510.200012,197.5,-510.154999,197.5,-510.100006L197.5,-506.200012C197.5,-506.100006,197.399994,-506.200012,197.5,-506.200012L205.300003,-506.200012C205.399994,-506.200012,205.300003,-506.100006,205.300003,-506.200012L205.300003,-510.100006C205.300003,-510.154999,205.345001,-510.200012,205.399994,-510.200012L213.399994,-510.200012C213.455002,-510.200012,213.5,-510.154999,213.5,-510.100006L213.5,-506.200012C213.5,-506.100006,213.399994,-506.200012,213.5,-506.200012L221.300003,-506.200012C221.399994,-506.200012,221.300003,-506.100006,221.300003,-506.200012L221.300003,-510.100006C221.300003,-510.154999,221.345001,-510.200012,221.399994,-510.200012L229.399994,-510.200012C229.455002,-510.200012,229.5,-510.154999,229.5,-510.100006L229.5,-506.200012C229.5,-506.100006,229.399994,-506.200012,229.5,-506.200012L237.300003,-506.200012C237.399994,-506.200012,237.300003,-506.100006,237.300003,-506.200012L237.300003,-510.100006C237.300003,-510.154999,237.345001,-510.200012,237.399994,-510.200012L245.399994,-510.200012C245.455002,-510.200012,245.5,-510.154999,245.5,-510.100006L245.5,-506.200012C245.5,-506.100006,245.399994,-506.200012,245.5,-506.200012L253.300003,-506.200012C253.399994,-506.200012,253.300003,-506.100006,253.300003,-506.200012L253.300003,-510.100006C253.300003,-510.154999,253.345001,-510.200012,253.399994,-510.200012L261.399994,-510.200012C261.454987,-510.200012,261.5,-510.154999,261.5,-510.100006L261.5,-506.200012C261.5,-506.100006,261.399994,-506.200012,261.5,-506.200012L269.299988,-506.200012C269.399994,-506.200012,269.299988,-506.100006,269.299988,-506.200012L269.299988,-510.100006C269.299988,-510.154999,269.345001,-510.200012,269.399994,-510.200012L277.399994,-510.200012C277.454987,-510.200012,277.5,-510.154999,277.5,-510.100006L277.5,-506.200012C277.5,-506.100006,277.399994,-506.200012,277.5,-506.200012L285.299988,-506.200012C285.399994,-506.200012,285.299988,-506.100006,285.299988,-506.200012L285.299988,-510.100006C285.299988,-510.154999,285.345001,-510.200012,285.399994,-510.200012L293.399994,-510.200012C293.454987,-510.200012,293.5,-510.154999,293.5,-510.100006L293.5,-506.200012C293.5,-506.100006,293.399994,-506.200012,293.5,-506.200012L301.299988,-506.200012C301.399994,-506.200012,301.299988,-506.100006,301.299988,-506.200012L301.299988,-510.100006C301.299988,-510.154999,301.345001,-510.200012,301.399994,-510.200012L309.399994,-510.200012C309.454987,-510.200012,309.5,-510.154999,309.5,-510.100006L309.5,-506.200012C309.5,-506.100006,309.399994,-506.200012,309.5,-506.200012L317.299988,-506.200012C317.399994,-506.200012,317.299988,-506.100006,317.299988,-506.200012L317.299988,-510.100006C317.299988,-510.154999,317.345001,-510.200012,317.399994,-510.200012L325.399994,-510.200012C325.454987,-510.200012,325.5,-510.154999,325.5,-510.100006L325.5,-506.200012C325.5,-506.100006,325.399994,-506.200012,325.5,-506.200012L333.299988,-506.200012C333.399994,-506.200012,333.299988,-506.100006,333.299988,-506.200012L333.299988,-510.100006C333.299988,-510.154999,333.345001,-510.200012,333.399994,-510.200012L341.399994,-510.200012C341.454987,-510.200012,341.5,-510.154999,341.5,-510.100006L341.5,-506.200012C341.5,-506.100006,341.399994,-506.200012,341.5,-506.200012L356.399994,-506.200012C356.454987,-506.200012,356.5,-506.154999,356.5,-506.100006L356.5,-496.200012C356.5,-496.100006,356.399994,-496.200012,356.5,-496.200012L360.399994,-496.200012C360.454987,-496.200012,360.5,-496.154999,360.5,-496.100006L360.5,-488.100006C360.5,-488.045013,360.454987,-488,360.399994,-488L356.5,-488C356.399994,-488,356.5,-488.100006,356.5,-488L356.5,-480.200012C356.5,-480.100006,356.399994,-480.200012,356.5,-480.200012L360.399994,-480.200012C360.454987,-480.200012,360.5,-480.154999,360.5,-480.100006L360.5,-472.100006C360.5,-472.045013,360.454987,-472,360.399994,-472L356.5,-472C356.399994,-472,356.5,-472.100006,356.5,-472L356.5,-464.200012C356.5,-464.100006,356.399994,-464.200012,356.5,-464.200012L360.399994,-464.200012C360.454987,-464.200012,360.5,-464.154999,360.5,-464.100006L360.5,-456.100006C360.5,-456.045013,360.454987,-456,360.399994,-456L356.5,-456C356.399994,-456,356.5,-456.100006,356.5,-456L356.5,-448.200012C356.5,-448.100006,356.399994,-448.200012,356.5,-448.200012L360.399994,-448.200012C360.454987,-448.200012,360.5,-448.154999,360.5,-448.100006L360.5,-440.100006C360.5,-440.045013,360.454987,-440,360.399994,-440L356.5,-440C356.399994,-440,356.5,-440.100006,356.5,-440L356.5,-432.200012C356.5,-432.100006,356.399994,-432.200012,356.5,-432.200012L360.399994,-432.200012C360.454987,-432.200012,360.5,-432.154999,360.5,-432.100006L360.5,-424.100006C360.5,-424.045013,360.454987,-424,360.399994,-424L356.5,-424C356.399994,-424,356.5,-424.100006,356.5,-424L356.5,-416.200012C356.5,-416.100006,356.399994,-416.200012,356.5,-416.200012L360.399994,-416.200012C360.454987,-416.200012,360.5,-416.154999,360.5,-416.100006L360.5,-408.100006C360.5,-408.045013,360.454987,-408,360.399994,-408L356.5,-408C356.399994,-408,356.5,-408.100006,356.5,-408L356.5,-400.200012C356.5,-400.100006,356.399994,-400.200012,356.5,-400.200012L360.399994,-400.200012C360.454987,-400.200012,360.5,-400.154999,360.5,-400.100006L360.5,-392.100006C360.5,-392.045013,360.454987,-392,360.399994,-392L356.5,-392C356.399994,-392,356.5,-392.100006,356.5,-392L356.5,-384.200012C356.5,-384.100006,356.399994,-384.200012,356.5,-384.200012L360.399994,-384.200012C360.454987,-384.200012,360.5,-384.154999,360.5,-384.100006L360.5,-376.100006C360.5,-376.045013,360.454987,-376,360.399994,-376L356.5,-376C356.399994,-376,356.5,-376.100006,356.5,-376L356.5,-368.200012C356.5,-368.100006,356.399994,-368.200012,356.5,-368.200012L360.399994,-368.200012C360.454987,-368.200012,360.5,-368.154999,360.5,-368.100006L360.5,-360.100006C360.5,-360.045013,360.454987,-360,360.399994,-360L356.5,-360C356.399994,-360,356.5,-360.100006,356.5,-360L356.5,-352.200012C356.5,-352.100006,356.399994,-352.200012,356.5,-352.200012L360.399994,-352.200012C360.454987,-352.200012,360.5,-352.154999,360.5,-352.100006L360.5,-344.100006C360.5,-344.045013,360.454987,-344,360.399994,-344L356.5,-344C356.399994,-344,356.5,-344.100006,356.5,-344L356.5,-336.200012C356.5,-336.100006,356.399994,-336.200012,356.5,-336.200012L360.399994,-336.200012C360.454987,-336.200012,360.5,-336.154999,360.5,-336.100006L360.5,-328.100006C360.5,-328.045013,360.454987,-328,360.399994,-328L356.5,-328C356.399994,-328,356.5,-328.100006,356.5,-328L356.5,-320.200012C356.5,-320.100006,356.399994,-320.200012,356.5,-320.200012L360.399994,-320.200012C360.454987,-320.200012,360.5,-320.154999,360.5,-320.100006L360.5,-312.100006C360.5,-312.045013,360.454987,-312,360.399994,-312L356.5,-312C356.399994,-312,356.5,-312.100006,356.5,-312L356.5,-304.200012C356.5,-304.100006,356.399994,-304.200012,356.5,-304.200012L360.399994,-304.200012C360.454987,-304.200012,360.5,-304.154999,360.5,-304.100006L360.5,-296.100006C360.5,-296.045013,360.454987,-296,360.399994,-296L356.5,-296C356.399994,-296,356.5,-296.100006,356.5,-296L356.5,-288.200012C356.5,-288.100006,356.399994,-288.200012,356.5,-288.200012L360.399994,-288.200012C360.454987,-288.200012,360.5,-288.154999,360.5,-288.100006L360.5,-280.100006C360.5,-280.045013,360.454987,-280,360.399994,-280L356.5,-280C356.399994,-280,356.5,-280.100006,356.5,-280L356.5,-272.200012C356.5,-272.100006,356.399994,-272.200012,356.5,-272.200012L360.399994,-272.200012C360.454987,-272.200012,360.5,-272.154999,360.5,-272.100006L360.5,-264.100006C360.5,-264.045013,360.454987,-264,360.399994,-264L356.5,-264C356.399994,-264,356.5,-264.100006,356.5,-264L356.5,-256.200012C356.5,-256.100006,356.399994,-256.200012,356.5,-256.200012L360.399994,-256.200012C360.454987,-256.200012,360.5,-256.154999,360.5,-256.100006L360.5,-248.100006C360.5,-248.044998,360.454987,-248,360.399994,-248L356.5,-248C356.399994,-248,356.5,-248.100006,356.5,-248L356.5,-240.199997C356.5,-240.100006,356.399994,-240.199997,356.5,-240.199997L360.399994,-240.199997C360.454987,-240.199997,360.5,-240.154999,360.5,-240.100006L360.5,-232.100006C360.5,-232.044998,360.454987,-232,360.399994,-232L356.5,-232C356.399994,-232,356.5,-232.100006,356.5,-232L356.5,-224.199997C356.5,-224.100006,356.399994,-224.199997,356.5,-224.199997L360.399994,-224.199997C360.454987,-224.199997,360.5,-224.154999,360.5,-224.100006L360.5,-216.100006C360.5,-216.044998,360.454987,-216,360.399994,-216L356.5,-216C356.399994,-216,356.5,-216.100006,356.5,-216L356.5,-208.199997C356.5,-208.100006,356.399994,-208.199997,356.5,-208.199997L360.399994,-208.199997C360.454987,-208.199997,360.5,-208.154999,360.5,-208.100006L360.5,-200.100006C360.5,-200.044998,360.454987,-200,360.399994,-200L356.5,-200C356.399994,-200,356.5,-200.100006,356.5,-200L356.5,-192.199997C356.5,-192.100006,356.399994,-192.199997,356.5,-192.199997L360.399994,-192.199997C360.454987,-192.199997,360.5,-192.154999,360.5,-192.100006L360.5,-184.100006C360.5,-184.044998,360.454987,-184,360.399994,-184L356.5,-184C356.399994,-184,356.5,-184.100006,356.5,-184L356.5,-176.199997C356.5,-176.100006,356.399994,-176.199997,356.5,-176.199997L360.399994,-176.199997C360.454987,-176.199997,360.5,-176.154999,360.5,-176.100006L360.5,-168.100006C360.5,-168.044998,360.454987,-168,360.399994,-168L356.5,-168C356.399994,-168,356.5,-168.100006,356.5,-168L356.5,-160.199997C356.5,-160.100006,356.399994,-160.199997,356.5,-160.199997L360.399994,-160.199997C360.454987,-160.199997,360.5,-160.154999,360.5,-160.100006L360.5,-152.100006C360.5,-152.044998,360.454987,-152,360.399994,-152L356.5,-152C356.399994,-152,356.5,-152.100006,356.5,-152L356.5,-144.199997C356.5,-144.100006,356.399994,-144.199997,356.5,-144.199997L360.399994,-144.199997C360.454987,-144.199997,360.5,-144.154999,360.5,-144.100006L360.5,-136.100006C360.5,-136.044998,360.454987,-136,360.399994,-136L356.5,-136C356.399994,-136,356.5,-136.100006,356.5,-136L356.5,-128.199997C356.5,-128.100006,356.399994,-128.199997,356.5,-128.199997L360.399994,-128.199997C360.454987,-128.199997,360.5,-128.154999,360.5,-128.100006L360.5,-120.099998C360.5,-120.044998,360.454987,-120,360.399994,-120L356.5,-120C356.399994,-120,356.5,-120.099998,356.5,-120L356.5,-112.199997C356.5,-112.099998,356.399994,-112.199997,356.5,-112.199997L360.399994,-112.199997C360.454987,-112.199997,360.5,-112.154999,360.5,-112.099998L360.5,-104.099998C360.5,-104.044998,360.454987,-104,360.399994,-104L356.5,-104C356.399994,-104,356.5,-104.099998,356.5,-104L356.5,-96.199997C356.5,-96.099998,356.399994,-96.199997,356.5,-96.199997L360.399994,-96.199997C360.454987,-96.199997,360.5,-96.154999,360.5,-96.099998L360.5,-88.099998C360.5,-88.044998,360.454987,-88,360.399994,-88L356.5,-88C356.399994,-88,356.5,-88.099998,356.5,-88L356.5,-80.199997C356.5,-80.099998,356.399994,-80.199997,356.5,-80.199997L360.399994,-80.199997C360.454987,-80.199997,360.5,-80.154999,360.5,-80.099998L360.5,-72.099998C360.5,-72.044998,360.454987,-72,360.399994,-72L356.5,-72C356.399994,-72,356.5,-72.099998,356.5,-72L356.5,-64.199997C356.5,-64.099998,356.399994,-64.199997,356.5,-64.199997L360.399994,-64.199997C360.454987,-64.199997,360.5,-64.154999,360.5,-64.099998L360.5,-56.099998C360.5,-56.044998,360.454987,-56,360.399994,-56L356.5,-56C356.399994,-56,356.5,-56.099998,356.5,-56L356.5,-48.200001C356.5,-48.099998,356.399994,-48.200001,356.5,-48.200001L360.399994,-48.200001C360.454987,-48.200001,360.5,-48.154999,360.5,-48.099998L360.5,-40.099998C360.5,-40.044998,360.454987,-40,360.399994,-40L356.5,-40C356.399994,-40,356.5,-40.099998,356.5,-40L356.5,-32.200001C356.5,-32.099998,356.399994,-32.200001,356.5,-32.200001L360.399994,-32.200001C360.454987,-32.200001,360.5,-32.154999,360.5,-32.099998L360.5,-24.1C360.5,-24.045,360.454987,-24,360.399994,-24L356.5,-24C356.399994,-24,356.5,-24.1,356.5,-24L356.5,-14.1C356.5,-14.045,356.454987,-14,356.399994,-14L341.5,-14C341.399994,-14,341.5,-14.1,341.5,-14L341.5,-10.1C341.5,-10.045,341.454987,-10,341.399994,-10L333.399994,-10C333.345001,-10,333.299988,-10.045,333.299988,-10.1L333.299988,-14C333.299988,-14.1,333.399994,-14,333.299988,-14L325.5,-14C325.399994,-14,325.5,-14.1,325.5,-14L325.5,-10.1C325.5,-10.045,325.454987,-10,325.399994,-10L317.399994,-10C317.345001,-10,317.299988,-10.045,317.299988,-10.1L317.299988,-14C317.299988,-14.1,317.399994,-14,317.299988,-14L309.5,-14C309.399994,-14,309.5,-14.1,309.5,-14L309.5,-10.1C309.5,-10.045,309.454987,-10,309.399994,-10L301.399994,-10C301.345001,-10,301.299988,-10.045,301.299988,-10.1L301.299988,-14C301.299988,-14.1,301.399994,-14,301.299988,-14L293.5,-14C293.399994,-14,293.5,-14.1,293.5,-14L293.5,-10.1C293.5,-10.045,293.454987,-10,293.399994,-10L285.399994,-10C285.345001,-10,285.299988,-10.045,285.299988,-10.1L285.299988,-14C285.299988,-14.1,285.399994,-14,285.299988,-14L277.5,-14C277.399994,-14,277.5,-14.1,277.5,-14L277.5,-10.1C277.5,-10.045,277.454987,-10,277.399994,-10L269.399994,-10C269.345001,-10,269.299988,-10.045,269.299988,-10.1L269.299988,-14C269.299988,-14.1,269.399994,-14,269.299988,-14L261.5,-14C261.399994,-14,261.5,-14.1,261.5,-14L261.5,-10.1C261.5,-10.045,261.454987,-10,261.399994,-10L253.399994,-10C253.345001,-10,253.300003,-10.045,253.300003,-10.1L253.300003,-14C253.300003,-14.1,253.399994,-14,253.300003,-14L245.5,-14C245.399994,-14,245.5,-14.1,245.5,-14L245.5,-10.1C245.5,-10.045,245.455002,-10,245.399994,-10L237.399994,-10C237.345001,-10,237.300003,-10.045,237.300003,-10.1L237.300003,-14C237.300003,-14.1,237.399994,-14,237.300003,-14L229.5,-14C229.399994,-14,229.5,-14.1,229.5,-14L229.5,-10.1C229.5,-10.045,229.455002,-10,229.399994,-10L221.399994,-10C221.345001,-10,221.300003,-10.045,221.300003,-10.1L221.300003,-14C221.300003,-14.1,221.399994,-14,221.300003,-14L213.5,-14C213.399994,-14,213.5,-14.1,213.5,-14L213.5,-10.1C213.5,-10.045,213.455002,-10,213.399994,-10L205.399994,-10C205.345001,-10,205.300003,-10.045,205.300003,-10.1L205.300003,-14C205.300003,-14.1,205.399994,-14,205.300003,-14L197.5,-14C197.399994,-14,197.5,-14.1,197.5,-14L197.5,-10.1C197.5,-10.045,197.455002,-10,197.399994,-10L189.399994,-10C189.345001,-10,189.300003,-10.045,189.300003,-10.1L189.300003,-14C189.300003,-14.1,189.399994,-14,189.300003,-14L181.5,-14C181.399994,-14,181.5,-14.1,181.5,-14L181.5,-10.1C181.5,-10.045,181.455002,-10,181.399994,-10L173.399994,-10C173.345001,-10,173.300003,-10.045,173.300003,-10.1L173.300003,-14C173.300003,-14.1,173.399994,-14,173.300003,-14L165.5,-14C165.399994,-14,165.5,-14.1,165.5,-14L165.5,-10.1C165.5,-10.045,165.455002,-10,165.399994,-10L157.399994,-10C157.345001,-10,157.300003,-10.045,157.300003,-10.1L157.300003,-14C157.300003,-14.1,157.399994,-14,157.300003,-14L149.5,-14C149.399994,-14,149.5,-14.1,149.5,-14L149.5,-10.1C149.5,-10.045,149.455002,-10,149.399994,-10L141.399994,-10C141.345001,-10,141.300003,-10.045,141.300003,-10.1L141.300003,-14C141.300003,-14.1,141.399994,-14,141.300003,-14L133.5,-14C133.399994,-14,133.5,-14.1,133.5,-14L133.5,-10.1C133.5,-10.045,133.455002,-10,133.399994,-10L125.400002,-10C125.345001,-10,125.300003,-10.045,125.300003,-10.1L125.300003,-14C125.300003,-14.1,125.400002,-14,125.300003,-14L117.5,-14C117.400002,-14,117.5,-14.1,117.5,-14L117.5,-10.1C117.5,-10.045,117.455002,-10,117.400002,-10L109.400002,-10C109.345001,-10,109.300003,-10.045,109.300003,-10.1L109.300003,-14C109.300003,-14.1,109.400002,-14,109.300003,-14L101.5,-14C101.400002,-14,101.5,-14.1,101.5,-14L101.5,-10.1C101.5,-10.045,101.455002,-10,101.400002,-10L93.400002,-10C93.345001,-10,93.300003,-10.045,93.300003,-10.1L93.300003,-14C93.300003,-14.1,93.400002,-14,93.300003,-14L85.5,-14C85.400002,-14,85.5,-14.1,85.5,-14L85.5,-10.1C85.5,-10.045,85.455002,-10,85.400002,-10L77.400002,-10C77.345001,-10,77.300003,-10.045,77.300003,-10.1L77.300003,-14C77.300003,-14.1,77.400002,-14,77.300003,-14L69.5,-14C69.400002,-14,69.5,-14.1,69.5,-14L69.5,-10.1C69.5,-10.045,69.455002,-10,69.400002,-10L61.400002,-10C61.345001,-10,61.299999,-10.045,61.299999,-10.1L61.299999,-14C61.299999,-14.1,61.400002,-14,61.299999,-14L53.5,-14C53.400002,-14,53.5,-14.1,53.5,-14L53.5,-10.1C53.5,-10.045,53.455002,-10,53.400002,-10L45.400002,-10C45.345001,-10,45.299999,-10.045,45.299999,-10.1L45.299999,-14C45.299999,-14.1,45.400002,-14,45.299999,-14L37.5,-14C37.400002,-14,37.5,-14.1,37.5,-14L37.5,-10.1C37.5,-10.045,37.455002,-10,37.400002,-10L29.4,-10C29.344999,-10,29.299999,-10.045,29.299999,-10.1L29.299999,-14C29.299999,-14.1,29.4,-14,29.299999,-14L14.4,-14C14.345,-14,14.3,-14.045,14.3,-14.1L14.3,-24C14.3,-24.1,14.4,-24,14.3,-24L10.4,-24C10.345,-24,10.3,-24.045,10.3,-24.1L10.3,-32.099998C10.3,-32.154999,10.345,-32.200001,10.4,-32.200001L14.3,-32.200001C14.4,-32.200001,14.3,-32.099998,14.3,-32.200001L14.3,-40C14.3,-40.099998,14.4,-40,14.3,-40L10.4,-40C10.345,-40,10.3,-40.044998,10.3,-40.099998L10.3,-48.099998C10.3,-48.154999,10.345,-48.200001,10.4,-48.200001L14.3,-48.200001C14.4,-48.200001,14.3,-48.099998,14.3,-48.200001L14.3,-56C14.3,-56.099998,14.4,-56,14.3,-56L10.4,-56C10.345,-56,10.3,-56.044998,10.3,-56.099998L10.3,-64.099998C10.3,-64.154999,10.345,-64.199997,10.4,-64.199997L14.3,-64.199997C14.4,-64.199997,14.3,-64.099998,14.3,-64.199997L14.3,-72C14.3,-72.099998,14.4,-72,14.3,-72L10.4,-72C10.345,-72,10.3,-72.044998,10.3,-72.099998L10.3,-80.099998C10.3,-80.154999,10.345,-80.199997,10.4,-80.199997L14.3,-80.199997C14.4,-80.199997,14.3,-80.099998,14.3,-80.199997L14.3,-88C14.3,-88.099998,14.4,-88,14.3,-88L10.4,-88C10.345,-88,10.3,-88.044998,10.3,-88.099998L10.3,-96.099998C10.3,-96.154999,10.345,-96.199997,10.4,-96.199997L14.3,-96.199997C14.4,-96.199997,14.3,-96.099998,14.3,-96.199997L14.3,-104C14.3,-104.099998,14.4,-104,14.3,-104L10.4,-104C10.345,-104,10.3,-104.044998,10.3,-104.099998L10.3,-112.099998C10.3,-112.154999,10.345,-112.199997,10.4,-112.199997L14.3,-112.199997C14.4,-112.199997,14.3,-112.099998,14.3,-112.199997L14.3,-120C14.3,-120.099998,14.4,-120,14.3,-120L10.4,-120C10.345,-120,10.3,-120.044998,10.3,-120.099998L10.3,-128.100006C10.3,-128.154999,10.345,-128.199997,10.4,-128.199997L14.3,-128.199997C14.4,-128.199997,14.3,-128.100006,14.3,-128.199997L14.3,-136C14.3,-136.100006,14.4,-136,14.3,-136L10.4,-136C10.345,-136,10.3,-136.044998,10.3,-136.100006L10.3,-144.100006C10.3,-144.154999,10.345,-144.199997,10.4,-144.199997L14.3,-144.199997C14.4,-144.199997,14.3,-144.100006,14.3,-144.199997L14.3,-152C14.3,-152.100006,14.4,-152,14.3,-152L10.4,-152C10.345,-152,10.3,-152.044998,10.3,-152.100006L10.3,-160.100006C10.3,-160.154999,10.345,-160.199997,10.4,-160.199997L14.3,-160.199997C14.4,-160.199997,14.3,-160.100006,14.3,-160.199997L14.3,-168C14.3,-168.100006,14.4,-168,14.3,-168L10.4,-168C10.345,-168,10.3,-168.044998,10.3,-168.100006L10.3,-176.100006C10.3,-176.154999,10.345,-176.199997,10.4,-176.199997L14.3,-176.199997C14.4,-176.199997,14.3,-176.100006,14.3,-176.199997L14.3,-184C14.3,-184.100006,14.4,-184,14.3,-184L10.4,-184C10.345,-184,10.3,-184.044998,10.3,-184.100006L10.3,-192.100006C10.3,-192.154999,10.345,-192.199997,10.4,-192.199997L14.3,-192.199997C14.4,-192.199997,14.3,-192.100006,14.3,-192.199997L14.3,-200C14.3,-200.100006,14.4,-200,14.3,-200L10.4,-200C10.345,-200,10.3,-200.044998,10.3,-200.100006L10.3,-208.100006C10.3,-208.154999,10.345,-208.199997,10.4,-208.199997L14.3,-208.199997C14.4,-208.199997,14.3,-208.100006,14.3,-208.199997L14.3,-216C14.3,-216.100006,14.4,-216,14.3,-216L10.4,-216C10.345,-216,10.3,-216.044998,10.3,-216.100006L10.3,-224.100006C10.3,-224.154999,10.345,-224.199997,10.4,-224.199997L14.3,-224.199997C14.4,-224.199997,14.3,-224.100006,14.3,-224.199997L14.3,-232C14.3,-232.100006,14.4,-232,14.3,-232L10.4,-232C10.345,-232,10.3,-232.044998,10.3,-232.100006L10.3,-240.100006C10.3,-240.154999,10.345,-240.199997,10.4,-240.199997L14.3,-240.199997C14.4,-240.199997,14.3,-240.100006,14.3,-240.199997L14.3,-248C14.3,-248.100006,14.4,-248,14.3,-248L10.4,-248C10.345,-248,10.3,-248.044998,10.3,-248.100006L10.3,-256.100006C10.3,-256.154999,10.345,-256.200012,10.4,-256.200012L14.3,-256.200012C14.4,-256.200012,14.3,-256.100006,14.3,-256.200012L14.3,-264C14.3,-264.100006,14.4,-264,14.3,-264L10.4,-264C10.345,-264,10.3,-264.045013,10.3,-264.100006L10.3,-272.100006C10.3,-272.154999,10.345,-272.200012,10.4,-272.200012L14.3,-272.200012C14.4,-272.200012,14.3,-272.100006,14.3,-272.200012L14.3,-280C14.3,-280.100006,14.4,-280,14.3,-280L10.4,-280C10.345,-280,10.3,-280.045013,10.3,-280.100006L10.3,-288.100006C10.3,-288.154999,10.345,-288.200012,10.4,-288.200012L14.3,-288.200012C14.4,-288.200012,14.3,-288.100006,14.3,-288.200012L14.3,-296C14.3,-296.100006,14.4,-296,14.3,-296L10.4,-296C10.345,-296,10.3,-296.045013,10.3,-296.100006L10.3,-304.100006C10.3,-304.154999,10.345,-304.200012,10.4,-304.200012L14.3,-304.200012C14.4,-304.200012,14.3,-304.100006,14.3,-304.200012L14.3,-312C14.3,-312.100006,14.4,-312,14.3,-312L10.4,-312C10.345,-312,10.3,-312.045013,10.3,-312.100006L10.3,-320.100006C10.3,-320.154999,10.345,-320.200012,10.4,-320.200012L14.3,-320.200012C14.4,-320.200012,14.3,-320.100006,14.3,-320.200012L14.3,-328C14.3,-328.100006,14.4,-328,14.3,-328L10.4,-328C10.345,-328,10.3,-328.045013,10.3,-328.100006L10.3,-336.100006C10.3,-336.154999,10.345,-336.200012,10.4,-336.200012L14.3,-336.200012C14.4,-336.200012,14.3,-336.100006,14.3,-336.200012L14.3,-344C14.3,-344.100006,14.4,-344,14.3,-344L10.4,-344C10.345,-344,10.3,-344.045013,10.3,-344.100006L10.3,-352.100006C10.3,-352.154999,10.345,-352.200012,10.4,-352.200012L14.3,-352.200012C14.4,-352.200012,14.3,-352.100006,14.3,-352.200012L14.3,-360C14.3,-360.100006,14.4,-360,14.3,-360L10.4,-360C10.345,-360,10.3,-360.045013,10.3,-360.100006L10.3,-368.100006C10.3,-368.154999,10.345,-368.200012,10.4,-368.200012L14.3,-368.200012C14.4,-368.200012,14.3,-368.100006,14.3,-368.200012L14.3,-376C14.3,-376.100006,14.4,-376,14.3,-376L10.4,-376C10.345,-376,10.3,-376.045013,10.3,-376.100006L10.3,-384.100006C10.3,-384.154999,10.345,-384.200012,10.4,-384.200012L14.3,-384.200012C14.4,-384.200012,14.3,-384.100006,14.3,-384.200012L14.3,-392C14.3,-392.100006,14.4,-392,14.3,-392L10.4,-392C10.345,-392,10.3,-392.045013,10.3,-392.100006L10.3,-400.100006C10.3,-400.154999,10.345,-400.200012,10.4,-400.200012L14.3,-400.200012C14.4,-400.200012,14.3,-400.100006,14.3,-400.200012L14.3,-408C14.3,-408.100006,14.4,-408,14.3,-408L10.4,-408C10.345,-408,10.3,-408.045013,10.3,-408.100006L10.3,-416.100006C10.3,-416.154999,10.345,-416.200012,10.4,-416.200012L14.3,-416.200012C14.4,-416.200012,14.3,-416.100006,14.3,-416.200012L14.3,-424C14.3,-424.100006,14.4,-424,14.3,-424L10.4,-424C10.345,-424,10.3,-424.045013,10.3,-424.100006L10.3,-432.100006C10.3,-432.154999,10.345,-432.200012,10.4,-432.200012L14.3,-432.200012C14.4,-432.200012,14.3,-432.100006,14.3,-432.200012L14.3,-440C14.3,-440.100006,14.4,-440,14.3,-440L10.4,-440C10.345,-440,10.3,-440.045013,10.3,-440.100006L10.3,-448.100006C10.3,-448.154999,10.345,-448.200012,10.4,-448.200012L14.3,-448.200012C14.4,-448.200012,14.3,-448.100006,14.3,-448.200012L14.3,-456C14.3,-456.100006,14.4,-456,14.3,-456L10.4,-456C10.345,-456,10.3,-456.045013,10.3,-456.100006L10.3,-464.100006C10.3,-464.154999,10.345,-464.200012,10.4,-464.200012L14.3,-464.200012C14.4,-464.200012,14.3,-464.100006,14.3,-464.200012L14.3,-472C14.3,-472.100006,14.4,-472,14.3,-472L10.4,-472C10.345,-472,10.3,-472.045013,10.3,-472.100006L10.3,-480.100006C10.3,-480.154999,10.345,-480.200012,10.4,-480.200012L14.3,-480.200012C14.4,-480.200012,14.3,-480.100006,14.3,-480.200012L14.3,-488C14.3,-488.100006,14.4,-488,14.3,-488L10.4,-488C10.345,-488,10.3,-488.045013,10.3,-488.100006L10.3,-496.100006C10.3,-496.154999,10.345,-496.200012,10.4,-496.200012L14.3,-496.200012C14.4,-496.200012,14.3,-496.100006,14.3,-496.200012L14.3,-506.100006C14.3,-506.154999,14.345,-506.200012,14.4,-506.200012z"/>
    <path transform="matrix(1,0,0,-1,-1356.092896,-766.5)" style="stroke:#000000;stroke-width:0.05mm;fill:none" d="M366.600006,-714.599976L858.599976,-714.599976C858.655029,-714.599976,858.700012,-714.554993,858.700012,-714.5L858.700012,-700.599976C858.700012,-700.5,858.599976,-700.599976,858.700012,-700.599976L862.599976,-700.599976C862.655029,-700.599976,862.700012,-700.554993,862.700012,-700.5L862.700012,-692.5C862.700012,-692.445007,862.655029,-692.400024,862.599976,-692.400024L858.700012,-692.400024C858.599976,-692.400024,858.700012,-692.5,858.700012,-692.400024L858.700012,-684.599976C858.700012,-684.5,858.599976,-684.599976,858.700012,-684.599976L862.599976,-684.599976C862.655029,-684.599976,862.700012,-684.554993,862.700012,-684.5L862.700012,-676.5C862.700012,-676.445007,862.655029,-676.400024,862.599976,-676.400024L858.700012,-676.400024C858.599976,-676.400024,858.700012,-676.5,858.700012,-676.400024L858.700012,-668.599976C858.700012,-668.5,858.599976,-668.599976,858.700012,-668.599976L862.599976,-668.599976C862.655029,-668.599976,862.700012,-668.554993,862.700012,-668.5L862.700012,-660.5C862.700012,-660.445007,862.655029,-660.400024,862.599976,-660.400024L858.700012,-660.400024C858.599976,-660.400024,858.700012,-660.5,858.700012,-660.400024L858.700012,-652.599976C858.700012,-652.5,858.599976,-652.599976,858.700012,-652.599976L862.599976,-652.599976C862.655029,-652.599976,862.700012,-652.554993,862.700012,-652.5L862.700012,-644.5C862.700012,-644.445007,862.655029,-644.400024,862.599976,-644.400024L858.700012,-644.400024C858.599976,-644.400024,858.700012,-644.5,858.700012,-644.400024L858.700012,-636.599976C858.700012,-636.5,858.599976,-636.599976,858.700012,-636.599976L862.599976,-636.599976C862.655029,-636.599976,862.700012,-636.554993,862.700012,-636.5L862.700012,-628.5C862.700012,-628.445007,862.655029,-628.400024,862.599976,-628.400024L858.700012,-628.400024C858.599976,-628.400024,858.700012,-628.5,858.700012,-628.400024L858.700012,-614.5C858.700012,-614.445007,858.655029,-614.400024,858.599976,-614.400024L366.600006,-614.400024C366.545013,-614.400024,366.5,-614.445007,366.5,-614.5L366.5,-628.400024C366.5,-628.5,366.600006,-628.400024,366.5,-628.400024L362.600006,-628.400024C362.545013,-628.400024,362.5,-628.445007,362.5,-628.5L362.5,-636.5C362.5,-636.554993,362.545013,-636.599976,362.600006,-636.599976L366.5,-636.599976C366.600006,-636.599976,366.5,-636.5,366.5,-636.599976L366.5,-644.400024C366.5,-644.5,366.600006,-644.400024,366.5,-644.400024L362.600006,-644.400024C362.545013,-644.400024,362.5,-644.445007,362.5,-644.5L362.5,-652.5C362.5,-652.554993,362.545013,-652.599976,362.600006,-652.599976L366.5,-652.599976C366.600006,-652.599976,366.5,-652.5,366.5,-652.599976L366.5,-660.400024C366.5,-660.5,366.600006,-660.400024,366.5,-660.400024L362.600006,-660.400024C362.545013,-660.400024,362.5,-660.445007,362.5,-660.5L362.5,-668.5C362.5,-668.554993,362.545013,-668.599976,362.600006,-668.599976L366.5,-668.599976C366.600006,-668.599976,366.5,-668.5,366.5,-668.599976L366.5,-676.400024C366.5,-676.5,366.600006,-676.400024,366.5,-676.400024L362.600006,-676.400024C362.545013,-676.400024,362.5,-676.445007,362.5,-676.5L362.5,-684.5C362.5,-684.554993,362.545013,-684.599976,362.600006,-684.599976L366.5,-684.599976C366.600006,-684.599976,366.5,-684.5,366.5,-684.599976L366.5,-692.400024C366.5,-692.5,366.600006,-692.400024,366.5,-692.400024L362.600006,-692.400024C362.545013,-692.400024,362.5,-692.445007,362.5,-692.5L362.5,-700.5C362.5,-700.554993,362.545013,-700.599976,362.600006,-700.599976L366.5,-700.599976C366.600006,-700.599976,366.5,-700.5,366.5,-700.599976L366.5,-714.5C366.5,-714.554993,366.545013,-714.599976,366.600006,-714.599976z"/>
    <path transform="matrix(1,0,0,-1,-1356.092896,-783.300049)" style="stroke:#000000;stroke-width:0.05mm;fill:none" d="M366.600006,-612.400024L858.599976,-612.400024C858.655029,-612.400024,858.700012,-612.35498,858.700012,-612.299988L858.700012,-598.400024C858.700012,-598.299988,858.599976,-598.400024,858.700012,-598.400024L862.599976,-598.400024C862.655029,-598.400024,862.700012,-598.35498,862.700012,-598.299988L862.700012,-590.299988C862.700012,-590.244995,862.655029,-590.200012,862.599976,-590.200012L858.700012,-590.200012C858.599976,-590.200012,858.700012,-590.299988,858.700012,-590.200012L858.700012,-582.400024C858.700012,-582.299988,858.599976,-582.400024,858.700012,-582.400024L862.599976,-582.400024C862.655029,-582.400024,862.700012,-582.35498,862.700012,-582.299988L862.700012,-574.299988C862.700012,-574.244995,862.655029,-574.200012,862.599976,-574.200012L858.700012,-574.200012C858.599976,-574.200012,858.700012,-574.299988,858.700012,-574.200012L858.700012,-566.400024C858.700012,-566.299988,858.599976,-566.400024,858.700012,-566.400024L862.599976,-566.400024C862.655029,-566.400024,862.700012,-566.35498,862.700012,-566.299988L862.700012,-558.299988C862.700012,-558.244995,862.655029,-558.200012,862.599976,-558.200012L858.700012,-558.200012C858.599976,-558.200012,858.700012,-558.299988,858.700012,-558.200012L858.700012,-550.400024C858.700012,-550.299988,858.599976,-550.400024,858.700012,-550.400024L862.599976,-550.400024C862.655029,-550.400024,862.700012,-550.35498,862.700012,-550.299988L862.700012,-542.299988C862.700012,-542.244995,862.655029,-542.200012,862.599976,-542.200012L858.700012,-542.200012C858.599976,-542.200012,858.700012,-542.299988,858.700012,-542.200012L858.700012,-534.400024C858.700012,-534.299988,858.599976,-534.400024,858.700012,-534.400024L862.599976,-534.400024C862.655029,-534.400024,862.700012,-534.35498,862.700012,-534.299988L862.700012,-526.299988C862.700012,-526.244995,862.655029,-526.200012,862.599976,-526.200012L858.700012,-526.200012C858.599976,-526.200012,858.700012,-526.299988,858.700012,-526.200012L858.700012,-512.299988C858.700012,-512.244995,858.655029,-512.200012,858.599976,-512.200012L366.600006,-512.200012C366.545013,-512.200012,366.5,-512.244995,366.5,-512.299988L366.5,-526.200012C366.5,-526.299988,366.600006,-526.200012,366.5,-526.200012L362.600006,-526.200012C362.545013,-526.200012,362.5,-526.244995,362.5,-526.299988L362.5,-534.299988C362.5,-534.35498,362.545013,-534.400024,362.600006,-534.400024L366.5,-534.400024C366.600006,-534.400024,366.5,-534.299988,366.5,-534.400024L366.5,-542.200012C366.5,-542.299988,366.600006,-542.200012,366.5,-542.200012L362.600006,-542.200012C362.545013,-542.200012,362.5,-542.244995,362.5,-542.299988L362.5,-550.299988C362.5,-550.35498,362.545013,-550.400024,362.600006,-550.400024L366.5,-550.400024C366.600006,-550.400024,366.5,-550.299988,366.5,-550.400024L366.5,-558.200012C366.5,-558.299988,366.600006,-558.200012,366.5,-558.200012L362.600006,-558.200012C362.545013,-558.200012,362.5,-558.244995,362.5,-558.299988L362.5,-566.299988C362.5,-566.35498,362.545013,-566.400024,362.600006,-566.400024L366.5,-566.400024C366.600006,-566.400024,366.5,-566.299988,366.5,-566.400024L366.5,-574.200012C366.5,-574.299988,366.600006,-574.200012,366.5,-574.200012L362.600006,-574.200012C362.545013,-574.200012,362.5,-574.244995,362.5,-574.299988L362.5,-582.299988C362.5,-582.35498,362.545013,-582.400024,362.600006,-582.400024L366.5,-582.400024C366.600006,-582.400024,366.5,-582.299988,366.5,-582.400024L366.5,-590.200012C366.5,-590.299988,366.600006,-590.200012,366.5,-590.200012L362.600006,-590.200012C362.545013,-590.200012,362.5,-590.244995,362.5,-590.299988L362.5,-598.299988C362.5,-598.35498,362.545013,-598.400024,362.600006,-598.400024L366.5,-598.400024C366.600006,-598.400024,366.5,-598.299988,366.5,-598.400024L366.5,-612.299988C366.5,-612.35498,366.545013,-612.400024,366.600006,-612.400024z"/>
    <path transform="matrix(1,0,0,-1,-451.156921,-344.531342)" style="stroke:#000000;stroke-width:0.05mm;fill:none" d="M5.697021,-15.573486C6.596302,-15.524763,7.480934,-15.324776,8.313721,-14.981934C9.340294,-14.559357,10.222255,-13.847954,10.852539,-12.934082C11.546208,-11.853422,11.846367,-10.566561,11.702393,-9.290527C11.597978,-8.211784,11.165745,-7.190799,10.463867,-6.36499C9.77083,-5.567017,8.94057,-4.899715,8.012207,-4.394531C6.955505,-3.822681,5.849414,-3.347382,4.707275,-2.974365L4.319336,-2.821045C3.596781,-2.554721,2.929954,-2.156099,2.353271,-1.645752C1.75163,-1.12702,1.533253,-0.288549,1.80542,0.457764C1.978509,0.982898,2.377944,1.402761,2.893799,1.601807C3.488636,1.828821,4.122995,1.934174,4.759277,1.911621C5.454621,1.932057,6.148057,1.826246,6.805664,1.599365C7.753778,1.282228,8.441166,0.454997,8.579346,-0.535156C8.680643,-1.196559,8.646419,-1.871758,8.47876,-2.519531L10.949463,-2.062988C10.979898,-1.074101,10.777776,-0.091839,10.359375,0.804688C9.833771,1.826367,8.922729,2.596653,7.827881,2.945068C6.653596,3.317982,5.417327,3.45611,4.189697,3.351563C3.325521,3.304353,2.475323,3.112908,1.674316,2.785156C0.682177,2.381082,-0.173655,1.701466,-0.791992,0.82666C-1.371437,-0.04382,-1.669461,-1.071268,-1.645752,-2.116699C-1.672325,-3.869564,-0.89303,-5.538415,0.468018,-6.643311C1.264993,-7.295633,2.155737,-7.823923,3.110352,-8.210449C3.479372,-8.3573,3.8482,-8.501038,4.219238,-8.642578L4.643799,-8.820801C5.339282,-9.106143,5.989885,-9.490486,6.575439,-9.961914C6.990248,-10.284514,7.296594,-10.726227,7.453369,-11.227783C7.605263,-11.901748,7.466947,-12.60794,7.072021,-13.174805C6.735949,-13.585058,6.270637,-13.869271,5.752197,-13.980957C4.614536,-14.242588,3.426898,-14.180446,2.322754,-13.801514C1.467954,-13.488453,0.826117,-12.76815,0.613281,-11.883057C0.453272,-11.195586,0.431696,-10.48325,0.549805,-9.787354C0.604978,-9.420124,0.678884,-9.055974,0.77124,-8.696289L-1.793457,-9.260254C-1.949143,-10.305227,-1.860554,-11.372212,-1.534668,-12.377197C-1.131857,-13.489816,-0.28742,-14.386908,0.798828,-14.856201C1.851012,-15.305359,2.979093,-15.550198,4.122803,-15.577637C4.647184,-15.60633,5.172802,-15.604943,5.697021,-15.573486zM-64.198975,-6.722412L-58.559326,-6.722412L-58.559326,-4.882813L-64.198975,-4.882813L-64.198975,1.226807L-57.552246,1.226807L-57.552246,3.066406L-69.516357,3.066406L-69.516357,-15.262451L-64.198975,-15.262451L-64.198975,-6.722412zM-50.435547,-6.453857L-49.522461,-6.453857C-48.96954,-6.42926,-48.423641,-6.585794,-47.967773,-6.899658C-47.544193,-7.236402,-47.248787,-7.70821,-47.130859,-8.236328C-47.017765,-8.68961,-46.964092,-9.155677,-46.971191,-9.622803L-46.944336,-10.992432L-46.91748,-12.080078L-46.908936,-12.546875C-46.898685,-13.477839,-46.714859,-14.39888,-46.366943,-15.262451L-40.593018,-15.262451C-40.951183,-14.724807,-41.193123,-14.118462,-41.303467,-13.481934C-41.496803,-12.517392,-41.624866,-11.54087,-41.686768,-10.559082L-41.758301,-9.990479C-41.830147,-9.283516,-42.011631,-8.591837,-42.296143,-7.940674C-42.550663,-7.473575,-42.931129,-7.08761,-43.394531,-6.826416C-43.92313,-6.507807,-44.482624,-6.243519,-45.064453,-6.037598L-44.586426,-5.902588C-43.768215,-5.672608,-43.010284,-5.266185,-42.365967,-4.711914C-41.628197,-4.039988,-41.184898,-3.104169,-41.132324,-2.107666C-40.964085,-0.575541,-41.66888,0.923005,-42.956299,1.770508C-43.793312,2.336646,-44.742035,2.716352,-45.738525,2.884033C-46.442352,3.008982,-47.156029,3.070021,-47.87085,3.066406L-55.75293,3.066406L-55.75293,-15.262451L-50.435547,-15.262451L-50.435547,-6.453857zM-25.443359,-13.422852L-33.124023,-13.422852L-33.124023,-6.158447L-27.605225,-6.158447L-27.605225,-4.318848L-33.124023,-4.318848L-33.124023,1.226807L-26.557861,1.226807L-26.557861,3.066406L-38.441406,3.066406L-38.441406,-15.262451L-25.443359,-15.262451L-25.443359,-13.422852zM-10.868408,-13.422852L-18.549072,-13.422852L-18.549072,-6.158447L-13.030273,-6.158447L-13.030273,-4.318848L-18.549072,-4.318848L-18.549072,1.226807L-11.98291,1.226807L-11.98291,3.066406L-23.866455,3.066406L-23.866455,-15.262451L-10.868408,-15.262451L-10.868408,-13.422852zM22.462402,1.226807L26.960693,1.226807L26.960693,3.066406L12.297607,3.066406L12.297607,1.226807L16.822754,1.226807L16.822754,-15.262451L22.462402,-15.262451L22.462402,1.226807zM35.608398,-15.551758C36.139484,-15.538521,36.669037,-15.489008,37.193359,-15.403564C38.284397,-15.255123,39.319317,-14.829824,40.199463,-14.168213C41.068726,-13.457247,41.676819,-12.477348,41.927979,-11.382813C42.098919,-10.679338,42.181507,-9.957296,42.173828,-9.233398L42.173828,3.066406L40.387939,3.066406L40.387939,-9.233398C40.41087,-10.013162,40.291302,-10.790736,40.035156,-11.527588C39.672596,-12.593557,38.738144,-13.363753,37.622559,-13.516113C36.814796,-13.648918,35.987614,-13.596413,35.203125,-13.362549C34.609394,-13.184854,34.132671,-12.739309,33.915283,-12.158936C33.671021,-11.456326,33.543301,-10.718688,33.537109,-9.974854L33.526367,-9.394531L33.526367,3.066406L28.208984,3.066406L28.208984,-9.233398C28.173828,-10.38289,28.406878,-11.524817,28.889648,-12.568604C29.492468,-13.753907,30.543354,-14.64986,31.809082,-15.057617C33.034855,-15.452356,34.322441,-15.61982,35.608398,-15.551758zM50.47583,-6.722412L56.115479,-6.722412L56.115479,-4.882813L50.47583,-4.882813L50.47583,1.226807L57.122559,1.226807L57.122559,3.066406L45.158447,3.066406L45.158447,-15.262451L50.47583,-15.262451L50.47583,-6.722412zM64.22583,-6.722412L69.865479,-6.722412L69.865479,-4.882813L64.22583,-4.882813L64.22583,1.226807L70.872559,1.226807L70.872559,3.066406L58.908447,3.066406L58.908447,-15.262451L64.22583,-15.262451L64.22583,-6.722412zM-50.435547,-4.936523L-50.435547,1.374512C-49.955551,1.386702,-49.475319,1.382547,-48.995605,1.362061C-48.381458,1.346116,-47.787449,1.139353,-47.296143,0.770508C-46.851032,0.389981,-46.550827,-0.13255,-46.446289,-0.70874C-46.246563,-1.620284,-46.312122,-2.569634,-46.635254,-3.445068C-46.939247,-4.157316,-47.575302,-4.674034,-48.334717,-4.825684C-48.671494,-4.902185,-49.015984,-4.939379,-49.361328,-4.936523L-50.435547,-4.936523z"/>
    <path transform="matrix(1,0,0,-1,0,0)" style="stroke:none;fill:#0000ff;fill-rule:evenodd" d="M-276.506897,291.475372C-276.480347,291.476013,-276.45752,291.489197,-276.43634,291.504669C-276.419525,291.52478,-276.410553,291.549652,-276.407043,291.57547L-276.407043,305.57547C-276.405701,305.615692,-276.43158,305.650543,-276.468079,305.667511L-276.506897,305.675323L-280.407043,305.675323L-280.407043,313.475372L-280.44928,313.489532L-280.444397,313.51297L-280.420959,313.517609L-280.407043,313.475372L-276.506897,313.475372C-276.453369,313.47998,-276.414612,313.522888,-276.407043,313.57547L-276.407043,321.57547C-276.405701,321.615692,-276.43158,321.650543,-276.468079,321.667511L-276.506897,321.675323L-280.407043,321.675323L-280.407043,329.475372L-280.44928,329.489532L-280.444397,329.51297L-280.420959,329.517609L-280.407043,329.475372L-276.506897,329.475372C-276.453369,329.47998,-276.414612,329.522888,-276.407043,329.57547L-276.407043,337.57547C-276.41095,337.601563,-276.41748,337.627197,-276.43634,337.646027L-276.468079,337.667511L-276.506897,337.675323L-280.407043,337.675323L-280.407043,345.475372L-280.44928,345.489532L-280.444397,345.51297L-280.420959,345.517609L-280.407043,345.475372L-276.506897,345.475372C-276.481659,345.480469,-276.45752,345.489807,-276.43634,345.504669C-276.418304,345.524963,-276.413971,345.550079,-276.407043,345.57547L-276.407043,353.57547C-276.41095,353.601563,-276.41748,353.627197,-276.43634,353.646027L-276.468079,353.667511L-276.506897,353.675323L-280.407043,353.675323L-280.407043,361.475372L-280.44928,361.489532L-280.444397,361.51297L-280.420959,361.517609L-280.407043,361.475372L-276.506897,361.475372C-276.481659,361.480469,-276.45752,361.489807,-276.43634,361.504669C-276.418304,361.524963,-276.413971,361.550079,-276.407043,361.57547L-276.407043,369.57547C-276.41095,369.601563,-276.41748,369.627197,-276.43634,369.646027L-276.468079,369.667511L-276.506897,369.675323L-280.407043,369.675323L-280.407043,377.475372L-280.44928,377.489532L-280.444397,377.51297L-280.420959,377.517609L-280.407043,377.475372L-276.506897,377.475372C-276.481659,377.480469,-276.45752,377.489807,-276.43634,377.504669C-276.418304,377.524963,-276.413971,377.550079,-276.407043,377.57547L-276.407043,391.57547L-276.414856,391.614288L-276.43634,391.646027L-276.468079,391.667511L-276.506897,391.675323L-426.506897,391.675323L-426.515198,391.03006C-426.861786,377.476868,-437.94928,366.671997,-451.506897,366.675323C-465.064575,366.671875,-476.152283,377.476776,-476.49884,391.03006L-476.506897,391.675323L-626.506897,391.675323C-626.533325,391.674866,-626.557739,391.663208,-626.577698,391.646027C-626.595825,391.626953,-626.605652,391.601746,-626.606995,391.57547L-626.606995,377.57547L-626.599182,377.536652C-626.583069,377.499817,-626.547119,377.475464,-626.506897,377.475372L-622.606995,377.475372L-622.606995,369.675323L-622.564758,369.661163L-622.569397,369.637726L-622.592834,369.633087L-622.606995,369.675323L-626.506897,369.675323C-626.562012,369.67511,-626.60675,369.630615,-626.606995,369.57547L-626.606995,361.57547L-626.599182,361.536652C-626.583069,361.499817,-626.547119,361.475464,-626.506897,361.475372L-622.606995,361.475372L-622.606995,353.675323L-622.564758,353.661163L-622.569397,353.637726L-622.592834,353.633087L-622.606995,353.675323L-626.506897,353.675323C-626.562012,353.67511,-626.60675,353.630615,-626.606995,353.57547L-626.606995,345.57547L-626.599182,345.536652C-626.583069,345.499817,-626.547119,345.475464,-626.506897,345.475372L-622.606995,345.475372L-622.606995,337.675323L-622.564758,337.661163L-622.569397,337.637726L-622.592834,337.633087L-622.606995,337.675323L-626.506897,337.675323C-626.562012,337.675079,-626.60675,337.630615,-626.606995,337.57547L-626.606995,329.57547L-626.599182,329.536652C-626.583069,329.499817,-626.547119,329.475464,-626.506897,329.475372L-622.606995,329.475372L-622.606995,321.675323L-622.564758,321.661163L-622.569397,321.637726L-622.592834,321.633087L-622.606995,321.675323L-626.506897,321.675323C-626.562012,321.675079,-626.60675,321.630615,-626.606995,321.57547L-626.606995,313.57547C-626.606201,313.5354,-626.582703,313.499207,-626.545959,313.483185L-626.506897,313.475372L-622.606995,313.475372L-622.606995,305.675323L-622.564758,305.661163L-622.569397,305.637726L-622.592834,305.633087L-622.606995,305.675323L-626.506897,305.675323L-626.545959,305.667511C-626.569641,305.656952,-626.58844,305.637878,-626.599182,305.614288L-626.606995,305.57547L-626.606995,291.57547C-626.606201,291.5354,-626.582703,291.499176,-626.545959,291.483185L-626.506897,291.475372L-276.506897,291.475372zM-280.444397,321.637726L-280.44928,321.661163L-280.407043,321.675323L-280.420959,321.633087L-280.444397,321.637726zM-455.592834,299.517609L-455.569397,299.51297L-455.564758,299.489532L-455.606995,299.475372L-455.592834,299.517609zM-559.444397,295.637726L-559.44928,295.661163L-559.407043,295.675323L-559.420959,295.633087L-559.444397,295.637726zM-407.592834,299.517609L-407.569397,299.51297L-407.564758,299.489532L-407.606995,299.475372L-407.592834,299.517609zM-391.592834,299.517609L-391.569397,299.51297L-391.564758,299.489532L-391.606995,299.475372L-391.592834,299.517609zM-487.592834,299.517609L-487.569397,299.51297L-487.564758,299.489532L-487.606995,299.475372L-487.592834,299.517609zM-423.592834,299.517609L-423.569397,299.51297L-423.564758,299.489532L-423.606995,299.475372L-423.592834,299.517609zM-375.592834,299.517609L-375.569397,299.51297L-375.564758,299.489532L-375.606995,299.475372L-375.592834,299.517609zM-503.592834,299.517609L-503.569397,299.51297L-503.564758,299.489532L-503.606995,299.475372L-503.592834,299.517609zM-343.592834,299.517609L-343.569397,299.51297L-343.564758,299.489532L-343.606995,299.475372L-343.592834,299.517609zM-280.444397,305.637726L-280.44928,305.661163L-280.407043,305.675323L-280.420959,305.633087L-280.444397,305.637726zM-295.592834,299.517609L-295.569397,299.51297L-295.564758,299.489532L-295.606995,299.475372L-295.592834,299.517609zM-359.592834,299.517609L-359.569397,299.51297L-359.564758,299.489532L-359.606995,299.475372L-359.592834,299.517609zM-622.592834,329.517609L-622.569397,329.51297L-622.564758,329.489532L-622.606995,329.475372L-622.592834,329.517609zM-479.444397,295.637726L-479.44928,295.661163L-479.407043,295.675323L-479.420959,295.633087L-479.444397,295.637726zM-303.444397,295.637726L-303.44928,295.661163L-303.407043,295.675323L-303.420959,295.633087L-303.444397,295.637726zM-511.444397,295.637726L-511.44928,295.661163L-511.407043,295.675323L-511.420959,295.633087L-511.444397,295.637726zM-591.444397,295.637726L-591.44928,295.661163L-591.407043,295.675323L-591.420959,295.633087L-591.444397,295.637726zM-463.444397,295.637726L-463.44928,295.661163L-463.407043,295.675323L-463.420959,295.633087L-463.444397,295.637726zM-527.444397,295.637726L-527.44928,295.661163L-527.407043,295.675323L-527.420959,295.633087L-527.444397,295.637726zM-622.592834,361.517609L-622.569397,361.51297L-622.564758,361.489532L-622.606995,361.475372L-622.592834,361.517609zM-575.444397,295.637726L-575.44928,295.661163L-575.407043,295.675323L-575.420959,295.633087L-575.444397,295.637726zM-431.444397,295.637726L-431.44928,295.661163L-431.407043,295.675323L-431.420959,295.633087L-431.444397,295.637726zM-327.592834,299.517609L-327.569397,299.51297L-327.564758,299.489532L-327.606995,299.475372L-327.592834,299.517609zM-280.444397,337.637726L-280.44928,337.661163L-280.407043,337.675323L-280.420959,337.633087L-280.444397,337.637726zM-280.444397,353.637726L-280.44928,353.661163L-280.407043,353.675323L-280.420959,353.633087L-280.444397,353.637726zM-383.444397,295.637726L-383.44928,295.661163L-383.407043,295.675323L-383.420959,295.633087L-383.444397,295.637726zM-280.444397,369.637726L-280.44928,369.661163L-280.407043,369.675323L-280.420959,369.633087L-280.444397,369.637726zM-351.444397,295.637726L-351.44928,295.661163L-351.407043,295.675323L-351.420959,295.633087L-351.444397,295.637726zM-335.444397,295.637726L-335.44928,295.661163L-335.407043,295.675323L-335.420959,295.633087L-335.444397,295.637726zM-319.444397,295.637726L-319.44928,295.661163L-319.407043,295.675323L-319.420959,295.633087L-319.444397,295.637726zM-311.592834,299.517609L-311.569397,299.51297L-311.564758,299.489532L-311.606995,299.475372L-311.592834,299.517609zM-519.592834,299.517609L-519.569397,299.51297L-519.564758,299.489532L-519.606995,299.475372L-519.592834,299.517609zM-607.444397,295.637726L-607.44928,295.661163L-607.407043,295.675323L-607.420959,295.633087L-607.444397,295.637726zM-415.444397,295.637726L-415.44928,295.661163L-415.407043,295.675323L-415.420959,295.633087L-415.444397,295.637726zM-543.444397,295.637726L-543.44928,295.661163L-543.407043,295.675323L-543.420959,295.633087L-543.444397,295.637726zM-622.592834,377.517609L-622.569397,377.51297L-622.564758,377.489532L-622.606995,377.475372L-622.592834,377.517609zM-622.592834,345.517609L-622.569397,345.51297L-622.564758,345.489532L-622.606995,345.475372L-622.592834,345.517609zM-495.444397,295.637726L-495.44928,295.661163L-495.407043,295.675323L-495.420959,295.633087L-495.444397,295.637726zM-447.444397,295.637726L-447.44928,295.661163L-447.407043,295.675323L-447.420959,295.633087L-447.444397,295.637726zM-567.592834,299.517609L-567.569397,299.51297L-567.564758,299.489532L-567.606995,299.475372L-567.592834,299.517609zM-599.592834,299.517609L-599.569397,299.51297L-599.564758,299.489532L-599.606995,299.475372L-599.592834,299.517609zM-622.592834,313.517609L-622.569397,313.51297L-622.564758,313.489532L-622.606995,313.475372L-622.592834,313.517609zM-399.444397,295.637726L-399.44928,295.661163L-399.407043,295.675323L-399.420959,295.633087L-399.444397,295.637726zM-367.444397,295.637726L-367.44928,295.661163L-367.407043,295.675323L-367.420959,295.633087L-367.444397,295.637726zM-535.592834,299.517609L-535.569397,299.51297L-535.564758,299.489532L-535.606995,299.475372L-535.592834,299.517609zM-439.592834,299.517609L-439.569397,299.51297L-439.564758,299.489532L-439.606995,299.475372L-439.592834,299.517609zM-551.592834,299.517609L-551.569397,299.51297L-551.564758,299.489532L-551.606995,299.475372L-551.592834,299.517609zM-471.592834,299.517609L-471.569397,299.51297L-471.564758,299.489532L-471.606995,299.475372L-471.592834,299.517609zM-583.592834,299.517609L-583.569397,299.51297L-583.564758,299.489532L-583.606995,299.475372L-583.592834,299.517609zM-567.606995,295.675323L-575.407043,295.675323L-575.407043,299.475372L-575.44928,299.489532L-575.444397,299.51297L-575.420959,299.517609L-575.407043,299.475372L-567.606995,299.475372L-567.606995,295.675323L-567.564758,295.661163L-567.569397,295.637726L-567.592834,295.633087L-567.606995,295.675323zM-535.606995,295.675323L-543.407043,295.675323L-543.407043,299.475372L-543.44928,299.489532L-543.444397,299.51297L-543.420959,299.517609L-543.407043,299.475372L-535.606995,299.475372L-535.606995,295.675323L-535.564758,295.661163L-535.569397,295.637726L-535.592834,295.633087L-535.606995,295.675323zM-551.606995,295.675323L-559.407043,295.675323L-559.407043,299.475372L-559.44928,299.489532L-559.444397,299.51297L-559.420959,299.517609L-559.407043,299.475372L-551.606995,299.475372L-551.606995,295.675323L-551.564758,295.661163L-551.569397,295.637726L-551.592834,295.633087L-551.606995,295.675323zM-407.606995,295.675323L-415.407043,295.675323L-415.407043,299.475372L-415.44928,299.489532L-415.444397,299.51297L-415.420959,299.517609L-415.407043,299.475372L-407.606995,299.475372L-407.606995,295.675323L-407.564758,295.661163L-407.569397,295.637726L-407.592834,295.633087L-407.606995,295.675323zM-599.606995,295.675323L-607.407043,295.675323L-607.407043,299.475372L-607.44928,299.489532L-607.444397,299.51297L-607.420959,299.517609L-607.407043,299.475372L-599.606995,299.475372L-599.606995,295.675323L-599.564758,295.661163L-599.569397,295.637726L-599.592834,295.633087L-599.606995,295.675323zM-487.606995,295.675323L-495.407043,295.675323L-495.407043,299.475372L-495.44928,299.489532L-495.444397,299.51297L-495.420959,299.517609L-495.407043,299.475372L-487.606995,299.475372L-487.606995,295.675323L-487.564758,295.661163L-487.569397,295.637726L-487.592834,295.633087L-487.606995,295.675323zM-391.606995,295.675323L-399.407043,295.675323L-399.407043,299.475372L-399.44928,299.489532L-399.444397,299.51297L-399.420959,299.517609L-399.407043,299.475372L-391.606995,299.475372L-391.606995,295.675323L-391.564758,295.661163L-391.569397,295.637726L-391.592834,295.633087L-391.606995,295.675323zM-439.606995,295.675323L-447.407043,295.675323L-447.407043,299.475372L-447.44928,299.489532L-447.444397,299.51297L-447.420959,299.517609L-447.407043,299.475372L-439.606995,299.475372L-439.606995,295.675323L-439.564758,295.661163L-439.569397,295.637726L-439.592834,295.633087L-439.606995,295.675323zM-423.606995,295.675323L-431.407043,295.675323L-431.407043,299.475372L-431.44928,299.489532L-431.444397,299.51297L-431.420959,299.517609L-431.407043,299.475372L-423.606995,299.475372L-423.606995,295.675323L-423.564758,295.661163L-423.569397,295.637726L-423.592834,295.633087L-423.606995,295.675323zM-359.606995,295.675323L-367.407043,295.675323L-367.407043,299.475372L-367.44928,299.489532L-367.444397,299.51297L-367.420959,299.517609L-367.407043,299.475372L-359.606995,299.475372L-359.606995,295.675323L-359.564758,295.661163L-359.569397,295.637726L-359.592834,295.633087L-359.606995,295.675323zM-295.606995,295.675323L-303.407043,295.675323L-303.407043,299.475372L-303.44928,299.489532L-303.444397,299.51297L-303.420959,299.517609L-303.407043,299.475372L-295.606995,299.475372L-295.606995,295.675323L-295.564758,295.661163L-295.569397,295.637726L-295.592834,295.633087L-295.606995,295.675323zM-519.606995,295.675323L-527.407043,295.675323L-527.407043,299.475372L-527.44928,299.489532L-527.444397,299.51297L-527.420959,299.517609L-527.407043,299.475372L-519.606995,299.475372L-519.606995,295.675323L-519.564758,295.661163L-519.569397,295.637726L-519.592834,295.633087L-519.606995,295.675323zM-583.606995,295.675323L-591.407043,295.675323L-591.407043,299.475372L-591.44928,299.489532L-591.444397,299.51297L-591.420959,299.517609L-591.407043,299.475372L-583.606995,299.475372L-583.606995,295.675323L-583.564758,295.661163L-583.569397,295.637726L-583.592834,295.633087L-583.606995,295.675323zM-503.606995,295.675323L-511.407043,295.675323L-511.407043,299.475372L-511.44928,299.489532L-511.444397,299.51297L-511.420959,299.517609L-511.407043,299.475372L-503.606995,299.475372L-503.606995,295.675323L-503.564758,295.661163L-503.569397,295.637726L-503.592834,295.633087L-503.606995,295.675323zM-375.606995,295.675323L-383.407043,295.675323L-383.407043,299.475372L-383.44928,299.489532L-383.444397,299.51297L-383.420959,299.517609L-383.407043,299.475372L-375.606995,299.475372L-375.606995,295.675323L-375.564758,295.661163L-375.569397,295.637726L-375.592834,295.633087L-375.606995,295.675323zM-327.606995,295.675323L-335.407043,295.675323L-335.407043,299.475372L-335.44928,299.489532L-335.444397,299.51297L-335.420959,299.517609L-335.407043,299.475372L-327.606995,299.475372L-327.606995,295.675323L-327.564758,295.661163L-327.569397,295.637726L-327.592834,295.633087L-327.606995,295.675323zM-471.606995,295.675323L-479.407043,295.675323L-479.407043,299.475372L-479.44928,299.489532L-479.444397,299.51297L-479.420959,299.517609L-479.407043,299.475372L-471.606995,299.475372L-471.606995,295.675323L-471.564758,295.661163L-471.569397,295.637726L-471.592834,295.633087L-471.606995,295.675323zM-343.606995,295.675323L-351.407043,295.675323L-351.407043,299.475372L-351.44928,299.489532L-351.444397,299.51297L-351.420959,299.517609L-351.407043,299.475372L-343.606995,299.475372L-343.606995,295.675323L-343.564758,295.661163L-343.569397,295.637726L-343.592834,295.633087L-343.606995,295.675323zM-455.606995,295.675323L-463.407043,295.675323L-463.407043,299.475372L-463.44928,299.489532L-463.444397,299.51297L-463.420959,299.517609L-463.407043,299.475372L-455.606995,299.475372L-455.606995,295.675323L-455.564758,295.661163L-455.569397,295.637726L-455.592834,295.633087L-455.606995,295.675323zM-311.606995,295.675323L-319.407043,295.675323L-319.407043,299.475372L-319.44928,299.489532L-319.444397,299.51297L-319.420959,299.517609L-319.407043,299.475372L-311.606995,299.475372L-311.606995,295.675323L-311.564758,295.661163L-311.569397,295.637726L-311.592834,295.633087L-311.606995,295.675323z"/>
    <path transform="matrix(1,0,0,-1,0,0)" style="stroke:none;fill:#0000ff;fill-rule:evenodd" d="M-511.49292,175.100037L-515.392883,175.100037C-515.49292,175.100037,-515.392883,175.000061,-515.392883,175.100037L-515.392883,178.900024C-515.392883,179.000061,-515.49292,178.900024,-515.392883,178.900024L-507.592896,178.900024C-507.49292,178.900024,-507.592896,179.000061,-507.592896,178.900024L-507.592896,175.100037C-507.592896,175.000061,-507.49292,175.100037,-507.592896,175.100037L-511.49292,175.100037z"/>
    <path transform="matrix(1,0,0,-1,0,0)" style="stroke:none;fill:#0000ff;fill-rule:evenodd" d="M-527.49292,175.100037L-531.392883,175.100037C-531.49292,175.100037,-531.392883,175.000061,-531.392883,175.100037L-531.392883,178.900024C-531.392883,179.000061,-531.49292,178.900024,-531.392883,178.900024L-523.592896,178.900024C-523.49292,178.900024,-523.592896,179.000061,-523.592896,178.900024L-523.592896,175.100037C-523.592896,175.000061,-523.49292,175.100037,-523.592896,175.100037L-527.49292,175.100037z"/>
    <path transform="matrix(1,0,0,-1,0,0)" style="stroke:none;fill:#0000ff;fill-rule:evenodd" d="M-543.49292,175.100037L-547.392883,175.100037C-547.49292,175.100037,-547.392883,175.000061,-547.392883,175.100037L-547.392883,178.900024C-547.392883,179.000061,-547.49292,178.900024,-547.392883,178.900024L-539.592896,178.900024C-539.49292,178.900024,-539.592896,179.000061,-539.592896,178.900024L-539.592896,175.100037C-539.592896,175.000061,-539.49292,175.100037,-539.592896,175.100037L-543.49292,175.100037z"/>
    <path transform="matrix(1,0,0,-1,0,0)" style="stroke:none;fill:#0000ff;fill-rule:evenodd" d="M-559.49292,175.100037L-563.392883,175.100037C-563.49292,175.100037,-563.392883,175.000061,-563.392883,175.100037L-563.392883,178.900024C-563.392883,179.000061,-563.49292,178.900024,-563.392883,178.900024L-555.592896,178.900024C-555.49292,178.900024,-555.592896,179.000061,-555.592896,178.900024L-555.592896,175.100037C-555.592896,175.000061,-555.49292,175.100037,-555.592896,175.100037L-559.49292,175.100037z"/>
    <path transform="matrix(1,0,0,-1,0,0)" style="stroke:none;fill:#0000ff;fill-rule:evenodd" d="M-575.49292,175.100037L-579.392883,175.100037C-579.49292,175.100037,-579.392883,175.000061,-579.392883,175.100037L-579.392883,178.900024C-579.392883,179.000061,-579.49292,178.900024,-579.392883,178.900024L-571.592896,178.900024C-571.49292,178.900024,-571.592896,179.000061,-571.592896,178.900024L-571.592896,175.100037C-571.592896,175.000061,-571.49292,175.100037,-571.592896,175.100037L-575.49292,175.100037z"/>
    <path transform="matrix(1,0,0,-1,0,0)" style="stroke:none;fill:#0000ff;fill-rule:evenodd" d="M-591.49292,175.100037L-595.392883,175.100037C-595.49292,175.100037,-595.392883,175.000061,-595.392883,175.100037L-595.392883,178.900024C-595.392883,179.000061,-595.49292,178.900024,-595.392883,178.900024L-587.592896,178.900024C-587.49292,178.900024,-587.592896,179.000061,-587.592896,178.900024L-587.592896,175.100037C-587.592896,175.000061,-587.49292,175.100037,-587.592896,175.100037L-591.49292,175.100037z"/>
    <path transform="matrix(1,0,0,-1,0,0)" style="stroke:none;fill:#0000ff;fill-rule:evenodd" d="M-607.49292,175.100037L-611.392883,175.100037C-611.49292,175.100037,-611.392883,175.000061,-611.392883,175.100037L-611.392883,178.900024C-611.392883,179.000061,-611.49292,178.900024,-611.392883,178.900024L-603.592896,178.900024C-603.49292,178.900024,-603.592896,179.000061,-603.592896,178.900024L-603.592896,175.100037C-603.592896,175.000061,-603.49292,175.100037,-603.592896,175.100037L-607.49292,175.100037z"/>
    <path transform="matrix(1,0,0,-1,0,0)" style="stroke:none;fill:#0000ff;fill-rule:evenodd" d="M-623.49292,175.100037L-627.392883,175.100037C-627.49292,175.100037,-627.392883,175.000061,-627.392883,175.100037L-627.392883,178.900024C-627.392883,179.000061,-627.49292,178.900024,-627.392883,178.900024L-619.592896,178.900024C-619.49292,178.900024,-619.592896,179.000061,-619.592896,178.900024L-619.592896,175.100037C-619.592896,175.000061,-619.49292,175.100037,-619.592896,175.100037L-623.49292,175.100037z"/>
    <path transform="matrix(1,0,0,-1,0,0)" style="stroke:none;fill:#0000ff;fill-rule:evenodd" d="M-639.49292,175.100037L-643.392883,175.100037C-643.49292,175.100037,-643.392883,175.000061,-643.392883,175.100037L-643.392883,178.900024C-643.392883,179.000061,-643.49292,178.900024,-643.392883,178.900024L-635.592896,178.900024C-635.49292,178.900024,-635.592896,179.000061,-635.592896,178.900024L-635.592896,175.100037C-635.592896,175.000061,-635.49292,175.100037,-635.592896,175.100037L-639.49292,175.100037z"/>
    <path transform="matrix(1,0,0,-1,0,0)" style="stroke:none;fill:#0000ff;fill-rule:evenodd" d="M-655.49292,175.100037L-659.392883,175.100037C-659.49292,175.100037,-659.392883,175.000061,-659.392883,175.100037L-659.392883,178.900024C-659.392883,179.000061,-659.49292,178.900024,-659.392883,178.900024L-651.592896,178.900024C-651.49292,178.900024,-651.592896,179.000061,-651.592896,178.900024L-651.592896,175.100037C-651.592896,175.000061,-651.49292,175.100037,-651.592896,175.100037L-655.49292,175.100037z"/>
    <path transform="matrix(1,0,0,-1,0,0)" style="stroke:none;fill:#0000ff;fill-rule:evenodd" d="M-671.49292,175.100037L-675.392883,175.100037C-675.49292,175.100037,-675.392883,175.000061,-675.392883,175.100037L-675.392883,178.900024C-675.392883,179.000061,-675.49292,178.900024,-675.392883,178.900024L-667.592896,178.900024C-667.49292,178.900024,-667.592896,179.000061,-667.592896,178.900024L-667.592896,175.100037C-667.592896,175.000061,-667.49292,175.100037,-667.592896,175.100037L-671.49292,175.100037z"/>
    <path transform="matrix(1,0,0,-1,0,0)" style="stroke:none;fill:#0000ff;fill-rule:evenodd" d="M-687.49292,175.100037L-691.392883,175.100037C-691.49292,175.100037,-691.392883,175.000061,-691.392883,175.100037L-691.392883,178.900024C-691.392883,179.000061,-691.49292,178.900024,-691.392883,178.900024L-683.592896,178.900024C-683.49292,178.900024,-683.592896,179.000061,-683.592896,178.900024L-683.592896,175.100037C-683.592896,175.000061,-683.49292,175.100037,-683.592896,175.100037L-687.49292,175.100037z"/>
    <path transform="matrix(1,0,0,-1,0,0)" style="stroke:none;fill:#0000ff;fill-rule:evenodd" d="M-703.49292,175.100037L-707.392883,175.100037C-707.49292,175.100037,-707.392883,175.000061,-707.392883,175.100037L-707.392883,178.900024C-707.392883,179.000061,-707.49292,178.900024,-707.392883,178.900024L-699.592896,178.900024C-699.49292,178.900024,-699.592896,179.000061,-699.592896,178.900024L-699.592896,175.100037C-699.592896,175.000061,-699.49292,175.100037,-699.592896,175.100037L-703.49292,175.100037z"/>
    <path transform="matrix(1,0,0,-1,0,0)" style="stroke:none;fill:#0000ff;fill-rule:evenodd" d="M-719.49292,175.100037L-723.392883,175.100037C-723.49292,175.100037,-723.392883,175.000061,-723.392883,175.100037L-723.392883,178.900024C-723.392883,179.000061,-723.49292,178.900024,-723.392883,178.900024L-715.592896,178.900024C-715.49292,178.900024,-715.592896,179.000061,-715.592896,178.900024L-715.592896,175.100037C-715.592896,175.000061,-715.49292,175.100037,-715.592896,175.100037L-719.49292,175.100037z"/>
    <path transform="matrix(1,0,0,-1,0,0)" style="stroke:none;fill:#0000ff;fill-rule:evenodd" d="M-735.49292,175.100037L-739.392883,175.100037C-739.49292,175.100037,-739.392883,175.000061,-739.392883,175.100037L-739.392883,178.900024C-739.392883,179.000061,-739.49292,178.900024,-739.392883,178.900024L-731.592896,178.900024C-731.49292,178.900024,-731.592896,179.000061,-731.592896,178.900024L-731.592896,175.100037C-731.592896,175.000061,-731.49292,175.100037,-731.592896,175.100037L-735.49292,175.100037z"/>
    <path transform="matrix(1,0,0,-1,0,0)" style="stroke:none;fill:#0000ff;fill-rule:evenodd" d="M-751.49292,175.100037L-755.392883,175.100037C-755.49292,175.100037,-755.392883,175.000061,-755.392883,175.100037L-755.392883,178.900024C-755.392883,179.000061,-755.49292,178.900024,-755.392883,178.900024L-747.592896,178.900024C-747.49292,178.900024,-747.592896,179.000061,-747.592896,178.900024L-747.592896,175.100037C-747.592896,175.000061,-747.49292,175.100037,-747.592896,175.100037L-751.49292,175.100037z"/>
    <path transform="matrix(1,0,0,-1,0,0)" style="stroke:none;fill:#0000ff;fill-rule:evenodd" d="M-767.49292,175.100037L-771.392883,175.100037C-771.49292,175.100037,-771.392883,175.000061,-771.392883,175.100037L-771.392883,178.900024C-771.392883,179.000061,-771.49292,178.900024,-771.392883,178.900024L-763.592896,178.900024C-763.49292,178.900024,-763.592896,179.000061,-763.592896,178.900024L-763.592896,175.100037C-763.592896,175.000061,-763.49292,175.100037,-763.592896,175.100037L-767.49292,175.100037z"/>
    <path transform="matrix(1,0,0,-1,0,0)" style="stroke:none;fill:#0000ff;fill-rule:evenodd" d="M-783.49292,175.100037L-787.392883,175.100037C-787.49292,175.100037,-787.392883,175.000061,-787.392883,175.100037L-787.392883,178.900024C-787.392883,179.000061,-787.49292,178.900024,-787.392883,178.900024L-779.592896,178.900024C-779.49292,178.900024,-779.592896,179.000061,-779.592896,178.900024L-779.592896,175.100037C-779.592896,175.000061,-779.49292,175.100037,-779.592896,175.100037L-783.49292,175.100037z"/>
    <path transform="matrix(1,0,0,-1,0,0)" style="stroke:none;fill:#0000ff;fill-rule:evenodd" d="M-799.49292,175.100037L-803.392883,175.100037C-803.49292,175.100037,-803.392883,175.000061,-803.392883,175.100037L-803.392883,178.900024C-803.392883,179.000061,-803.49292,178.900024,-803.392883,178.900024L-795.592896,178.900024C-795.49292,178.900024,-795.592896,179.000061,-795.592896,178.900024L-795.592896,175.100037C-795.592896,175.000061,-795.49292,175.100037,-795.592896,175.100037L-799.49292,175.100037z"/>
    <path transform="matrix(1,0,0,-1,0,0)" style="stroke:none;fill:#0000ff;fill-rule:evenodd" d="M-815.49292,175.100037L-819.392883,175.100037C-819.49292,175.100037,-819.392883,175.000061,-819.392883,175.100037L-819.392883,178.900024C-819.392883,179.000061,-819.49292,178.900024,-819.392883,178.900024L-811.592896,178.900024C-811.49292,178.900024,-811.592896,179.000061,-811.592896,178.900024L-811.592896,175.100037C-811.592896,175.000061,-811.49292,175.100037,-811.592896,175.100037L-815.49292,175.100037z"/>
    <path transform="matrix(1,0,0,-1,0,0)" style="stroke:none;fill:#0000ff;fill-rule:evenodd" d="M-831.49292,175.100037L-835.392883,175.100037C-835.49292,175.100037,-835.392883,175.000061,-835.392883,175.100037L-835.392883,178.900024C-835.392883,179.000061,-835.49292,178.900024,-835.392883,178.900024L-827.592896,178.900024C-827.49292,178.900024,-827.592896,179.000061,-827.592896,178.900024L-827.592896,175.100037C-827.592896,175.000061,-827.49292,175.100037,-827.592896,175.100037L-831.49292,175.100037z"/>
    <path transform="matrix(1,0,0,-1,0,0)" style="stroke:none;fill:#0000ff;fill-rule:evenodd" d="M-847.49292,175.100037L-851.392883,175.100037C-851.49292,175.100037,-851.392883,175.000061,-851.392883,175.100037L-851.392883,178.900024C-851.392883,179.000061,-851.49292,178.900024,-851.392883,178.900024L-843.592896,178.900024C-843.49292,178.900024,-843.592896,179.000061,-843.592896,178.900024L-843.592896,175.100037C-843.592896,175.000061,-843.49292,175.100037,-843.592896,175.100037L-847.49292,175.100037z"/>
    <path transform="matrix(1,0,0,-1,0,0)" style="stroke:none;fill:#0000ff;fill-rule:evenodd" d="M-863.49292,175.100037L-867.392883,175.100037C-867.49292,175.100037,-867.392883,175.000061,-867.392883,175.100037L-867.392883,178.900024C-867.392883,179.000061,-867.49292,178.900024,-867.392883,178.900024L-859.592896,178.900024C-859.49292,178.900024,-859.592896,179.000061,-859.592896,178.900024L-859.592896,175.100037C-859.592896,175.000061,-859.49292,175.100037,-859.592896,175.100037L-863.49292,175.100037z"/>
    <path transform="matrix(1,0,0,-1,0,0)" style="stroke:none;fill:#0000ff;fill-rule:evenodd" d="M-879.49292,175.100037L-883.392883,175.100037C-883.49292,175.100037,-883.392883,175.000061,-883.392883,175.100037L-883.392883,178.900024C-883.392883,179.000061,-883.49292,178.900024,-883.392883,178.900024L-875.592896,178.900024C-875.49292,178.900024,-875.592896,179.000061,-875.592896,178.900024L-875.592896,175.100037C-875.592896,175.000061,-875.49292,175.100037,-875.592896,175.100037L-879.49292,175.100037z"/>
    <path transform="matrix(1,0,0,-1,0,0)" style="stroke:none;fill:#0000ff;fill-rule:evenodd" d="M-895.49292,175.100037L-899.392883,175.100037C-899.49292,175.100037,-899.392883,175.000061,-899.392883,175.100037L-899.392883,178.900024C-899.392883,179.000061,-899.49292,178.900024,-899.392883,178.900024L-891.592896,178.900024C-891.49292,178.900024,-891.592896,179.000061,-891.592896,178.900024L-891.592896,175.100037C-891.592896,175.000061,-891.49292,175.100037,-891.592896,175.100037L-895.49292,175.100037z"/>
    <path transform="matrix(1,0,0,-1,0,0)" style="stroke:none;fill:#0000ff;fill-rule:evenodd" d="M-911.49292,175.100037L-915.392883,175.100037C-915.49292,175.100037,-915.392883,175.000061,-915.392883,175.100037L-915.392883,178.900024C-915.392883,179.000061,-915.49292,178.900024,-915.392883,178.900024L-907.592896,178.900024C-907.49292,178.900024,-907.592896,179.000061,-907.592896,178.900024L-907.592896,175.100037C-907.592896,175.000061,-907.49292,175.100037,-907.592896,175.100037L-911.49292,175.100037z"/>
    <path transform="matrix(1,0,0,-1,0,0)" style="stroke:none;fill:#0000ff;fill-rule:evenodd" d="M-927.49292,175.100037L-931.392883,175.100037C-931.49292,175.100037,-931.392883,175.000061,-931.392883,175.100037L-931.392883,178.900024C-931.392883,179.000061,-931.49292,178.900024,-931.392883,178.900024L-923.592896,178.900024C-923.49292,178.900024,-923.592896,179.000061,-923.592896,178.900024L-923.592896,175.100037C-923.592896,175.000061,-923.49292,175.100037,-923.592896,175.100037L-927.49292,175.100037z"/>
    <path transform="matrix(1,0,0,-1,0,0)" style="stroke:none;fill:#0000ff;fill-rule:evenodd" d="M-943.49292,175.100037L-947.392883,175.100037C-947.49292,175.100037,-947.392883,175.000061,-947.392883,175.100037L-947.392883,178.900024C-947.392883,179.000061,-947.49292,178.900024,-947.392883,178.900024L-939.592896,178.900024C-939.49292,178.900024,-939.592896,179.000061,-939.592896,178.900024L-939.592896,175.100037C-939.592896,175.000061,-939.49292,175.100037,-939.592896,175.100037L-943.49292,175.100037z"/>
    <path transform="matrix(1,0,0,-1,0,0)" style="stroke:none;fill:#0000ff;fill-rule:evenodd" d="M-959.49292,175.100037L-963.392883,175.100037C-963.49292,175.100037,-963.392883,175.000061,-963.392883,175.100037L-963.392883,178.900024C-963.392883,179.000061,-963.49292,178.900024,-963.392883,178.900024L-955.592896,178.900024C-955.49292,178.900024,-955.592896,179.000061,-955.592896,178.900024L-955.592896,175.100037C-955.592896,175.000061,-955.49292,175.100037,-955.592896,175.100037L-959.49292,175.100037z"/>
    <path transform="matrix(1,0,0,-1,0,0)" style="stroke:none;fill:#0000ff;fill-rule:evenodd" d="M-975.49292,175.100037L-979.392883,175.100037C-979.49292,175.100037,-979.392883,175.000061,-979.392883,175.100037L-979.392883,178.900024C-979.392883,179.000061,-979.49292,178.900024,-979.392883,178.900024L-971.592896,178.900024C-971.49292,178.900024,-971.592896,179.000061,-971.592896,178.900024L-971.592896,175.100037C-971.592896,175.000061,-971.49292,175.100037,-971.592896,175.100037L-975.49292,175.100037z"/>
    <path transform="matrix(1,0,0,-1,0,0)" style="stroke:none;fill:#0000ff;fill-rule:evenodd" d="M-511.49292,56.099976L-515.392883,56.099976C-515.49292,56.099976,-515.392883,56,-515.392883,56.099976L-515.392883,59.900024C-515.392883,60,-515.49292,59.900024,-515.392883,59.900024L-507.592896,59.900024C-507.49292,59.900024,-507.592896,60,-507.592896,59.900024L-507.592896,56.099976C-507.592896,56,-507.49292,56.099976,-507.592896,56.099976L-511.49292,56.099976z"/>
    <path transform="matrix(1,0,0,-1,0,0)" style="stroke:none;fill:#0000ff;fill-rule:evenodd" d="M-527.49292,56.099976L-531.392883,56.099976C-531.49292,56.099976,-531.392883,56,-531.392883,56.099976L-531.392883,59.900024C-531.392883,60,-531.49292,59.900024,-531.392883,59.900024L-523.592896,59.900024C-523.49292,59.900024,-523.592896,60,-523.592896,59.900024L-523.592896,56.099976C-523.592896,56,-523.49292,56.099976,-523.592896,56.099976L-527.49292,56.099976z"/>
    <path transform="matrix(1,0,0,-1,0,0)" style="stroke:none;fill:#0000ff;fill-rule:evenodd" d="M-543.49292,56.099976L-547.392883,56.099976C-547.49292,56.099976,-547.392883,56,-547.392883,56.099976L-547.392883,59.900024C-547.392883,60,-547.49292,59.900024,-547.392883,59.900024L-539.592896,59.900024C-539.49292,59.900024,-539.592896,60,-539.592896,59.900024L-539.592896,56.099976C-539.592896,56,-539.49292,56.099976,-539.592896,56.099976L-543.49292,56.099976z"/>
    <path transform="matrix(1,0,0,-1,0,0)" style="stroke:none;fill:#0000ff;fill-rule:evenodd" d="M-559.49292,56.099976L-563.392883,56.099976C-563.49292,56.099976,-563.392883,56,-563.392883,56.099976L-563.392883,59.900024C-563.392883,60,-563.49292,59.900024,-563.392883,59.900024L-555.592896,59.900024C-555.49292,59.900024,-555.592896,60,-555.592896,59.900024L-555.592896,56.099976C-555.592896,56,-555.49292,56.099976,-555.592896,56.099976L-559.49292,56.099976z"/>
    <path transform="matrix(1,0,0,-1,0,0)" style="stroke:none;fill:#0000ff;fill-rule:evenodd" d="M-575.49292,56.099976L-579.392883,56.099976C-579.49292,56.099976,-579.392883,56,-579.392883,56.099976L-579.392883,59.900024C-579.392883,60,-579.49292,59.900024,-579.392883,59.900024L-571.592896,59.900024C-571.49292,59.900024,-571.592896,60,-571.592896,59.900024L-571.592896,56.099976C-571.592896,56,-571.49292,56.099976,-571.592896,56.099976L-575.49292,56.099976z"/>
    <path transform="matrix(1,0,0,-1,0,0)" style="stroke:none;fill:#0000ff;fill-rule:evenodd" d="M-591.49292,56.099976L-595.392883,56.099976C-595.49292,56.099976,-595.392883,56,-595.392883,56.099976L-595.392883,59.900024C-595.392883,60,-595.49292,59.900024,-595.392883,59.900024L-587.592896,59.900024C-587.49292,59.900024,-587.592896,60,-587.592896,59.900024L-587.592896,56.099976C-587.592896,56,-587.49292,56.099976,-587.592896,56.099976L-591.49292,56.099976z"/>
    <path transform="matrix(1,0,0,-1,0,0)" style="stroke:none;fill:#0000ff;fill-rule:evenodd" d="M-607.49292,56.099976L-611.392883,56.099976C-611.49292,56.099976,-611.392883,56,-611.392883,56.099976L-611.392883,59.900024C-611.392883,60,-611.49292,59.900024,-611.392883,59.900024L-603.592896,59.900024C-603.49292,59.900024,-603.592896,60,-603.592896,59.900024L-603.592896,56.099976C-603.592896,56,-603.49292,56.099976,-603.592896,56.099976L-607.49292,56.099976z"/>
    <path transform="matrix(1,0,0,-1,0,0)" style="stroke:none;fill:#0000ff;fill-rule:evenodd" d="M-623.49292,56.099976L-627.392883,56.099976C-627.49292,56.099976,-627.392883,56,-627.392883,56.099976L-627.392883,59.900024C-627.392883,60,-627.49292,59.900024,-627.392883,59.900024L-619.592896,59.900024C-619.49292,59.900024,-619.592896,60,-619.592896,59.900024L-619.592896,56.099976C-619.592896,56,-619.49292,56.099976,-619.592896,56.099976L-623.49292,56.099976z"/>
    <path transform="matrix(1,0,0,-1,0,0)" style="stroke:none;fill:#0000ff;fill-rule:evenodd" d="M-639.49292,56.099976L-643.392883,56.099976C-643.49292,56.099976,-643.392883,56,-643.392883,56.099976L-643.392883,59.900024C-643.392883,60,-643.49292,59.900024,-643.392883,59.900024L-635.592896,59.900024C-635.49292,59.900024,-635.592896,60,-635.592896,59.900024L-635.592896,56.099976C-635.592896,56,-635.49292,56.099976,-635.592896,56.099976L-639.49292,56.099976z"/>
    <path transform="matrix(1,0,0,-1,0,0)" style="stroke:none;fill:#0000ff;fill-rule:evenodd" d="M-655.49292,56.099976L-659.392883,56.099976C-659.49292,56.099976,-659.392883,56,-659.392883,56.099976L-659.392883,59.900024C-659.392883,60,-659.49292,59.900024,-659.392883,59.900024L-651.592896,59.900024C-651.49292,59.900024,-651.592896,60,-651.592896,59.900024L-651.592896,56.099976C-651.592896,56,-651.49292,56.099976,-651.592896,56.099976L-655.49292,56.099976z"/>
    <path transform="matrix(1,0,0,-1,0,0)" style="stroke:none;fill:#0000ff;fill-rule:evenodd" d="M-671.49292,56.099976L-675.392883,56.099976C-675.49292,56.099976,-675.392883,56,-675.392883,56.099976L-675.392883,59.900024C-675.392883,60,-675.49292,59.900024,-675.392883,59.900024L-667.592896,59.900024C-667.49292,59.900024,-667.592896,60,-667.592896,59.900024L-667.592896,56.099976C-667.592896,56,-667.49292,56.099976,-667.592896,56.099976L-671.49292,56.099976z"/>
    <path transform="matrix(1,0,0,-1,0,0)" style="stroke:none;fill:#0000ff;fill-rule:evenodd" d="M-687.49292,56.099976L-691.392883,56.099976C-691.49292,56.099976,-691.392883,56,-691.392883,56.099976L-691.392883,59.900024C-691.392883,60,-691.49292,59.900024,-691.392883,59.900024L-683.592896,59.900024C-683.49292,59.900024,-683.592896,60,-683.592896,59.900024L-683.592896,56.099976C-683.592896,56,-683.49292,56.099976,-683.592896,56.099976L-687.49292,56.099976z"/>
    <path transform="matrix(1,0,0,-1,0,0)" style="stroke:none;fill:#0000ff;fill-rule:evenodd" d="M-703.49292,56.099976L-707.392883,56.099976C-707.49292,56.099976,-707.392883,56,-707.392883,56.099976L-707.392883,59.900024C-707.392883,60,-707.49292,59.900024,-707.392883,59.900024L-699.592896,59.900024C-699.49292,59.900024,-699.592896,60,-699.592896,59.900024L-699.592896,56.099976C-699.592896,56,-699.49292,56.099976,-699.592896,56.099976L-703.49292,56.099976z"/>
    <path transform="matrix(1,0,0,-1,0,0)" style="stroke:none;fill:#0000ff;fill-rule:evenodd" d="M-719.49292,56.099976L-723.392883,56.099976C-723.49292,56.099976,-723.392883,56,-723.392883,56.099976L-723.392883,59.900024C-723.392883,60,-723.49292,59.900024,-723.392883,59.900024L-715.592896,59.900024C-715.49292,59.900024,-715.592896,60,-715.592896,59.900024L-715.592896,56.099976C-715.592896,56,-715.49292,56.099976,-715.592896,56.099976L-719.49292,56.099976z"/>
    <path transform="matrix(1,0,0,-1,0,0)" style="stroke:none;fill:#0000ff;fill-rule:evenodd" d="M-735.49292,56.099976L-739.392883,56.099976C-739.49292,56.099976,-739.392883,56,-739.392883,56.099976L-739.392883,59.900024C-739.392883,60,-739.49292,59.900024,-739.392883,59.900024L-731.592896,59.900024C-731.49292,59.900024,-731.592896,60,-731.592896,59.900024L-731.592896,56.099976C-731.592896,56,-731.49292,56.099976,-731.592896,56.099976L-735.49292,56.099976z"/>
    <path transform="matrix(1,0,0,-1,0,0)" style="stroke:none;fill:#0000ff;fill-rule:evenodd" d="M-751.49292,56.099976L-755.392883,56.099976C-755.49292,56.099976,-755.392883,56,-755.392883,56.099976L-755.392883,59.900024C-755.392883,60,-755.49292,59.900024,-755.392883,59.900024L-747.592896,59.900024C-747.49292,59.900024,-747.592896,60,-747.592896,59.900024L-747.592896,56.099976C-747.592896,56,-747.49292,56.099976,-747.592896,56.099976L-751.49292,56.099976z"/>
    <path transform="matrix(1,0,0,-1,0,0)" style="stroke:none;fill:#0000ff;fill-rule:evenodd" d="M-767.49292,56.099976L-771.392883,56.099976C-771.49292,56.099976,-771.392883,56,-771.392883,56.099976L-771.392883,59.900024C-771.392883,60,-771.49292,59.900024,-771.392883,59.900024L-763.592896,59.900024C-763.49292,59.900024,-763.592896,60,-763.592896,59.900024L-763.592896,56.099976C-763.592896,56,-763.49292,56.099976,-763.592896,56.099976L-767.49292,56.099976z"/>
    <path transform="matrix(1,0,0,-1,0,0)" style="stroke:none;fill:#0000ff;fill-rule:evenodd" d="M-783.49292,56.099976L-787.392883,56.099976C-787.49292,56.099976,-787.392883,56,-787.392883,56.099976L-787.392883,59.900024C-787.392883,60,-787.49292,59.900024,-787.392883,59.900024L-779.592896,59.900024C-779.49292,59.900024,-779.592896,60,-779.592896,59.900024L-779.592896,56.099976C-779.592896,56,-779.49292,56.099976,-779.592896,56.099976L-783.49292,56.099976z"/>
    <path transform="matrix(1,0,0,-1,0,0)" style="stroke:none;fill:#0000ff;fill-rule:evenodd" d="M-799.49292,56.099976L-803.392883,56.099976C-803.49292,56.099976,-803.392883,56,-803.392883,56.099976L-803.392883,59.900024C-803.392883,60,-803.49292,59.900024,-803.392883,59.900024L-795.592896,59.900024C-795.49292,59.900024,-795.592896,60,-795.592896,59.900024L-795.592896,56.099976C-795.592896,56,-795.49292,56.099976,-795.592896,56.099976L-799.49292,56.099976z"/>
    <path transform="matrix(1,0,0,-1,0,0)" style="stroke:none;fill:#0000ff;fill-rule:evenodd" d="M-815.49292,56.099976L-819.392883,56.099976C-819.49292,56.099976,-819.392883,56,-819.392883,56.099976L-819.392883,59.900024C-819.392883,60,-819.49292,59.900024,-819.392883,59.900024L-811.592896,59.900024C-811.49292,59.900024,-811.592896,60,-811.592896,59.900024L-811.592896,56.099976C-811.592896,56,-811.49292,56.099976,-811.592896,56.099976L-815.49292,56.099976z"/>
    <path transform="matrix(1,0,0,-1,0,0)" style="stroke:none;fill:#0000ff;fill-rule:evenodd" d="M-831.49292,56.099976L-835.392883,56.099976C-835.49292,56.099976,-835.392883,56,-835.392883,56.099976L-835.392883,59.900024C-835.392883,60,-835.49292,59.900024,-835.392883,59.900024L-827.592896,59.900024C-827.49292,59.900024,-827.592896,60,-827.592896,59.900024L-827.592896,56.099976C-827.592896,56,-827.49292,56.099976,-827.592896,56.099976L-831.49292,56.099976z"/>
    <path transform="matrix(1,0,0,-1,0,0)" style="stroke:none;fill:#0000ff;fill-rule:evenodd" d="M-847.49292,56.099976L-851.392883,56.099976C-851.49292,56.099976,-851.392883,56,-851.392883,56.099976L-851.392883,59.900024C-851.392883,60,-851.49292,59.900024,-851.392883,59.900024L-843.592896,59.900024C-843.49292,59.900024,-843.592896,60,-843.592896,59.900024L-843.592896,56.099976C-843.592896,56,-843.49292,56.099976,-843.592896,56.099976L-847.49292,56.099976z"/>
    <path transform="matrix(1,0,0,-1,0,0)" style="stroke:none;fill:#0000ff;fill-rule:evenodd" d="M-863.49292,56.099976L-867.392883,56.099976C-867.49292,56.099976,-867.392883,56,-867.392883,56.099976L-867.392883,59.900024C-867.392883,60,-867.49292,59.900024,-867.392883,59.900024L-859.592896,59.900024C-859.49292,59.900024,-859.592896,60,-859.592896,59.900024L-859.592896,56.099976C-859.592896,56,-859.49292,56.099976,-859.592896,56.099976L-863.49292,56.099976z"/>
    <path transform="matrix(1,0,0,-1,0,0)" style="stroke:none;fill:#0000ff;fill-rule:evenodd" d="M-879.49292,56.099976L-883.392883,56.099976C-883.49292,56.099976,-883.392883,56,-883.392883,56.099976L-883.392883,59.900024C-883.392883,60,-883.49292,59.900024,-883.392883,59.900024L-875.592896,59.900024C-875.49292,59.900024,-875.592896,60,-875.592896,59.900024L-875.592896,56.099976C-875.592896,56,-875.49292,56.099976,-875.592896,56.099976L-879.49292,56.099976z"/>
    <path transform="matrix(1,0,0,-1,0,0)" style="stroke:none;fill:#0000ff;fill-rule:evenodd" d="M-895.49292,56.099976L-899.392883,56.099976C-899.49292,56.099976,-899.392883,56,-899.392883,56.099976L-899.392883,59.900024C-899.392883,60,-899.49292,59.900024,-899.392883,59.900024L-891.592896,59.900024C-891.49292,59.900024,-891.592896,60,-891.592896,59.900024L-891.592896,56.099976C-891.592896,56,-891.49292,56.099976,-891.592896,56.099976L-895.49292,56.099976z"/>
    <path transform="matrix(1,0,0,-1,0,0)" style="stroke:none;fill:#0000ff;fill-rule:evenodd" d="M-911.49292,56.099976L-915.392883,56.099976C-915.49292,56.099976,-915.392883,56,-915.392883,56.099976L-915.392883,59.900024C-915.392883,60,-915.49292,59.900024,-915.392883,59.900024L-907.592896,59.900024C-907.49292,59.900024,-907.592896,60,-907.592896,59.900024L-907.592896,56.099976C-907.592896,56,-907.49292,56.099976,-907.592896,56.099976L-911.49292,56.099976z"/>
    <path transform="matrix(1,0,0,-1,0,0)" style="stroke:none;fill:#0000ff;fill-rule:evenodd" d="M-927.49292,56.099976L-931.392883,56.099976C-931.49292,56.099976,-931.392883,56,-931.392883,56.099976L-931.392883,59.900024C-931.392883,60,-931.49292,59.900024,-931.392883,59.900024L-923.592896,59.900024C-923.49292,59.900024,-923.592896,60,-923.592896,59.900024L-923.592896,56.099976C-923.592896,56,-923.49292,56.099976,-923.592896,56.099976L-927.49292,56.099976z"/>
    <path transform="matrix(1,0,0,-1,0,0)" style="stroke:none;fill:#0000ff;fill-rule:evenodd" d="M-943.49292,56.099976L-947.392883,56.099976C-947.49292,56.099976,-947.392883,56,-947.392883,56.099976L-947.392883,59.900024C-947.392883,60,-947.49292,59.900024,-947.392883,59.900024L-939.592896,59.900024C-939.49292,59.900024,-939.592896,60,-939.592896,59.900024L-939.592896,56.099976C-939.592896,56,-939.49292,56.099976,-939.592896,56.099976L-943.49292,56.099976z"/>
    <path transform="matrix(1,0,0,-1,0,0)" style="stroke:none;fill:#0000ff;fill-rule:evenodd" d="M-959.49292,56.099976L-963.392883,56.099976C-963.49292,56.099976,-963.392883,56,-963.392883,56.099976L-963.392883,59.900024C-963.392883,60,-963.49292,59.900024,-963.392883,59.900024L-955.592896,59.900024C-955.49292,59.900024,-955.592896,60,-955.592896,59.900024L-955.592896,56.099976C-955.592896,56,-955.49292,56.099976,-955.592896,56.099976L-959.49292,56.099976z"/>
    <path transform="matrix(1,0,0,-1,0,0)" style="stroke:none;fill:#0000ff;fill-rule:evenodd" d="M-975.49292,56.099976L-979.392883,56.099976C-979.49292,56.099976,-979.392883,56,-979.392883,56.099976L-979.392883,59.900024C-979.392883,60,-979.49292,59.900024,-979.392883,59.900024L-971.592896,59.900024C-971.49292,59.900024,-971.592896,60,-971.592896,59.900024L-971.592896,56.099976C-971.592896,56,-971.49292,56.099976,-971.592896,56.099976L-975.49292,56.099976z"/>
    <path transform="matrix(1,0,0,-1,0,0)" style="stroke:none;fill:#0000ff;fill-rule:evenodd" d="M-301.49295,409.099976L-305.392944,409.099976C-305.49295,409.099976,-305.392944,409,-305.392944,409.099976L-305.392944,412.899963C-305.392944,413,-305.49295,412.899963,-305.392944,412.899963L-297.592957,412.899963C-297.49295,412.899963,-297.592957,413,-297.592957,412.899963L-297.592957,409.099976C-297.592957,409,-297.49295,409.099976,-297.592957,409.099976L-301.49295,409.099976z"/>
    <path transform="matrix(1,0,0,-1,0,0)" style="stroke:none;fill:#0000ff;fill-rule:evenodd" d="M-317.49295,409.099976L-321.392944,409.099976C-321.49295,409.099976,-321.392944,409,-321.392944,409.099976L-321.392944,412.899963C-321.392944,413,-321.49295,412.899963,-321.392944,412.899963L-313.592957,412.899963C-313.49295,412.899963,-313.592957,413,-313.592957,412.899963L-313.592957,409.099976C-313.592957,409,-313.49295,409.099976,-313.592957,409.099976L-317.49295,409.099976z"/>
    <path transform="matrix(1,0,0,-1,0,0)" style="stroke:none;fill:#0000ff;fill-rule:evenodd" d="M-333.49295,409.099976L-337.392944,409.099976C-337.49295,409.099976,-337.392944,409,-337.392944,409.099976L-337.392944,412.899963C-337.392944,413,-337.49295,412.899963,-337.392944,412.899963L-329.592957,412.899963C-329.49295,412.899963,-329.592957,413,-329.592957,412.899963L-329.592957,409.099976C-329.592957,409,-329.49295,409.099976,-329.592957,409.099976L-333.49295,409.099976z"/>
    <path transform="matrix(1,0,0,-1,0,0)" style="stroke:none;fill:#0000ff;fill-rule:evenodd" d="M-349.49295,409.099976L-353.392944,409.099976C-353.49295,409.099976,-353.392944,409,-353.392944,409.099976L-353.392944,412.899963C-353.392944,413,-353.49295,412.899963,-353.392944,412.899963L-345.592957,412.899963C-345.49295,412.899963,-345.592957,413,-345.592957,412.899963L-345.592957,409.099976C-345.592957,409,-345.49295,409.099976,-345.592957,409.099976L-349.49295,409.099976z"/>
    <path transform="matrix(1,0,0,-1,0,0)" style="stroke:none;fill:#0000ff;fill-rule:evenodd" d="M-365.49295,409.099976L-369.392944,409.099976C-369.49295,409.099976,-369.392944,409,-369.392944,409.099976L-369.392944,412.899963C-369.392944,413,-369.49295,412.899963,-369.392944,412.899963L-361.592957,412.899963C-361.49295,412.899963,-361.592957,413,-361.592957,412.899963L-361.592957,409.099976C-361.592957,409,-361.49295,409.099976,-361.592957,409.099976L-365.49295,409.099976z"/>
    <path transform="matrix(1,0,0,-1,0,0)" style="stroke:none;fill:#0000ff;fill-rule:evenodd" d="M-381.49295,409.099976L-385.392944,409.099976C-385.49295,409.099976,-385.392944,409,-385.392944,409.099976L-385.392944,412.899963C-385.392944,413,-385.49295,412.899963,-385.392944,412.899963L-377.592957,412.899963C-377.49295,412.899963,-377.592957,413,-377.592957,412.899963L-377.592957,409.099976C-377.592957,409,-377.49295,409.099976,-377.592957,409.099976L-381.49295,409.099976z"/>
    <path transform="matrix(1,0,0,-1,0,0)" style="stroke:none;fill:#0000ff;fill-rule:evenodd" d="M-397.49295,409.099976L-401.392944,409.099976C-401.49295,409.099976,-401.392944,409,-401.392944,409.099976L-401.392944,412.899963C-401.392944,413,-401.49295,412.899963,-401.392944,412.899963L-393.592957,412.899963C-393.49295,412.899963,-393.592957,413,-393.592957,412.899963L-393.592957,409.099976C-393.592957,409,-393.49295,409.099976,-393.592957,409.099976L-397.49295,409.099976z"/>
    <path transform="matrix(1,0,0,-1,0,0)" style="stroke:none;fill:#0000ff;fill-rule:evenodd" d="M-413.49295,409.099976L-417.392944,409.099976C-417.49295,409.099976,-417.392944,409,-417.392944,409.099976L-417.392944,412.899963C-417.392944,413,-417.49295,412.899963,-417.392944,412.899963L-409.592957,412.899963C-409.49295,412.899963,-409.592957,413,-409.592957,412.899963L-409.592957,409.099976C-409.592957,409,-409.49295,409.099976,-409.592957,409.099976L-413.49295,409.099976z"/>
    <path transform="matrix(1,0,0,-1,0,0)" style="stroke:none;fill:#0000ff;fill-rule:evenodd" d="M-429.49295,409.099976L-433.392944,409.099976C-433.49295,409.099976,-433.392944,409,-433.392944,409.099976L-433.392944,412.899963C-433.392944,413,-433.49295,412.899963,-433.392944,412.899963L-425.592957,412.899963C-425.49295,412.899963,-425.592957,413,-425.592957,412.899963L-425.592957,409.099976C-425.592957,409,-425.49295,409.099976,-425.592957,409.099976L-429.49295,409.099976z"/>
    <path transform="matrix(1,0,0,-1,0,0)" style="stroke:none;fill:#0000ff;fill-rule:evenodd" d="M-445.49295,409.099976L-449.392944,409.099976C-449.49295,409.099976,-449.392944,409,-449.392944,409.099976L-449.392944,412.899963C-449.392944,413,-449.49295,412.899963,-449.392944,412.899963L-441.592957,412.899963C-441.49295,412.899963,-441.592957,413,-441.592957,412.899963L-441.592957,409.099976C-441.592957,409,-441.49295,409.099976,-441.592957,409.099976L-445.49295,409.099976z"/>
    <path transform="matrix(1,0,0,-1,0,0)" style="stroke:none;fill:#0000ff;fill-rule:evenodd" d="M-461.49295,409.099976L-465.392944,409.099976C-465.49295,409.099976,-465.392944,409,-465.392944,409.099976L-465.392944,412.899963C-465.392944,413,-465.49295,412.899963,-465.392944,412.899963L-457.592957,412.899963C-457.49295,412.899963,-457.592957,413,-457.592957,412.899963L-457.592957,409.099976C-457.592957,409,-457.49295,409.099976,-457.592957,409.099976L-461.49295,409.099976z"/>
    <path transform="matrix(1,0,0,-1,0,0)" style="stroke:none;fill:#0000ff;fill-rule:evenodd" d="M-477.49295,409.099976L-481.392944,409.099976C-481.49295,409.099976,-481.392944,409,-481.392944,409.099976L-481.392944,412.899963C-481.392944,413,-481.49295,412.899963,-481.392944,412.899963L-473.592957,412.899963C-473.49295,412.899963,-473.592957,413,-473.592957,412.899963L-473.592957,409.099976C-473.592957,409,-473.49295,409.099976,-473.592957,409.099976L-477.49295,409.099976z"/>
    <path transform="matrix(1,0,0,-1,0,0)" style="stroke:none;fill:#0000ff;fill-rule:evenodd" d="M-493.49295,409.099976L-497.392944,409.099976C-497.49295,409.099976,-497.392944,409,-497.392944,409.099976L-497.392944,412.899963C-497.392944,413,-497.49295,412.899963,-497.392944,412.899963L-489.592957,412.899963C-489.49295,412.899963,-489.592957,413,-489.592957,412.899963L-489.592957,409.099976C-489.592957,409,-489.49295,409.099976,-489.592957,409.099976L-493.49295,409.099976z"/>
    <path transform="matrix(1,0,0,-1,0,0)" style="stroke:none;fill:#0000ff;fill-rule:evenodd" d="M-509.49295,409.099976L-513.392944,409.099976C-513.49292,409.099976,-513.392944,409,-513.392944,409.099976L-513.392944,412.899963C-513.392944,413,-513.49292,412.899963,-513.392944,412.899963L-505.592957,412.899963C-505.49295,412.899963,-505.592957,413,-505.592957,412.899963L-505.592957,409.099976C-505.592957,409,-505.49295,409.099976,-505.592957,409.099976L-509.49295,409.099976z"/>
    <path transform="matrix(1,0,0,-1,0,0)" style="stroke:none;fill:#0000ff;fill-rule:evenodd" d="M-525.49292,409.099976L-529.392944,409.099976C-529.49292,409.099976,-529.392944,409,-529.392944,409.099976L-529.392944,412.899963C-529.392944,413,-529.49292,412.899963,-529.392944,412.899963L-521.592957,412.899963C-521.49292,412.899963,-521.592957,413,-521.592957,412.899963L-521.592957,409.099976C-521.592957,409,-521.49292,409.099976,-521.592957,409.099976L-525.49292,409.099976z"/>
    <path transform="matrix(1,0,0,-1,0,0)" style="stroke:none;fill:#0000ff;fill-rule:evenodd" d="M-541.49292,409.099976L-545.392944,409.099976C-545.49292,409.099976,-545.392944,409,-545.392944,409.099976L-545.392944,412.899963C-545.392944,413,-545.49292,412.899963,-545.392944,412.899963L-537.592957,412.899963C-537.49292,412.899963,-537.592957,413,-537.592957,412.899963L-537.592957,409.099976C-537.592957,409,-537.49292,409.099976,-537.592957,409.099976L-541.49292,409.099976z"/>
    <path transform="matrix(1,0,0,-1,0,0)" style="stroke:none;fill:#0000ff;fill-rule:evenodd" d="M-557.49292,409.099976L-561.392944,409.099976C-561.49292,409.099976,-561.392944,409,-561.392944,409.099976L-561.392944,412.899963C-561.392944,413,-561.49292,412.899963,-561.392944,412.899963L-553.592957,412.899963C-553.49292,412.899963,-553.592957,413,-553.592957,412.899963L-553.592957,409.099976C-553.592957,409,-553.49292,409.099976,-553.592957,409.099976L-557.49292,409.099976z"/>
    <path transform="matrix(1,0,0,-1,0,0)" style="stroke:none;fill:#0000ff;fill-rule:evenodd" d="M-573.49292,409.099976L-577.392944,409.099976C-577.49292,409.099976,-577.392944,409,-577.392944,409.099976L-577.392944,412.899963C-577.392944,413,-577.49292,412.899963,-577.392944,412.899963L-569.592957,412.899963C-569.49292,412.899963,-569.592957,413,-569.592957,412.899963L-569.592957,409.099976C-569.592957,409,-569.49292,409.099976,-569.592957,409.099976L-573.49292,409.099976z"/>
    <path transform="matrix(1,0,0,-1,0,0)" style="stroke:none;fill:#0000ff;fill-rule:evenodd" d="M-589.49292,409.099976L-593.392944,409.099976C-593.49292,409.099976,-593.392944,409,-593.392944,409.099976L-593.392944,412.899963C-593.392944,413,-593.49292,412.899963,-593.392944,412.899963L-585.592957,412.899963C-585.49292,412.899963,-585.592957,413,-585.592957,412.899963L-585.592957,409.099976C-585.592957,409,-585.49292,409.099976,-585.592957,409.099976L-589.49292,409.099976z"/>
    <path transform="matrix(1,0,0,-1,0,0)" style="stroke:none;fill:#0000ff;fill-rule:evenodd" d="M-605.49292,409.099976L-609.392944,409.099976C-609.49292,409.099976,-609.392944,409,-609.392944,409.099976L-609.392944,412.899963C-609.392944,413,-609.49292,412.899963,-609.392944,412.899963L-601.592957,412.899963C-601.49292,412.899963,-601.592957,413,-601.592957,412.899963L-601.592957,409.099976C-601.592957,409,-601.49292,409.099976,-601.592957,409.099976L-605.49292,409.099976z"/>
</svg>
