<?xml version="1.0" encoding="UTF-8"?>
<svg xmlns="http://www.w3.org/2000/svg" xmlns:xlink="http://www.w3.org/1999/xlink" width="250.000mm" height="155.519mm" viewBox="7.999992 -249.759277 250.000000 155.518555">
    <path transform="matrix(1,0,0,-1,-581.760559,-35.681885)" style="stroke:#000000;stroke-width:0.05mm;fill:none" d="M593.33374,63.087402L597.189941,63.087402L597.189941,61.614258L599.189941,61.614258C599.742004,61.615181,600.18927,62.062183,600.189941,62.614258L600.189941,65.595215L610.190674,65.595215L610.190674,64.61792C610.190674,64.065636,610.638367,63.61792,611.190674,63.61792L611.190674,63.61792C611.742981,63.61792,612.190674,64.065636,612.190674,64.61792L612.190674,65.61792L612.189453,65.61792L612.190247,69.595016C612.190308,69.860268,612.084961,70.11467,611.8974,70.302254C611.7099,70.48983,611.455505,70.595215,611.190247,70.595215L600.189941,70.595215L600.189941,74.595947C600.189941,74.861214,600.084778,75.11573,599.897217,75.303329C599.709717,75.490921,599.4552,75.596176,599.189941,75.595947L597.189941,75.595947L597.189941,71.087402L591.341309,71.087402C591.329346,66.948761,591.326904,62.695568,591.33374,58.558838L593.33374,58.558838L593.33374,63.087402z"/>
    <circle transform="matrix(1,0,0,-1,38,-235.759277)" style="stroke:#000000;stroke-width:0.05mm;fill:none" r="5" cx="0" cy="0"/>
    <rect transform="matrix(1,0,0,-1,133,-185.759277)" style="stroke:#000000;stroke-width:0.05mm;fill:none" x="-125.000008" y="-64" width="250.000015" height="128"/>
    <rect transform="matrix(1,0,0,-1,227.955536,-235.761292)" style="stroke:#000000;stroke-width:0.05mm;fill:none" x="-2" y="-5" width="4" height="10"/>
    <rect transform="matrix(1,0,0,-1,227.967407,-215.758423)" style="stroke:#000000;stroke-width:0.05mm;fill:none" x="-2" y="-5" width="4" height="10"/>
    <rect transform="matrix(1,0,0,-1,189.941528,-235.769409)" style="stroke:#000000;stroke-width:0.05mm;fill:none" x="-2" y="-5" width="4" height="10"/>
    <rect transform="matrix(1,0,0,-1,189.95343,-215.766602)" style="stroke:#000000;stroke-width:0.05mm;fill:none" x="-2" y="-5" width="4" height="10"/>
    <rect transform="matrix(1,0,0,-1,208.957611,-235.756042)" style="stroke:#000000;stroke-width:0.05mm;fill:none" x="-2" y="-5" width="4" height="10"/>
    <rect transform="matrix(1,0,0,-1,208.969513,-215.753174)" style="stroke:#000000;stroke-width:0.05mm;fill:none" x="-2" y="-5" width="4" height="10"/>
    <rect transform="matrix(1,0,0,-1,170.933624,-235.758423)" style="stroke:#000000;stroke-width:0.05mm;fill:none" x="-2" y="-5" width="4" height="10"/>
    <rect transform="matrix(1,0,0,-1,170.945496,-215.755615)" style="stroke:#000000;stroke-width:0.05mm;fill:none" x="-2" y="-5" width="4" height="10"/>
    <rect transform="matrix(1,0,0,-1,227.959473,-195.76532)" style="stroke:#000000;stroke-width:0.05mm;fill:none" x="-2" y="-5" width="4" height="10"/>
    <rect transform="matrix(1,0,0,-1,227.971375,-175.762482)" style="stroke:#000000;stroke-width:0.05mm;fill:none" x="-2" y="-5" width="4" height="10"/>
    <rect transform="matrix(1,0,0,-1,189.945496,-195.773407)" style="stroke:#000000;stroke-width:0.05mm;fill:none" x="-2" y="-5" width="4" height="10"/>
    <rect transform="matrix(1,0,0,-1,189.957367,-175.770599)" style="stroke:#000000;stroke-width:0.05mm;fill:none" x="-2" y="-5" width="4" height="10"/>
    <rect transform="matrix(1,0,0,-1,208.961578,-195.760071)" style="stroke:#000000;stroke-width:0.05mm;fill:none" x="-2" y="-5" width="4" height="10"/>
    <rect transform="matrix(1,0,0,-1,208.97345,-175.757233)" style="stroke:#000000;stroke-width:0.05mm;fill:none" x="-2" y="-5" width="4" height="10"/>
    <rect transform="matrix(1,0,0,-1,170.937622,-195.762421)" style="stroke:#000000;stroke-width:0.05mm;fill:none" x="-2" y="-5" width="4" height="10"/>
    <rect transform="matrix(1,0,0,-1,170.949493,-175.759613)" style="stroke:#000000;stroke-width:0.05mm;fill:none" x="-2" y="-5" width="4" height="10"/>
    <rect transform="matrix(1,0,0,-1,227.957489,-155.763306)" style="stroke:#000000;stroke-width:0.05mm;fill:none" x="-2" y="-5" width="4" height="10"/>
    <rect transform="matrix(1,0,0,-1,227.969391,-135.760498)" style="stroke:#000000;stroke-width:0.05mm;fill:none" x="-2" y="-5" width="4" height="10"/>
    <rect transform="matrix(1,0,0,-1,189.943512,-155.771393)" style="stroke:#000000;stroke-width:0.05mm;fill:none" x="-2" y="-5" width="4" height="10"/>
    <rect transform="matrix(1,0,0,-1,189.955383,-135.768585)" style="stroke:#000000;stroke-width:0.05mm;fill:none" x="-2" y="-5" width="4" height="10"/>
    <rect transform="matrix(1,0,0,-1,208.959595,-155.758057)" style="stroke:#000000;stroke-width:0.05mm;fill:none" x="-2" y="-5" width="4" height="10"/>
    <rect transform="matrix(1,0,0,-1,208.971466,-135.755249)" style="stroke:#000000;stroke-width:0.05mm;fill:none" x="-2" y="-5" width="4" height="10"/>
    <rect transform="matrix(1,0,0,-1,170.935638,-155.760406)" style="stroke:#000000;stroke-width:0.05mm;fill:none" x="-2" y="-5" width="4" height="10"/>
    <rect transform="matrix(1,0,0,-1,170.94751,-135.757599)" style="stroke:#000000;stroke-width:0.05mm;fill:none" x="-2" y="-5" width="4" height="10"/>
    <rect transform="matrix(1,0,0,-1,94.956543,-235.762329)" style="stroke:#000000;stroke-width:0.05mm;fill:none" x="-2" y="-5" width="4" height="10"/>
    <rect transform="matrix(1,0,0,-1,94.968445,-215.759521)" style="stroke:#000000;stroke-width:0.05mm;fill:none" x="-2" y="-5" width="4" height="10"/>
    <rect transform="matrix(1,0,0,-1,113.972633,-235.748962)" style="stroke:#000000;stroke-width:0.05mm;fill:none" x="-2" y="-5" width="4" height="10"/>
    <rect transform="matrix(1,0,0,-1,113.984528,-215.746155)" style="stroke:#000000;stroke-width:0.05mm;fill:none" x="-2" y="-5" width="4" height="10"/>
    <rect transform="matrix(1,0,0,-1,132.942535,-235.770386)" style="stroke:#000000;stroke-width:0.05mm;fill:none" x="-2" y="-5" width="4" height="10"/>
    <rect transform="matrix(1,0,0,-1,132.954437,-215.767578)" style="stroke:#000000;stroke-width:0.05mm;fill:none" x="-2" y="-5" width="4" height="10"/>
    <rect transform="matrix(1,0,0,-1,151.958649,-235.75708)" style="stroke:#000000;stroke-width:0.05mm;fill:none" x="-2" y="-5" width="4" height="10"/>
    <rect transform="matrix(1,0,0,-1,151.97049,-215.754272)" style="stroke:#000000;stroke-width:0.05mm;fill:none" x="-2" y="-5" width="4" height="10"/>
    <rect transform="matrix(1,0,0,-1,56.942566,-235.770386)" style="stroke:#000000;stroke-width:0.05mm;fill:none" x="-2" y="-5" width="4" height="10"/>
    <rect transform="matrix(1,0,0,-1,56.954468,-215.767578)" style="stroke:#000000;stroke-width:0.05mm;fill:none" x="-2" y="-5" width="4" height="10"/>
    <rect transform="matrix(1,0,0,-1,75.958649,-235.75708)" style="stroke:#000000;stroke-width:0.05mm;fill:none" x="-2" y="-5" width="4" height="10"/>
    <rect transform="matrix(1,0,0,-1,75.97052,-215.754272)" style="stroke:#000000;stroke-width:0.05mm;fill:none" x="-2" y="-5" width="4" height="10"/>
    <rect transform="matrix(1,0,0,-1,37.946533,-215.756592)" style="stroke:#000000;stroke-width:0.05mm;fill:none" x="-2" y="-5" width="4" height="10"/>
    <rect transform="matrix(1,0,0,-1,94.96051,-195.766327)" style="stroke:#000000;stroke-width:0.05mm;fill:none" x="-2" y="-5" width="4" height="10"/>
    <rect transform="matrix(1,0,0,-1,94.972382,-175.763519)" style="stroke:#000000;stroke-width:0.05mm;fill:none" x="-2" y="-5" width="4" height="10"/>
    <rect transform="matrix(1,0,0,-1,113.976593,-195.752991)" style="stroke:#000000;stroke-width:0.05mm;fill:none" x="-2" y="-5" width="4" height="10"/>
    <rect transform="matrix(1,0,0,-1,113.988487,-175.750183)" style="stroke:#000000;stroke-width:0.05mm;fill:none" x="-2" y="-5" width="4" height="10"/>
    <rect transform="matrix(1,0,0,-1,132.946503,-195.774414)" style="stroke:#000000;stroke-width:0.05mm;fill:none" x="-2" y="-5" width="4" height="10"/>
    <rect transform="matrix(1,0,0,-1,132.958405,-175.771606)" style="stroke:#000000;stroke-width:0.05mm;fill:none" x="-2" y="-5" width="4" height="10"/>
    <rect transform="matrix(1,0,0,-1,151.962616,-195.761078)" style="stroke:#000000;stroke-width:0.05mm;fill:none" x="-2" y="-5" width="4" height="10"/>
    <rect transform="matrix(1,0,0,-1,151.974457,-175.75827)" style="stroke:#000000;stroke-width:0.05mm;fill:none" x="-2" y="-5" width="4" height="10"/>
    <rect transform="matrix(1,0,0,-1,56.946533,-195.774414)" style="stroke:#000000;stroke-width:0.05mm;fill:none" x="-2" y="-5" width="4" height="10"/>
    <rect transform="matrix(1,0,0,-1,56.958405,-175.771606)" style="stroke:#000000;stroke-width:0.05mm;fill:none" x="-2" y="-5" width="4" height="10"/>
    <rect transform="matrix(1,0,0,-1,75.962585,-195.761078)" style="stroke:#000000;stroke-width:0.05mm;fill:none" x="-2" y="-5" width="4" height="10"/>
    <rect transform="matrix(1,0,0,-1,75.974487,-175.75827)" style="stroke:#000000;stroke-width:0.05mm;fill:none" x="-2" y="-5" width="4" height="10"/>
    <rect transform="matrix(1,0,0,-1,37.93866,-195.763428)" style="stroke:#000000;stroke-width:0.05mm;fill:none" x="-2" y="-5" width="4" height="10"/>
    <rect transform="matrix(1,0,0,-1,37.950531,-175.76062)" style="stroke:#000000;stroke-width:0.05mm;fill:none" x="-2" y="-5" width="4" height="10"/>
    <rect transform="matrix(1,0,0,-1,94.958527,-155.764313)" style="stroke:#000000;stroke-width:0.05mm;fill:none" x="-2" y="-5" width="4" height="10"/>
    <rect transform="matrix(1,0,0,-1,94.970398,-135.761505)" style="stroke:#000000;stroke-width:0.05mm;fill:none" x="-2" y="-5" width="4" height="10"/>
    <rect transform="matrix(1,0,0,-1,113.974579,-155.750977)" style="stroke:#000000;stroke-width:0.05mm;fill:none" x="-2" y="-5" width="4" height="10"/>
    <rect transform="matrix(1,0,0,-1,113.986481,-135.748169)" style="stroke:#000000;stroke-width:0.05mm;fill:none" x="-2" y="-5" width="4" height="10"/>
    <rect transform="matrix(1,0,0,-1,132.944489,-155.7724)" style="stroke:#000000;stroke-width:0.05mm;fill:none" x="-2" y="-5" width="4" height="10"/>
    <rect transform="matrix(1,0,0,-1,132.95639,-135.769592)" style="stroke:#000000;stroke-width:0.05mm;fill:none" x="-2" y="-5" width="4" height="10"/>
    <rect transform="matrix(1,0,0,-1,151.960602,-155.759064)" style="stroke:#000000;stroke-width:0.05mm;fill:none" x="-2" y="-5" width="4" height="10"/>
    <rect transform="matrix(1,0,0,-1,151.972504,-135.756256)" style="stroke:#000000;stroke-width:0.05mm;fill:none" x="-2" y="-5" width="4" height="10"/>
    <rect transform="matrix(1,0,0,-1,56.944519,-155.7724)" style="stroke:#000000;stroke-width:0.05mm;fill:none" x="-2" y="-5" width="4" height="10"/>
    <rect transform="matrix(1,0,0,-1,56.956421,-135.769592)" style="stroke:#000000;stroke-width:0.05mm;fill:none" x="-2" y="-5" width="4" height="10"/>
    <rect transform="matrix(1,0,0,-1,75.960632,-155.759064)" style="stroke:#000000;stroke-width:0.05mm;fill:none" x="-2" y="-5" width="4" height="10"/>
    <rect transform="matrix(1,0,0,-1,75.972504,-135.756256)" style="stroke:#000000;stroke-width:0.05mm;fill:none" x="-2" y="-5" width="4" height="10"/>
    <rect transform="matrix(1,0,0,-1,37.936646,-155.761414)" style="stroke:#000000;stroke-width:0.05mm;fill:none" x="-2" y="-5" width="4" height="10"/>
    <rect transform="matrix(1,0,0,-1,37.948547,-135.758606)" style="stroke:#000000;stroke-width:0.05mm;fill:none" x="-2" y="-5" width="4" height="10"/>
    <circle transform="matrix(1,0,0,-1,16,-216.759277)" style="stroke:#000000;stroke-width:0.05mm;fill:none" r="1.5" cx="0" cy="0"/>
    <circle transform="matrix(1,0,0,-1,16,-153.759277)" style="stroke:#000000;stroke-width:0.05mm;fill:none" r="1.5" cx="0" cy="0"/>
    <circle transform="matrix(1,0,0,-1,249,-217.259277)" style="stroke:#000000;stroke-width:0.05mm;fill:none" r="1.5" cx="0" cy="0"/>
    <circle transform="matrix(1,0,0,-1,249,-154.259277)" style="stroke:#000000;stroke-width:0.05mm;fill:none" r="1.5" cx="0" cy="0"/>
</svg>
