<?xml version="1.0" encoding="UTF-8"?>
<svg xmlns="http://www.w3.org/2000/svg" xmlns:xlink="http://www.w3.org/1999/xlink" width="544.250mm" height="345.750mm" viewBox="8.750000 -389.250000 544.250000 345.750000">
    <path transform="matrix(1,0,0,-1,288.700012,-765.099976)" style="stroke:#000000;stroke-width:0.05mm;fill:none" d="M14.4,-479.600006L26.799999,-479.600006C26.855,-479.600006,26.9,-479.554993,26.9,-479.5L26.9,-475.600006C26.9,-475.5,26.799999,-475.600006,26.9,-475.600006L34.700001,-475.600006C34.799999,-475.600006,34.700001,-475.5,34.700001,-475.600006L34.700001,-479.5C34.700001,-479.554993,34.744999,-479.600006,34.799999,-479.600006L42.799999,-479.600006C42.855,-479.600006,42.900002,-479.554993,42.900002,-479.5L42.900002,-475.600006C42.900002,-475.5,42.799999,-475.600006,42.900002,-475.600006L50.700001,-475.600006C50.799999,-475.600006,50.700001,-475.5,50.700001,-475.600006L50.700001,-479.5C50.700001,-479.554993,50.744999,-479.600006,50.799999,-479.600006L58.799999,-479.600006C58.855,-479.600006,58.900002,-479.554993,58.900002,-479.5L58.900002,-475.600006C58.900002,-475.5,58.799999,-475.600006,58.900002,-475.600006L66.699997,-475.600006C66.800003,-475.600006,66.699997,-475.5,66.699997,-475.600006L66.699997,-479.5C66.699997,-479.554993,66.745003,-479.600006,66.800003,-479.600006L74.800003,-479.600006C74.855003,-479.600006,74.900002,-479.554993,74.900002,-479.5L74.900002,-475.600006C74.900002,-475.5,74.800003,-475.600006,74.900002,-475.600006L82.699997,-475.600006C82.800003,-475.600006,82.699997,-475.5,82.699997,-475.600006L82.699997,-479.5C82.699997,-479.554993,82.745003,-479.600006,82.800003,-479.600006L90.800003,-479.600006C90.855003,-479.600006,90.900002,-479.554993,90.900002,-479.5L90.900002,-475.600006C90.900002,-475.5,90.800003,-475.600006,90.900002,-475.600006L98.699997,-475.600006C98.800003,-475.600006,98.699997,-475.5,98.699997,-475.600006L98.699997,-479.5C98.699997,-479.554993,98.745003,-479.600006,98.800003,-479.600006L106.800003,-479.600006C106.855003,-479.600006,106.900002,-479.554993,106.900002,-479.5L106.900002,-475.600006C106.900002,-475.5,106.800003,-475.600006,106.900002,-475.600006L114.699997,-475.600006C114.800003,-475.600006,114.699997,-475.5,114.699997,-475.600006L114.699997,-479.5C114.699997,-479.554993,114.745003,-479.600006,114.800003,-479.600006L122.800003,-479.600006C122.855003,-479.600006,122.900002,-479.554993,122.900002,-479.5L122.900002,-475.600006C122.900002,-475.5,122.800003,-475.600006,122.900002,-475.600006L130.699997,-475.600006C130.800003,-475.600006,130.699997,-475.5,130.699997,-475.600006L130.699997,-479.5C130.699997,-479.554993,130.744995,-479.600006,130.800003,-479.600006L138.800003,-479.600006C138.854996,-479.600006,138.899994,-479.554993,138.899994,-479.5L138.899994,-475.600006C138.899994,-475.5,138.800003,-475.600006,138.899994,-475.600006L146.699997,-475.600006C146.800003,-475.600006,146.699997,-475.5,146.699997,-475.600006L146.699997,-479.5C146.699997,-479.554993,146.744995,-479.600006,146.800003,-479.600006L159.199997,-479.600006C159.255005,-479.600006,159.300003,-479.554993,159.300003,-479.5L159.300003,-475.5L159.300003,-466.200012C159.300003,-466.100006,159.199997,-466.200012,159.300003,-466.200012L163.199997,-466.200012C163.255005,-466.200012,163.300003,-466.154999,163.300003,-466.100006L163.300003,-458.100006C163.300003,-458.045013,163.255005,-458,163.199997,-458L159.300003,-458C159.199997,-458,159.300003,-458.100006,159.300003,-458L159.300003,-450.200012C159.300003,-450.100006,159.199997,-450.200012,159.300003,-450.200012L163.199997,-450.200012C163.255005,-450.200012,163.300003,-450.154999,163.300003,-450.100006L163.300003,-442.100006C163.300003,-442.045013,163.255005,-442,163.199997,-442L159.300003,-442C159.199997,-442,159.300003,-442.100006,159.300003,-442L159.300003,-434.200012C159.300003,-434.100006,159.199997,-434.200012,159.300003,-434.200012L163.199997,-434.200012C163.255005,-434.200012,163.300003,-434.154999,163.300003,-434.100006L163.300003,-426.100006C163.300003,-426.045013,163.255005,-426,163.199997,-426L159.300003,-426C159.199997,-426,159.300003,-426.100006,159.300003,-426L159.300003,-418.200012C159.300003,-418.100006,159.199997,-418.200012,159.300003,-418.200012L163.199997,-418.200012C163.255005,-418.200012,163.300003,-418.154999,163.300003,-418.100006L163.300003,-410.100006C163.300003,-410.045013,163.255005,-410,163.199997,-410L159.300003,-410C159.199997,-410,159.300003,-410.100006,159.300003,-410L159.300003,-402.200012C159.300003,-402.100006,159.199997,-402.200012,159.300003,-402.200012L163.199997,-402.200012C163.255005,-402.200012,163.300003,-402.154999,163.300003,-402.100006L163.300003,-394.100006C163.300003,-394.045013,163.255005,-394,163.199997,-394L159.300003,-394C159.199997,-394,159.300003,-394.100006,159.300003,-394L159.300003,-384.700012L159.300003,-380.700012C159.300003,-380.644989,159.255005,-380.600006,159.199997,-380.600006L146.800003,-380.600006C146.744995,-380.600006,146.699997,-380.644989,146.699997,-380.700012L146.699997,-384.600006C146.699997,-384.700012,146.800003,-384.600006,146.699997,-384.600006L138.899994,-384.600006C138.800003,-384.600006,138.899994,-384.700012,138.899994,-384.600006L138.899994,-380.700012C138.899994,-380.644989,138.854996,-380.600006,138.800003,-380.600006L130.800003,-380.600006C130.744995,-380.600006,130.699997,-380.644989,130.699997,-380.700012L130.699997,-384.600006C130.699997,-384.700012,130.800003,-384.600006,130.699997,-384.600006L122.900002,-384.600006C122.800003,-384.600006,122.900002,-384.700012,122.900002,-384.600006L122.900002,-380.700012C122.900002,-380.644989,122.855003,-380.600006,122.800003,-380.600006L114.800003,-380.600006C114.745003,-380.600006,114.699997,-380.644989,114.699997,-380.700012L114.699997,-384.600006C114.699997,-384.700012,114.800003,-384.600006,114.699997,-384.600006L106.900002,-384.600006C106.800003,-384.600006,106.900002,-384.700012,106.900002,-384.600006L106.900002,-380.700012C106.900002,-380.644989,106.855003,-380.600006,106.800003,-380.600006L98.800003,-380.600006C98.745003,-380.600006,98.699997,-380.644989,98.699997,-380.700012L98.699997,-384.600006C98.699997,-384.700012,98.800003,-384.600006,98.699997,-384.600006L90.900002,-384.600006C90.800003,-384.600006,90.900002,-384.700012,90.900002,-384.600006L90.900002,-380.700012C90.900002,-380.644989,90.855003,-380.600006,90.800003,-380.600006L82.800003,-380.600006C82.745003,-380.600006,82.699997,-380.644989,82.699997,-380.700012L82.699997,-384.600006C82.699997,-384.700012,82.800003,-384.600006,82.699997,-384.600006L74.900002,-384.600006C74.800003,-384.600006,74.900002,-384.700012,74.900002,-384.600006L74.900002,-380.700012C74.900002,-380.644989,74.855003,-380.600006,74.800003,-380.600006L66.800003,-380.600006C66.745003,-380.600006,66.699997,-380.644989,66.699997,-380.700012L66.699997,-384.600006C66.699997,-384.700012,66.800003,-384.600006,66.699997,-384.600006L58.900002,-384.600006C58.799999,-384.600006,58.900002,-384.700012,58.900002,-384.600006L58.900002,-380.700012C58.900002,-380.644989,58.855,-380.600006,58.799999,-380.600006L50.799999,-380.600006C50.744999,-380.600006,50.700001,-380.644989,50.700001,-380.700012L50.700001,-384.600006C50.700001,-384.700012,50.799999,-384.600006,50.700001,-384.600006L42.900002,-384.600006C42.799999,-384.600006,42.900002,-384.700012,42.900002,-384.600006L42.900002,-380.700012C42.900002,-380.644989,42.855,-380.600006,42.799999,-380.600006L34.799999,-380.600006C34.744999,-380.600006,34.700001,-380.644989,34.700001,-380.700012L34.700001,-384.600006C34.700001,-384.700012,34.799999,-384.600006,34.700001,-384.600006L26.9,-384.600006C26.799999,-384.600006,26.9,-384.700012,26.9,-384.600006L26.9,-380.700012C26.9,-380.644989,26.855,-380.600006,26.799999,-380.600006L14.4,-380.600006C14.345,-380.600006,14.3,-380.644989,14.3,-380.700012L14.3,-384.700012L14.3,-394C14.3,-394.100006,14.4,-394,14.3,-394L10.4,-394C10.345,-394,10.3,-394.045013,10.3,-394.100006L10.3,-402.100006C10.3,-402.154999,10.345,-402.200012,10.4,-402.200012L14.3,-402.200012C14.4,-402.200012,14.3,-402.100006,14.3,-402.200012L14.3,-410C14.3,-410.100006,14.4,-410,14.3,-410L10.4,-410C10.345,-410,10.3,-410.045013,10.3,-410.100006L10.3,-418.100006C10.3,-418.154999,10.345,-418.200012,10.4,-418.200012L14.3,-418.200012C14.4,-418.200012,14.3,-418.100006,14.3,-418.200012L14.3,-426C14.3,-426.100006,14.4,-426,14.3,-426L10.4,-426C10.345,-426,10.3,-426.045013,10.3,-426.100006L10.3,-434.100006C10.3,-434.154999,10.345,-434.200012,10.4,-434.200012L14.3,-434.200012C14.4,-434.200012,14.3,-434.100006,14.3,-434.200012L14.3,-442C14.3,-442.100006,14.4,-442,14.3,-442L10.4,-442C10.345,-442,10.3,-442.045013,10.3,-442.100006L10.3,-450.100006C10.3,-450.154999,10.345,-450.200012,10.4,-450.200012L14.3,-450.200012C14.4,-450.200012,14.3,-450.100006,14.3,-450.200012L14.3,-458C14.3,-458.100006,14.4,-458,14.3,-458L10.4,-458C10.345,-458,10.3,-458.045013,10.3,-458.100006L10.3,-466.100006C10.3,-466.154999,10.345,-466.200012,10.4,-466.200012L14.3,-466.200012C14.4,-466.200012,14.3,-466.100006,14.3,-466.200012L14.3,-475.5L14.3,-479.5C14.3,-479.554993,14.345,-479.600006,14.4,-479.600006z"/>
    <rect transform="matrix(1,0,0,-1,83.75,-325.25)" style="stroke:#000000;stroke-width:0.05mm;fill:none" x="-75" y="-64" width="150" height="128"/>
    <rect transform="matrix(1,0,0,-1,228.75,-324.75)" style="stroke:#000000;stroke-width:0.05mm;fill:none" x="-52.499996" y="-64" width="104.999992" height="128"/>
    <path transform="matrix(1,0,0,-1,85.194946,-369.713043)" style="stroke:#000000;stroke-width:0.05mm;fill:none" d="M-37.475342,-5.854492L-37.12085,-5.802002C-36.581123,-5.709301,-36.086109,-5.443102,-35.711182,-5.043945C-35.121681,-4.403094,-35.035313,-3.446528,-35.500488,-2.710449C-35.841293,-2.276416,-36.313869,-1.965649,-36.847412,-1.824707C-37.479485,-1.651894,-38.113564,-1.486946,-38.749756,-1.329834L-38.942139,-1.265869C-39.24366,-1.199584,-39.500866,-1.003595,-39.644775,-0.730469C-39.808338,-0.330123,-39.674221,0.130434,-39.321289,0.380371C-39.012215,0.586876,-38.648052,0.694934,-38.276367,0.69043C-37.812553,0.742413,-37.343864,0.651521,-36.933105,0.429932C-36.656109,0.247079,-36.459602,-0.034964,-36.384033,-0.358154L-36.325684,-0.676758L-35.41748,-0.608398C-35.43298,0.344085,-36.093006,1.165621,-37.019775,1.385986C-37.809875,1.614634,-38.652992,1.579579,-39.421387,1.286133C-40.310669,0.956262,-40.804974,0.005867,-40.564453,-0.911621C-40.39679,-1.430214,-40.008617,-1.847871,-39.503662,-2.052979C-38.945671,-2.272979,-38.368828,-2.441806,-37.780273,-2.557373L-37.418213,-2.652588C-37.058586,-2.726998,-36.719521,-2.878871,-36.424561,-3.097656C-36.098991,-3.400288,-36.018833,-3.884465,-36.229492,-4.275879C-36.427917,-4.617071,-36.763992,-4.856225,-37.151367,-4.931885C-37.923443,-5.147712,-38.751457,-5.013445,-39.415771,-4.564697C-39.706409,-4.32965,-39.901516,-3.997046,-39.964844,-3.628662L-40.007324,-3.37207L-40.900879,-3.450195C-40.896675,-4.383481,-40.336842,-5.224675,-39.477539,-5.588867C-38.839127,-5.829333,-38.154366,-5.920177,-37.475342,-5.854492zM38.555176,-5.855225L38.772705,-5.819092C39.190685,-5.723971,39.552036,-5.462768,39.773438,-5.095703L39.773438,-5.75L40.588867,-5.75L40.588867,1.408203L39.714844,1.408203L39.714844,-1.160156L39.591553,-1.009033C39.179146,-0.564786,38.568504,-0.360902,37.971924,-0.468262C37.236568,-0.56638,36.613979,-1.059877,36.350586,-1.753418C35.992882,-2.660532,36.00251,-3.67067,36.377441,-4.570801C36.742268,-5.430685,37.626125,-5.951979,38.555176,-5.855225zM19.606689,-0.113281L19.658203,0.087402C19.696047,0.239158,19.732279,0.391417,19.766846,0.543945L19.814453,0.352539C20.372314,-1.693634,20.928711,-3.707611,21.500244,-5.75L22.41333,-5.75L24.376221,1.408203L23.424072,1.408203C22.966827,-0.396706,22.525909,-2.207283,22.102051,-4.020264C22.046324,-4.262509,21.993845,-4.505373,21.94458,-4.749023L21.845703,-4.145752C21.724176,-3.495157,21.571405,-2.850755,21.387939,-2.214844L20.362549,1.408203L19.219971,1.408203L17.841797,-3.484863C17.737686,-3.90494,17.635193,-4.327822,17.5354,-4.749023L17.39624,-4.019043C16.994751,-2.205063,16.57782,-0.398315,16.143799,1.408203L15.172119,1.408203L17.071533,-5.75L18.03833,-5.75L19.606689,-0.113281zM-28.111816,-2.913086C-28.125183,-2.587615,-28.075441,-2.262628,-27.965332,-1.956055C-27.695368,-1.408105,-27.093399,-1.108269,-26.493408,-1.2229C-26.121077,-1.265125,-25.812672,-1.532092,-25.717529,-1.894531C-25.666737,-2.079943,-25.642651,-2.271653,-25.645996,-2.463867L-25.645996,-5.75L-24.76709,-5.75L-24.76709,-2.463867C-24.748142,-2.068062,-24.810459,-1.672559,-24.950195,-1.301758C-25.160803,-0.881562,-25.557865,-0.585734,-26.020752,-0.50415C-26.705894,-0.324535,-27.435892,-0.509271,-27.953125,-0.993164L-28.111816,-1.160156L-28.111816,1.408203L-28.990723,1.408203L-28.990723,-5.75L-28.111816,-5.75L-28.111816,-2.913086zM-15.313232,-5.855713L-15.094971,-5.821777C-14.217273,-5.599757,-13.551017,-4.884806,-13.391357,-3.993652C-13.195618,-3.180085,-13.283756,-2.323775,-13.641113,-1.567139C-14.127844,-0.596165,-15.290989,-0.180003,-16.283203,-0.621826C-16.530704,-0.747095,-16.747143,-0.926001,-16.916748,-1.145508L-16.916748,1.408203L-17.795654,1.408203L-17.795654,-5.75L-16.980225,-5.75L-16.980225,-5.100586L-16.843506,-5.280273C-16.466745,-5.722897,-15.888288,-5.940417,-15.313232,-5.855713zM-11.331543,1.408203L-12.210449,1.408203L-12.210449,-5.75L-11.331543,-5.75L-11.331543,1.408203zM-2.244629,-5.855225L-2.027344,-5.819092C-1.609349,-5.723998,-1.247995,-5.462789,-1.026611,-5.095703L-1.026611,-5.75L-0.211182,-5.75L-0.211182,1.408203L-1.085205,1.408203L-1.085205,-1.160156L-1.208496,-1.009033C-1.620904,-0.564786,-2.231544,-0.360901,-2.828125,-0.468262C-3.563481,-0.566379,-4.18607,-1.059876,-4.449463,-1.753418C-4.80714,-2.660535,-4.797512,-3.670666,-4.422607,-4.570801C-4.05773,-5.430757,-3.173758,-5.952064,-2.244629,-5.855225zM31.687988,-2.917969C31.664928,-2.526392,31.744015,-2.135506,31.91748,-1.783691C32.175713,-1.407473,32.609001,-1.190462,33.064941,-1.208984C33.480553,-1.179663,33.870392,-1.412593,34.041504,-1.79248C34.121479,-2.052361,34.156162,-2.324066,34.144043,-2.595703L34.144043,-5.75L35.022949,-5.75C35.033981,-4.592938,35.033005,-3.436319,35.02002,-2.279297C35.049801,-1.848253,34.937588,-1.418951,34.700684,-1.057617C34.392891,-0.699061,33.952126,-0.482425,33.480225,-0.457764C32.832146,-0.366207,32.181396,-0.60848,31.750977,-1.101563L31.600098,-1.301758L31.600098,-0.564453L30.809082,-0.564453L30.809082,-5.75L31.687988,-5.75L31.687988,-2.917969zM-31.692627,-5.859375L-31.49292,-5.835693C-30.632193,-5.69809,-29.949432,-5.036214,-29.785156,-4.180176L-29.742676,-3.962891L-30.606934,-3.850586L-30.669189,-4.158936C-30.802235,-4.804007,-31.416557,-5.233599,-32.068115,-5.137207C-32.659107,-5.076958,-33.141335,-4.637354,-33.255859,-4.054443C-33.41473,-3.403149,-33.393299,-2.721089,-33.193848,-2.081055C-32.965786,-1.447102,-32.313835,-1.069255,-31.650391,-1.186523C-31.226534,-1.258613,-30.879322,-1.56359,-30.753174,-1.974609L-30.680176,-2.219727L-29.825684,-2.087891C-29.960859,-1.159617,-30.751717,-0.466336,-31.689697,-0.453857C-32.409473,-0.381808,-33.123127,-0.640045,-33.630127,-1.156006C-33.997433,-1.617165,-34.211262,-2.181258,-34.241943,-2.77002C-34.311489,-3.378481,-34.230675,-3.994742,-34.006592,-4.564697C-33.642002,-5.392722,-32.804565,-5.910717,-31.900879,-5.867188L-31.692627,-5.859375zM3.607666,-5.860352L3.818359,-5.839844C4.72335,-5.742807,5.466918,-5.080243,5.667236,-4.192383L4.759033,-4.080078L4.650146,-4.3396C4.382288,-4.942558,3.722395,-5.269066,3.080566,-5.116211C2.435865,-4.974256,1.951255,-4.439676,1.873047,-3.78418C1.847714,-3.651326,1.831482,-3.516901,1.824463,-3.381836L5.69165,-3.381836C5.749125,-2.747229,5.622008,-2.109275,5.325684,-1.545166C4.861998,-0.764173,3.975671,-0.336109,3.075684,-0.458496C2.050537,-0.537012,1.204536,-1.29248,1.010986,-2.302246C0.83348,-3.054672,0.891249,-3.843243,1.176514,-4.561768C1.525917,-5.322585,2.27331,-5.822987,3.109863,-5.856201C3.275491,-5.869301,3.441842,-5.870688,3.607666,-5.860352zM26.938477,-5.856445L27.184814,-5.824463C27.711765,-5.722962,28.199762,-5.475496,28.593018,-5.110352L28.618652,-5.287598C28.646442,-5.448087,28.697008,-5.603798,28.768799,-5.75L29.686768,-5.75C29.496733,-5.389442,29.405487,-4.984861,29.422363,-4.577637C29.409088,-3.689341,29.400757,-2.798197,29.397461,-1.909668L29.383789,-1.729492C29.34955,-1.202005,28.988188,-0.75145,28.480713,-0.603516C27.659992,-0.349041,26.776163,-0.394447,25.98584,-0.731689C25.560221,-0.938438,25.247267,-1.322616,25.130859,-1.78125L25.062744,-2.043945L25.922119,-2.161133L26.002441,-1.90625C26.13517,-1.476621,26.535217,-1.184338,26.984863,-1.188477C27.359287,-1.134797,27.741261,-1.188119,28.08667,-1.342285C28.332722,-1.462714,28.49444,-1.707159,28.509033,-1.980713C28.526007,-2.139554,28.5296,-2.299541,28.519775,-2.458984C27.928673,-2.631947,27.321411,-2.744105,26.70752,-2.793701L26.49585,-2.826416C25.977985,-2.873558,25.501772,-3.130456,25.177979,-3.537354C24.752224,-4.132595,24.834576,-4.951198,25.370361,-5.449707C25.740019,-5.749172,26.209118,-5.898273,26.683838,-5.867188L26.938477,-5.856445zM-8.261475,-5.856445L-8.015137,-5.824463C-7.488185,-5.722961,-7.00019,-5.475494,-6.606934,-5.110352L-6.581299,-5.287598C-6.553504,-5.448086,-6.502942,-5.603797,-6.431152,-5.75L-5.513184,-5.75C-5.703246,-5.389451,-5.794493,-4.984865,-5.777588,-4.577637C-5.790878,-3.689333,-5.79921,-2.79812,-5.80249,-1.909668L-5.816406,-1.729492C-5.850417,-1.201996,-6.211744,-0.751363,-6.719238,-0.603516C-7.539959,-0.349041,-8.423789,-0.394448,-9.214111,-0.731689C-9.639722,-0.938509,-9.952728,-1.32264,-10.069336,-1.78125L-10.137207,-2.043945L-9.277832,-2.161133L-9.19751,-1.90625C-9.064781,-1.476621,-8.664733,-1.184339,-8.215088,-1.188477C-7.840663,-1.134797,-7.458691,-1.188119,-7.113281,-1.342285C-6.86723,-1.462715,-6.705513,-1.70716,-6.690918,-1.980713C-6.673944,-2.139553,-6.670351,-2.299542,-6.680176,-2.458984C-7.271279,-2.631948,-7.878541,-2.744107,-8.492432,-2.793701L-8.704102,-2.826416C-9.221967,-2.873558,-9.698181,-3.130456,-10.021973,-3.537354C-10.447729,-4.132594,-10.365376,-4.951198,-9.82959,-5.449707C-9.459943,-5.749194,-8.990837,-5.898296,-8.516113,-5.867188L-8.261475,-5.856445zM7.687988,-2.917969C7.664928,-2.526392,7.744014,-2.135507,7.91748,-1.783691C8.175714,-1.407472,8.609001,-1.19046,9.064941,-1.208984C9.480554,-1.179665,9.870393,-1.412594,10.041504,-1.79248C10.121477,-2.052361,10.156162,-2.324064,10.144043,-2.595703L10.144043,-5.75L11.022949,-5.75C11.033981,-4.592936,11.033005,-3.436322,11.02002,-2.279297C11.049802,-1.848254,10.937586,-1.418951,10.700684,-1.057617C10.39289,-0.69906,9.952127,-0.482425,9.480225,-0.457764C8.832145,-0.366207,8.181396,-0.60848,7.750977,-1.101563L7.600098,-1.301758L7.600098,-0.564453L6.809082,-0.564453L6.809082,-5.75L7.687988,-5.75L7.687988,-2.917969zM-21.384766,-5.853516L-21.14502,-5.812256C-20.669611,-5.695126,-20.257088,-5.400213,-19.992432,-4.988281L-19.992432,-5.75L-19.206299,-5.75L-19.206299,-0.564453L-20.085205,-0.564453L-20.085205,-3.342773C-20.069817,-3.686513,-20.118668,-4.030125,-20.229248,-4.355957C-20.519316,-4.948308,-21.192743,-5.245688,-21.825928,-5.061035C-22.205954,-4.951675,-22.476332,-4.615123,-22.501221,-4.220459C-22.523991,-3.961092,-22.534096,-3.700781,-22.531494,-3.44043L-22.531494,-0.564453L-23.4104,-0.564453C-23.424355,-1.722778,-23.423225,-2.880992,-23.406982,-4.039307C-23.430603,-4.466435,-23.318064,-4.890345,-23.085693,-5.249512C-22.720068,-5.662154,-22.188837,-5.8888,-21.637939,-5.867188L-21.384766,-5.853516zM1.873291,-2.65918C1.878441,-2.153876,2.13058,-1.682621,2.548096,-1.397949C3.059646,-1.066451,3.7238,-1.08946,4.211182,-1.455566C4.491823,-1.67712,4.676287,-1.998468,4.726074,-2.352539L4.768799,-2.65918L1.873291,-2.65918zM-15.7854,-5.134033C-16.389618,-5.021326,-16.850704,-4.531333,-16.926514,-3.921387C-17.047783,-3.318434,-17.013161,-2.694479,-16.825928,-2.108643C-16.645075,-1.565586,-16.145952,-1.191342,-15.573975,-1.169922C-15.013144,-1.187062,-14.524463,-1.556092,-14.354492,-2.09082C-14.110315,-2.833791,-14.138252,-3.638783,-14.43335,-4.363037C-14.667934,-4.886778,-15.215197,-5.198851,-15.7854,-5.134033zM-2.53418,-5.136719C-3.11096,-5.039093,-3.571227,-4.603117,-3.699951,-4.032471C-3.88005,-3.335345,-3.839467,-2.600073,-3.58374,-1.927002C-3.317894,-1.323475,-2.631401,-1.026055,-2.009277,-1.244873C-1.550725,-1.42804,-1.214691,-1.828989,-1.114502,-2.3125C-0.953553,-2.951123,-0.972479,-3.621715,-1.169189,-4.250244C-1.362092,-4.827516,-1.928353,-5.195266,-2.53418,-5.136719zM38.265869,-5.136719C37.689079,-5.03911,37.228806,-4.603127,37.100098,-4.032471C36.919952,-3.335347,36.960537,-2.600067,37.216309,-1.927002C37.482136,-1.323454,38.168644,-1.026029,38.790771,-1.244873C39.249325,-1.428039,39.585358,-1.828989,39.685547,-2.3125C39.846607,-2.951125,39.827595,-3.62177,39.630615,-4.250244C39.437897,-4.827545,38.871658,-5.195342,38.265869,-5.136719zM14.767578,-2.717773L12.067383,-2.717773L12.067383,-3.601563L14.767578,-3.601563L14.767578,-2.717773zM-8.547119,-5.164063C-8.921727,-5.149714,-9.242341,-4.890241,-9.334473,-4.526855C-9.416613,-4.164998,-9.225455,-3.796515,-8.882324,-3.655273C-8.715487,-3.592973,-8.542848,-3.547585,-8.366943,-3.519775L-7.667236,-3.407471C-7.329992,-3.355822,-6.999098,-3.268659,-6.680176,-3.147461C-6.6572,-3.494382,-6.684086,-3.842838,-6.76001,-4.182129C-6.923968,-4.662519,-7.329373,-5.02031,-7.826416,-5.123291C-8.062382,-5.179185,-8.306355,-5.192987,-8.547119,-5.164063zM26.652832,-5.164063C26.278223,-5.149713,25.957609,-4.890242,25.865479,-4.526855C25.783342,-4.164998,25.974499,-3.796516,26.317627,-3.655273C26.484465,-3.592973,26.657104,-3.547585,26.833008,-3.519775L27.532715,-3.407471C27.869961,-3.355822,28.200853,-3.268659,28.519775,-3.147461C28.542889,-3.494368,28.516085,-3.842837,28.440186,-4.182129C28.276014,-4.662467,27.870577,-5.020205,27.373535,-5.123291C27.137569,-5.179182,26.893597,-5.192986,26.652832,-5.164063z"/>
    <path transform="matrix(1,0,0,-1,231.156006,-370.171356)" style="stroke:#000000;stroke-width:0.05mm;fill:none" d="M-37.475342,-5.854492L-37.12085,-5.802002C-36.581123,-5.709301,-36.086109,-5.443102,-35.711182,-5.043945C-35.121681,-4.403094,-35.035313,-3.446528,-35.500488,-2.710449C-35.841293,-2.276416,-36.313869,-1.965649,-36.847412,-1.824707C-37.479485,-1.651894,-38.113564,-1.486946,-38.749756,-1.329834L-38.942139,-1.265869C-39.24366,-1.199584,-39.500866,-1.003595,-39.644775,-0.730469C-39.808338,-0.330123,-39.674221,0.130434,-39.321289,0.380371C-39.012215,0.586876,-38.648052,0.694934,-38.276367,0.69043C-37.812553,0.742413,-37.343864,0.651521,-36.933105,0.429932C-36.656109,0.247079,-36.459602,-0.034964,-36.384033,-0.358154L-36.325684,-0.676758L-35.41748,-0.608398C-35.43298,0.344085,-36.093006,1.165621,-37.019775,1.385986C-37.809875,1.614634,-38.652992,1.579579,-39.421387,1.286133C-40.310669,0.956262,-40.804974,0.005867,-40.564453,-0.911621C-40.39679,-1.430214,-40.008617,-1.847871,-39.503662,-2.052979C-38.945671,-2.272979,-38.368828,-2.441806,-37.780273,-2.557373L-37.418213,-2.652588C-37.058586,-2.726998,-36.719521,-2.878871,-36.424561,-3.097656C-36.098991,-3.400288,-36.018833,-3.884465,-36.229492,-4.275879C-36.427917,-4.617071,-36.763992,-4.856225,-37.151367,-4.931885C-37.923443,-5.147712,-38.751457,-5.013445,-39.415771,-4.564697C-39.706409,-4.32965,-39.901516,-3.997046,-39.964844,-3.628662L-40.007324,-3.37207L-40.900879,-3.450195C-40.896675,-4.383481,-40.336842,-5.224675,-39.477539,-5.588867C-38.839127,-5.829333,-38.154366,-5.920177,-37.475342,-5.854492zM38.555176,-5.855225L38.772705,-5.819092C39.190685,-5.723971,39.552036,-5.462768,39.773438,-5.095703L39.773438,-5.75L40.588867,-5.75L40.588867,1.408203L39.714844,1.408203L39.714844,-1.160156L39.591553,-1.009033C39.179146,-0.564786,38.568504,-0.360902,37.971924,-0.468262C37.236568,-0.56638,36.613979,-1.059877,36.350586,-1.753418C35.992882,-2.660532,36.00251,-3.67067,36.377441,-4.570801C36.742268,-5.430685,37.626125,-5.951979,38.555176,-5.855225zM19.606689,-0.113281L19.658203,0.087402C19.696047,0.239158,19.732279,0.391417,19.766846,0.543945L19.814453,0.352539C20.372314,-1.693634,20.928711,-3.707611,21.500244,-5.75L22.41333,-5.75L24.376221,1.408203L23.424072,1.408203C22.966827,-0.396706,22.525909,-2.207283,22.102051,-4.020264C22.046324,-4.262509,21.993845,-4.505373,21.94458,-4.749023L21.845703,-4.145752C21.724176,-3.495157,21.571405,-2.850755,21.387939,-2.214844L20.362549,1.408203L19.219971,1.408203L17.841797,-3.484863C17.737686,-3.90494,17.635193,-4.327822,17.5354,-4.749023L17.39624,-4.019043C16.994751,-2.205063,16.57782,-0.398315,16.143799,1.408203L15.172119,1.408203L17.071533,-5.75L18.03833,-5.75L19.606689,-0.113281zM-28.111816,-2.913086C-28.125183,-2.587615,-28.075441,-2.262628,-27.965332,-1.956055C-27.695368,-1.408105,-27.093399,-1.108269,-26.493408,-1.2229C-26.121077,-1.265125,-25.812672,-1.532092,-25.717529,-1.894531C-25.666737,-2.079943,-25.642651,-2.271653,-25.645996,-2.463867L-25.645996,-5.75L-24.76709,-5.75L-24.76709,-2.463867C-24.748142,-2.068062,-24.810459,-1.672559,-24.950195,-1.301758C-25.160803,-0.881562,-25.557865,-0.585734,-26.020752,-0.50415C-26.705894,-0.324535,-27.435892,-0.509271,-27.953125,-0.993164L-28.111816,-1.160156L-28.111816,1.408203L-28.990723,1.408203L-28.990723,-5.75L-28.111816,-5.75L-28.111816,-2.913086zM-15.313232,-5.855713L-15.094971,-5.821777C-14.217273,-5.599757,-13.551017,-4.884806,-13.391357,-3.993652C-13.195618,-3.180085,-13.283756,-2.323775,-13.641113,-1.567139C-14.127844,-0.596165,-15.290989,-0.180003,-16.283203,-0.621826C-16.530704,-0.747095,-16.747143,-0.926001,-16.916748,-1.145508L-16.916748,1.408203L-17.795654,1.408203L-17.795654,-5.75L-16.980225,-5.75L-16.980225,-5.100586L-16.843506,-5.280273C-16.466745,-5.722897,-15.888288,-5.940417,-15.313232,-5.855713zM-11.331543,1.408203L-12.210449,1.408203L-12.210449,-5.75L-11.331543,-5.75L-11.331543,1.408203zM-2.244629,-5.855225L-2.027344,-5.819092C-1.609349,-5.723998,-1.247995,-5.462789,-1.026611,-5.095703L-1.026611,-5.75L-0.211182,-5.75L-0.211182,1.408203L-1.085205,1.408203L-1.085205,-1.160156L-1.208496,-1.009033C-1.620904,-0.564786,-2.231544,-0.360901,-2.828125,-0.468262C-3.563481,-0.566379,-4.18607,-1.059876,-4.449463,-1.753418C-4.80714,-2.660535,-4.797512,-3.670666,-4.422607,-4.570801C-4.05773,-5.430757,-3.173758,-5.952064,-2.244629,-5.855225zM31.687988,-2.917969C31.664928,-2.526392,31.744015,-2.135506,31.91748,-1.783691C32.175713,-1.407473,32.609001,-1.190462,33.064941,-1.208984C33.480553,-1.179663,33.870392,-1.412593,34.041504,-1.79248C34.121479,-2.052361,34.156162,-2.324066,34.144043,-2.595703L34.144043,-5.75L35.022949,-5.75C35.033981,-4.592938,35.033005,-3.436319,35.02002,-2.279297C35.049801,-1.848253,34.937588,-1.418951,34.700684,-1.057617C34.392891,-0.699061,33.952126,-0.482425,33.480225,-0.457764C32.832146,-0.366207,32.181396,-0.60848,31.750977,-1.101563L31.600098,-1.301758L31.600098,-0.564453L30.809082,-0.564453L30.809082,-5.75L31.687988,-5.75L31.687988,-2.917969zM-31.692627,-5.859375L-31.49292,-5.835693C-30.632193,-5.69809,-29.949432,-5.036214,-29.785156,-4.180176L-29.742676,-3.962891L-30.606934,-3.850586L-30.669189,-4.158936C-30.802235,-4.804007,-31.416557,-5.233599,-32.068115,-5.137207C-32.659107,-5.076958,-33.141335,-4.637354,-33.255859,-4.054443C-33.41473,-3.403149,-33.393299,-2.721089,-33.193848,-2.081055C-32.965786,-1.447102,-32.313835,-1.069255,-31.650391,-1.186523C-31.226534,-1.258613,-30.879322,-1.56359,-30.753174,-1.974609L-30.680176,-2.219727L-29.825684,-2.087891C-29.960859,-1.159617,-30.751717,-0.466336,-31.689697,-0.453857C-32.409473,-0.381808,-33.123127,-0.640045,-33.630127,-1.156006C-33.997433,-1.617165,-34.211262,-2.181258,-34.241943,-2.77002C-34.311489,-3.378481,-34.230675,-3.994742,-34.006592,-4.564697C-33.642002,-5.392722,-32.804565,-5.910717,-31.900879,-5.867188L-31.692627,-5.859375zM3.607666,-5.860352L3.818359,-5.839844C4.72335,-5.742807,5.466918,-5.080243,5.667236,-4.192383L4.759033,-4.080078L4.650146,-4.3396C4.382288,-4.942558,3.722395,-5.269066,3.080566,-5.116211C2.435865,-4.974256,1.951255,-4.439676,1.873047,-3.78418C1.847714,-3.651326,1.831482,-3.516901,1.824463,-3.381836L5.69165,-3.381836C5.749125,-2.747229,5.622008,-2.109275,5.325684,-1.545166C4.861998,-0.764173,3.975671,-0.336109,3.075684,-0.458496C2.050537,-0.537012,1.204536,-1.29248,1.010986,-2.302246C0.83348,-3.054672,0.891249,-3.843243,1.176514,-4.561768C1.525917,-5.322585,2.27331,-5.822987,3.109863,-5.856201C3.275491,-5.869301,3.441842,-5.870688,3.607666,-5.860352zM26.938477,-5.856445L27.184814,-5.824463C27.711765,-5.722962,28.199762,-5.475496,28.593018,-5.110352L28.618652,-5.287598C28.646442,-5.448087,28.697008,-5.603798,28.768799,-5.75L29.686768,-5.75C29.496733,-5.389442,29.405487,-4.984861,29.422363,-4.577637C29.409088,-3.689341,29.400757,-2.798197,29.397461,-1.909668L29.383789,-1.729492C29.34955,-1.202005,28.988188,-0.75145,28.480713,-0.603516C27.659992,-0.349041,26.776163,-0.394447,25.98584,-0.731689C25.560221,-0.938438,25.247267,-1.322616,25.130859,-1.78125L25.062744,-2.043945L25.922119,-2.161133L26.002441,-1.90625C26.13517,-1.476621,26.535217,-1.184338,26.984863,-1.188477C27.359287,-1.134797,27.741261,-1.188119,28.08667,-1.342285C28.332722,-1.462714,28.49444,-1.707159,28.509033,-1.980713C28.526007,-2.139554,28.5296,-2.299541,28.519775,-2.458984C27.928673,-2.631947,27.321411,-2.744105,26.70752,-2.793701L26.49585,-2.826416C25.977985,-2.873558,25.501772,-3.130456,25.177979,-3.537354C24.752224,-4.132595,24.834576,-4.951198,25.370361,-5.449707C25.740019,-5.749172,26.209118,-5.898273,26.683838,-5.867188L26.938477,-5.856445zM-8.261475,-5.856445L-8.015137,-5.824463C-7.488185,-5.722961,-7.00019,-5.475494,-6.606934,-5.110352L-6.581299,-5.287598C-6.553504,-5.448086,-6.502942,-5.603797,-6.431152,-5.75L-5.513184,-5.75C-5.703246,-5.389451,-5.794493,-4.984865,-5.777588,-4.577637C-5.790878,-3.689333,-5.79921,-2.79812,-5.80249,-1.909668L-5.816406,-1.729492C-5.850417,-1.201996,-6.211744,-0.751363,-6.719238,-0.603516C-7.539959,-0.349041,-8.423789,-0.394448,-9.214111,-0.731689C-9.639722,-0.938509,-9.952728,-1.32264,-10.069336,-1.78125L-10.137207,-2.043945L-9.277832,-2.161133L-9.19751,-1.90625C-9.064781,-1.476621,-8.664733,-1.184339,-8.215088,-1.188477C-7.840663,-1.134797,-7.458691,-1.188119,-7.113281,-1.342285C-6.86723,-1.462715,-6.705513,-1.70716,-6.690918,-1.980713C-6.673944,-2.139553,-6.670351,-2.299542,-6.680176,-2.458984C-7.271279,-2.631948,-7.878541,-2.744107,-8.492432,-2.793701L-8.704102,-2.826416C-9.221967,-2.873558,-9.698181,-3.130456,-10.021973,-3.537354C-10.447729,-4.132594,-10.365376,-4.951198,-9.82959,-5.449707C-9.459943,-5.749194,-8.990837,-5.898296,-8.516113,-5.867188L-8.261475,-5.856445zM7.687988,-2.917969C7.664928,-2.526392,7.744014,-2.135507,7.91748,-1.783691C8.175714,-1.407472,8.609001,-1.19046,9.064941,-1.208984C9.480554,-1.179665,9.870393,-1.412594,10.041504,-1.79248C10.121477,-2.052361,10.156162,-2.324064,10.144043,-2.595703L10.144043,-5.75L11.022949,-5.75C11.033981,-4.592936,11.033005,-3.436322,11.02002,-2.279297C11.049802,-1.848254,10.937586,-1.418951,10.700684,-1.057617C10.39289,-0.69906,9.952127,-0.482425,9.480225,-0.457764C8.832145,-0.366207,8.181396,-0.60848,7.750977,-1.101563L7.600098,-1.301758L7.600098,-0.564453L6.809082,-0.564453L6.809082,-5.75L7.687988,-5.75L7.687988,-2.917969zM-21.384766,-5.853516L-21.14502,-5.812256C-20.669611,-5.695126,-20.257088,-5.400213,-19.992432,-4.988281L-19.992432,-5.75L-19.206299,-5.75L-19.206299,-0.564453L-20.085205,-0.564453L-20.085205,-3.342773C-20.069817,-3.686513,-20.118668,-4.030125,-20.229248,-4.355957C-20.519316,-4.948308,-21.192743,-5.245688,-21.825928,-5.061035C-22.205954,-4.951675,-22.476332,-4.615123,-22.501221,-4.220459C-22.523991,-3.961092,-22.534096,-3.700781,-22.531494,-3.44043L-22.531494,-0.564453L-23.4104,-0.564453C-23.424355,-1.722778,-23.423225,-2.880992,-23.406982,-4.039307C-23.430603,-4.466435,-23.318064,-4.890345,-23.085693,-5.249512C-22.720068,-5.662154,-22.188837,-5.8888,-21.637939,-5.867188L-21.384766,-5.853516zM1.873291,-2.65918C1.878441,-2.153876,2.13058,-1.682621,2.548096,-1.397949C3.059646,-1.066451,3.7238,-1.08946,4.211182,-1.455566C4.491823,-1.67712,4.676287,-1.998468,4.726074,-2.352539L4.768799,-2.65918L1.873291,-2.65918zM-15.7854,-5.134033C-16.389618,-5.021326,-16.850704,-4.531333,-16.926514,-3.921387C-17.047783,-3.318434,-17.013161,-2.694479,-16.825928,-2.108643C-16.645075,-1.565586,-16.145952,-1.191342,-15.573975,-1.169922C-15.013144,-1.187062,-14.524463,-1.556092,-14.354492,-2.09082C-14.110315,-2.833791,-14.138252,-3.638783,-14.43335,-4.363037C-14.667934,-4.886778,-15.215197,-5.198851,-15.7854,-5.134033zM-2.53418,-5.136719C-3.11096,-5.039093,-3.571227,-4.603117,-3.699951,-4.032471C-3.88005,-3.335345,-3.839467,-2.600073,-3.58374,-1.927002C-3.317894,-1.323475,-2.631401,-1.026055,-2.009277,-1.244873C-1.550725,-1.42804,-1.214691,-1.828989,-1.114502,-2.3125C-0.953553,-2.951123,-0.972479,-3.621715,-1.169189,-4.250244C-1.362092,-4.827516,-1.928353,-5.195266,-2.53418,-5.136719zM38.265869,-5.136719C37.689079,-5.03911,37.228806,-4.603127,37.100098,-4.032471C36.919952,-3.335347,36.960537,-2.600067,37.216309,-1.927002C37.482136,-1.323454,38.168644,-1.026029,38.790771,-1.244873C39.249325,-1.428039,39.585358,-1.828989,39.685547,-2.3125C39.846607,-2.951125,39.827595,-3.62177,39.630615,-4.250244C39.437897,-4.827545,38.871658,-5.195342,38.265869,-5.136719zM14.767578,-2.717773L12.067383,-2.717773L12.067383,-3.601563L14.767578,-3.601563L14.767578,-2.717773zM-8.547119,-5.164063C-8.921727,-5.149714,-9.242341,-4.890241,-9.334473,-4.526855C-9.416613,-4.164998,-9.225455,-3.796515,-8.882324,-3.655273C-8.715487,-3.592973,-8.542848,-3.547585,-8.366943,-3.519775L-7.667236,-3.407471C-7.329992,-3.355822,-6.999098,-3.268659,-6.680176,-3.147461C-6.6572,-3.494382,-6.684086,-3.842838,-6.76001,-4.182129C-6.923968,-4.662519,-7.329373,-5.02031,-7.826416,-5.123291C-8.062382,-5.179185,-8.306355,-5.192987,-8.547119,-5.164063zM26.652832,-5.164063C26.278223,-5.149713,25.957609,-4.890242,25.865479,-4.526855C25.783342,-4.164998,25.974499,-3.796516,26.317627,-3.655273C26.484465,-3.592973,26.657104,-3.547585,26.833008,-3.519775L27.532715,-3.407471C27.869961,-3.355822,28.200853,-3.268659,28.519775,-3.147461C28.542889,-3.494368,28.516085,-3.842837,28.440186,-4.182129C28.276014,-4.662467,27.870577,-5.020205,27.373535,-5.123291C27.137569,-5.179182,26.893597,-5.192986,26.652832,-5.164063z"/>
    <path transform="matrix(1,0,0,-1,349.831451,-115.784607)" style="stroke:#000000;stroke-width:0.05mm;fill:none" d="M9.196289,-0.129883L9.413574,-0.098389C9.828251,-0.018946,10.201814,0.203878,10.46875,0.531006L10.46875,0L12.696533,0L12.696533,8.459473L12.099609,8.40332C11.557237,8.356785,11.013117,8.332756,10.46875,8.331299L10.46875,5.560303L10.334961,5.739014C9.969691,6.186079,9.392917,6.40414,8.823242,6.310547C8.078203,6.249676,7.440326,5.751202,7.201172,5.042969C6.942668,4.276621,6.84033,3.46647,6.900146,2.659912C6.903469,2.041905,7.036031,1.431406,7.289307,0.867676C7.592256,0.22259,8.255487,-0.17585,8.967285,-0.140381L9.196289,-0.129883zM-9.125,-0.123047L-8.764648,-0.089355C-8.161933,-0.038285,-7.589459,0.196978,-7.125,0.584473C-6.711242,0.976385,-6.447617,1.500784,-6.379883,2.06665C-6.345679,2.28961,-6.329026,2.514914,-6.330078,2.740479L-6.330078,8.331299L-7.141846,8.331299L-7.141846,2.740479C-7.113735,2.269079,-7.222918,1.799348,-7.456055,1.388672C-7.709133,1.01111,-8.130528,0.780454,-8.584961,0.770752C-8.988539,0.714751,-9.399721,0.791569,-9.755859,0.989502C-9.994884,1.1717,-10.148974,1.443961,-10.182129,1.742676C-10.239557,2.047408,-10.265897,2.357182,-10.260742,2.667236L-10.260742,8.331299L-12.677734,8.331299L-12.677734,2.740479C-12.704907,2.125464,-12.549902,1.516058,-12.232178,0.98877C-11.913957,0.524657,-11.439851,0.189934,-10.895996,0.04541C-10.319322,-0.110044,-9.720637,-0.16699,-9.125,-0.123047zM4.006348,-0.13208L4.276855,-0.107178C4.806997,-0.068985,5.306091,0.158545,5.682617,0.533691C6.028636,0.941036,6.223019,1.455367,6.23291,1.989746L5.335693,2.252197C5.395464,1.82841,5.344032,1.395992,5.186523,0.998047C5.048638,0.717743,4.779316,0.525174,4.469482,0.485352C4.147486,0.406189,3.806795,0.486004,3.553467,0.699951C3.268351,1.010101,3.091832,1.40425,3.050293,1.823486C2.995772,2.173246,2.970132,2.526893,2.973633,2.880859L6.220703,2.880859C6.247356,3.598856,6.119468,4.314227,5.845703,4.978516C5.497686,5.761941,4.73315,6.278804,3.876465,6.309814C2.741066,6.450042,1.636143,5.873274,1.102051,4.861572C0.732616,4.15325,0.576995,3.353009,0.654053,2.557861C0.668481,1.937385,0.869529,1.335602,1.230957,0.831055C1.595136,0.38271,2.105694,0.076946,2.672852,-0.032471C3.110739,-0.126294,3.559383,-0.159807,4.006348,-0.13208zM-2.30957,-0.138428L-2.010254,-0.114014C-1.519589,-0.080782,-1.047767,0.0881,-0.647461,0.373779C-0.254215,0.697714,-0.017685,1.173793,0.00293,1.682861C0.073802,2.28444,-0.170569,2.880549,-0.643311,3.259277C-0.993453,3.558009,-1.38715,3.801537,-1.810791,3.981445L-2.379639,4.225586C-2.688925,4.351319,-2.975145,4.527639,-3.226563,4.747314C-3.448372,4.941108,-3.48311,5.273574,-3.306152,5.509033C-3.132228,5.694177,-2.882349,5.78751,-2.629639,5.761719C-2.355818,5.776618,-2.083624,5.708973,-1.848633,5.567627C-1.56594,5.368102,-1.389076,5.050932,-1.36792,4.705566L-1.3479,4.382324L-0.267578,4.571533C-0.320555,5.437841,-0.987802,6.143078,-1.849854,6.243896C-2.685377,6.410524,-3.552627,6.280972,-4.302979,5.877441C-4.934919,5.544626,-5.304996,4.863647,-5.240479,4.152344C-5.17283,3.635002,-4.899703,3.166797,-4.482666,2.853271C-4.029025,2.499408,-3.523546,2.217434,-2.984131,2.017334L-2.719971,1.883057C-2.468191,1.764909,-2.246099,1.591791,-2.070068,1.376465C-1.929986,1.129456,-1.979792,0.819376,-2.190186,0.628662C-2.365208,0.502379,-2.579196,0.441857,-2.794434,0.457764C-3.473551,0.437628,-4.080842,0.877162,-4.273926,1.528564C-4.306753,1.739965,-4.307986,1.954985,-4.277588,2.166748L-5.425049,1.934814C-5.456509,1.406256,-5.261877,0.888778,-4.889893,0.511963C-4.521283,0.190575,-4.064936,-0.013237,-3.57959,-0.073242C-3.15976,-0.140009,-2.734024,-0.161861,-2.30957,-0.138428zM2.967529,3.570557L2.991943,4.125977C2.99386,4.532536,3.061888,4.936084,3.193359,5.320801C3.24047,5.485585,3.357194,5.622032,3.512695,5.694092C3.696163,5.760683,3.900876,5.681779,3.992188,5.509277C4.179446,5.134027,4.276433,4.72016,4.275391,4.300781C4.291255,4.057718,4.29883,3.814146,4.298096,3.570557L2.967529,3.570557zM9.71582,0.774658L9.586914,0.828125C9.40407,0.963965,9.288435,1.171929,9.269531,1.398926C9.241227,1.563808,9.227908,1.73091,9.229736,1.898193C9.189674,2.810698,9.198719,3.724688,9.256836,4.63623C9.256156,4.868129,9.329932,5.09416,9.467285,5.281006C9.623092,5.439494,9.865796,5.472864,10.058594,5.362305C10.276901,5.185339,10.411687,4.926102,10.431152,4.645752L10.462646,4.406738L10.511475,3.381348C10.507446,2.792874,10.494102,2.20478,10.471436,1.616699C10.471832,1.363972,10.39075,1.117813,10.240234,0.914795C10.105234,0.773996,9.90306,0.71997,9.71582,0.774658zM9.075684,-6.934814L9.286377,-6.897217C9.64508,-6.831605,9.897084,-6.5055,9.870117,-6.141846C9.89709,-5.77819,9.645081,-5.452084,9.286377,-5.386475C8.926457,-5.295479,8.547183,-5.317473,8.200195,-5.449463C7.93425,-5.573539,7.772891,-5.849209,7.794922,-6.141846C7.767974,-6.505491,8.019975,-6.831586,8.378662,-6.897217C8.607364,-6.948035,8.842843,-6.960736,9.075684,-6.934814zM-17.9104,-14.016357L-17.587158,-13.982666C-16.823669,-13.902697,-16.123644,-13.52104,-15.642822,-12.922607C-14.911201,-11.908816,-15.028762,-10.51333,-15.919678,-9.63623C-16.463661,-9.128248,-17.106564,-8.738152,-17.80835,-8.490234L-18.171875,-8.357422C-18.592106,-8.229368,-18.987013,-8.02956,-19.339111,-7.766846C-19.706409,-7.515493,-19.835054,-7.0323,-19.641357,-6.631592C-19.501694,-6.364107,-19.243572,-6.178439,-18.945557,-6.131104C-18.383093,-6.002878,-17.794807,-6.052435,-17.261719,-6.272949C-16.852411,-6.475374,-16.589476,-6.888694,-16.57959,-7.345215C-16.564226,-7.593022,-16.586617,-7.841686,-16.645996,-8.082764L-15.522949,-7.875244C-15.499729,-7.345979,-15.634157,-6.821692,-15.90918,-6.368896C-16.248384,-5.897069,-16.762165,-5.580713,-17.336182,-5.490234C-18.138132,-5.32096,-18.971565,-5.383878,-19.739014,-5.671631C-20.479855,-5.953439,-21.028486,-6.590921,-21.196777,-7.365479C-21.417427,-8.42256,-20.978428,-9.509252,-20.085449,-10.116455C-19.686018,-10.398567,-19.249535,-10.624079,-18.78833,-10.786621L-18.38916,-10.947021C-17.987019,-11.100706,-17.623663,-11.34111,-17.324951,-11.651123C-17.017242,-12.015404,-17.000868,-12.543368,-17.2854,-12.926025C-17.439581,-13.111056,-17.650473,-13.239838,-17.885498,-13.29248C-18.454422,-13.432827,-19.053682,-13.380722,-19.589844,-13.144287C-20.009661,-12.91585,-20.272675,-12.47768,-20.276855,-11.999756C-20.293669,-11.625519,-20.250652,-11.251055,-20.149414,-10.890381L-21.315186,-11.146729C-21.418715,-11.743011,-21.3232,-12.357128,-21.043457,-12.893799C-20.71653,-13.402686,-20.197773,-13.757504,-19.60498,-13.877686C-19.049982,-14.006975,-18.479031,-14.053697,-17.9104,-14.016357zM-0.0354,-14.016357L0.287842,-13.982666C1.05133,-13.902697,1.751356,-13.52104,2.232178,-12.922607C2.963815,-11.90882,2.846254,-10.513326,1.955322,-9.63623C1.411336,-9.128246,0.768437,-8.738153,0.06665,-8.490234L-0.296875,-8.357422C-0.717104,-8.22937,-1.112014,-8.029561,-1.464111,-7.766846C-1.831408,-7.515493,-1.960052,-7.032301,-1.766357,-6.631592C-1.626691,-6.364109,-1.368571,-6.178443,-1.070557,-6.131104C-0.50809,-6.002877,0.080195,-6.052434,0.613281,-6.272949C1.02259,-6.475374,1.285526,-6.888693,1.29541,-7.345215C1.310772,-7.593021,1.288383,-7.841685,1.229004,-8.082764L2.352051,-7.875244C2.375271,-7.345978,2.240843,-6.82169,1.96582,-6.368896C1.626629,-5.897052,1.112844,-5.580694,0.538818,-5.490234C-0.263132,-5.32096,-1.096566,-5.383879,-1.864014,-5.671631C-2.604855,-5.953441,-3.153485,-6.590921,-3.321777,-7.365479C-3.542423,-8.42256,-3.103426,-9.509251,-2.210449,-10.116455C-1.811019,-10.398566,-1.374538,-10.624078,-0.91333,-10.786621L-0.51416,-10.947021C-0.112017,-11.100703,0.251339,-11.341106,0.550049,-11.651123C0.857756,-12.015405,0.874134,-12.54337,0.5896,-12.926025C0.435418,-13.111056,0.224528,-13.239839,-0.010498,-13.29248C-0.579422,-13.432828,-1.178681,-13.380722,-1.714844,-13.144287C-2.13466,-12.91585,-2.397674,-12.477681,-2.401855,-11.999756C-2.41843,-11.625525,-2.375418,-11.251106,-2.274414,-10.890381L-3.440186,-11.146729C-3.543712,-11.743012,-3.448196,-12.357126,-3.168457,-12.893799C-2.841529,-13.402686,-2.322773,-13.757504,-1.72998,-13.877686C-1.174984,-14.006975,-0.604031,-14.053698,-0.0354,-14.016357zM19.513428,-11.665527L19.922363,-11.165039L20.990479,-13.875L23.340332,-13.875L21.509277,-9.315674L22.778809,-7.722656L21.887695,-7.722656L19.513428,-10.621826L19.513428,-5.409424L18.907227,-5.468262C18.368044,-5.516865,17.827026,-5.542034,17.285645,-5.543701L17.285645,-13.875L19.513428,-13.875L19.513428,-11.665527zM-25.125,-13.998047L-24.764648,-13.964355C-24.161932,-13.913281,-23.589458,-13.67802,-23.125,-13.290527C-22.711237,-12.898618,-22.447613,-12.374216,-22.379883,-11.80835C-22.34568,-11.585391,-22.329027,-11.360086,-22.330078,-11.134521L-22.330078,-5.543701L-23.141846,-5.543701L-23.141846,-11.134521C-23.113733,-11.605921,-23.222919,-12.07565,-23.456055,-12.486328C-23.709129,-12.863893,-24.130529,-13.094545,-24.584961,-13.104248C-24.988541,-13.160269,-25.399731,-13.083456,-25.755859,-12.885498C-25.994804,-12.703337,-26.148882,-12.431187,-26.182129,-12.132568C-26.239536,-11.827751,-26.265875,-11.517898,-26.260742,-11.207764L-26.260742,-5.543701L-28.677734,-5.543701L-28.677734,-11.134521C-28.704906,-11.749536,-28.5499,-12.358941,-28.232178,-12.88623C-27.913961,-13.350348,-27.439854,-13.685075,-26.895996,-13.82959C-26.319321,-13.985044,-25.720638,-14.041988,-25.125,-13.998047zM-9.63916,-13.866455L-9.322021,-13.840332C-8.801516,-13.80527,-8.301141,-13.625399,-7.877441,-13.321045C-7.460008,-12.975689,-7.209328,-12.46909,-7.187988,-11.927734C-7.113849,-11.372874,-7.252275,-10.810362,-7.575439,-10.353271C-7.942917,-9.917515,-8.447423,-9.619253,-9.006348,-9.507324L-9.258301,-9.449951L-9.049072,-9.394775C-8.529708,-9.279708,-8.073434,-8.970634,-7.773926,-8.531006C-7.350123,-7.767945,-7.473679,-6.819663,-8.078857,-6.190674C-8.460857,-5.872867,-8.92708,-5.673009,-9.420654,-5.615479C-9.742558,-5.565954,-10.06787,-5.541954,-10.393555,-5.543701L-14.098389,-5.543701L-14.098389,-13.875L-9.978516,-13.875L-9.63916,-13.866455zM5.801758,-13.927002L6.100586,-13.881836C6.510505,-13.825439,6.867519,-13.572139,7.056152,-13.203857L7.139648,-12.977783L6.504883,-12.916748L6.477051,-13.036865C6.45555,-13.128413,6.373082,-13.192785,6.279053,-13.191406C6.150146,-13.18891,6.044169,-13.089869,6.032959,-12.961426L6.016602,-12.782471L6.016602,-8.430664L7.005371,-8.430664L7.005371,-7.740967L6.016602,-7.740967L6.016602,-5.739014L5.474609,-6.020508C4.933053,-6.282495,4.368803,-6.494712,3.788818,-6.654541L3.788818,-7.740967L3.044189,-7.740967L3.044189,-8.430664L3.788818,-8.430664L3.788818,-12.513916C3.748477,-12.96553,3.950726,-13.40536,4.319824,-13.668701C4.66849,-13.867358,5.0665,-13.962202,5.467285,-13.942139L5.801758,-13.927002zM-11.681396,-9.169189L-11.681396,-6.233398C-11.36811,-6.213885,-11.05373,-6.221236,-10.741699,-6.255371C-10.350077,-6.327363,-10.044135,-6.634474,-9.973633,-7.026367C-9.855463,-7.539165,-9.881999,-8.07464,-10.050293,-8.573242C-10.180477,-8.946692,-10.541804,-9.1896,-10.936768,-9.169189L-11.681396,-9.169189zM14.241943,-14.000244L14.532471,-13.972656C15.019276,-13.930746,15.481131,-13.738806,15.854248,-13.42334C16.247141,-13.031979,16.473179,-12.503885,16.485107,-11.949463C16.497028,-11.771635,16.498331,-11.593261,16.489014,-11.415283L15.549072,-11.128418C15.663967,-11.650493,15.647522,-12.193118,15.501221,-12.707275C15.351294,-13.189741,14.887034,-13.504857,14.383301,-13.466064C13.912492,-13.490941,13.493224,-13.16808,13.396973,-12.706543C13.227139,-11.937772,13.164208,-11.149261,13.209961,-10.363281C13.200325,-9.807355,13.298252,-9.254619,13.498291,-8.73584C13.611093,-8.406371,13.893013,-8.162735,14.235352,-8.098877C14.619826,-8.017956,15.005515,-8.233763,15.137695,-8.60376C15.226923,-8.86201,15.269086,-9.134082,15.262207,-9.407227L15.25,-9.993164L16.293701,-9.486572C16.324177,-9.009089,16.178146,-8.536667,15.883545,-8.159668C15.56001,-7.819345,15.121794,-7.61137,14.653564,-7.575928C13.927483,-7.473237,13.187147,-7.58758,12.525879,-7.904541C11.660522,-8.367628,11.072495,-9.220608,10.94751,-10.194092C10.810198,-10.987445,10.893738,-11.80342,11.188965,-12.55249C11.503115,-13.25507,12.142237,-13.759117,12.898682,-13.900879C13.339597,-13.996616,13.791743,-14.030062,14.241943,-14.000244zM9.931152,-7.563965L9.3479,-7.635986C8.801804,-7.696645,8.252825,-7.727615,7.703369,-7.72876L7.703369,-13.875L9.931152,-13.875L9.931152,-7.563965zM26.69043,-14.013428L26.989746,-13.989014C27.480427,-13.955861,27.952271,-13.786968,28.352539,-13.501221C28.745779,-13.17728,28.982309,-12.701205,29.00293,-12.192139C29.073803,-11.59056,28.829432,-10.99445,28.356689,-10.615723C28.006548,-10.316991,27.612852,-10.073463,27.189209,-9.893555L26.620361,-9.649414C26.31109,-9.523651,26.024872,-9.347336,25.773438,-9.127686C25.55163,-8.93389,25.51689,-8.601426,25.693848,-8.365967C25.867788,-8.180853,26.117659,-8.087525,26.370361,-8.113281C26.644182,-8.098386,26.916376,-8.166028,27.151367,-8.307373C27.434057,-8.5069,27.610924,-8.824068,27.63208,-9.169434L27.6521,-9.492676L28.732422,-9.303467C28.67944,-8.43716,28.012196,-7.731926,27.150146,-7.631104C26.314623,-7.464482,25.447376,-7.594035,24.697021,-7.997559C24.065098,-8.33039,23.695024,-9.011359,23.759521,-9.722656C23.827158,-10.240004,24.100285,-10.708211,24.517334,-11.021729C24.971037,-11.375565,25.476496,-11.657609,26.015869,-11.85791L26.280029,-11.992188C26.531935,-12.110129,26.754072,-12.28328,26.929932,-12.498779C27.070009,-12.74571,27.020206,-13.055727,26.809814,-13.246338C26.634796,-13.37263,26.420805,-13.433156,26.205566,-13.417236C25.526487,-13.43722,24.919292,-12.997753,24.726074,-12.346436C24.693258,-12.135035,24.69202,-11.920015,24.722412,-11.708252L23.574951,-11.940186C23.543486,-12.468743,23.738119,-12.986223,24.110107,-13.363037C24.478729,-13.684404,24.93507,-13.888221,25.42041,-13.948242C25.840235,-14.015009,26.265976,-14.036861,26.69043,-14.013428zM-11.681396,-13.185303L-11.681396,-9.858887C-11.409363,-9.850176,-11.137084,-9.852457,-10.865234,-9.865723C-10.300754,-9.890821,-9.827407,-10.302391,-9.724121,-10.85791C-9.567904,-11.42766,-9.60411,-12.032774,-9.827148,-12.579834C-10.027216,-12.946297,-10.410132,-13.175691,-10.827637,-13.179199C-11.112054,-13.191818,-11.396823,-13.193853,-11.681396,-13.185303zM-3.849121,-9.889404L-6.852051,-9.889404L-6.852051,-11.494629L-3.849121,-11.494629L-3.849121,-9.889404z"/>
    <path transform="matrix(1,0,0,-1,288.700012,-765.099976)" style="stroke:#000000;stroke-width:0.05mm;fill:none" d="M115.400002,-596.599976L127.699997,-596.599976C127.800003,-596.599976,127.699997,-596.5,127.699997,-596.599976L127.699997,-600.5C127.699997,-600.554993,127.745003,-600.599976,127.800003,-600.599976L135.800003,-600.599976C135.854996,-600.599976,135.899994,-600.554993,135.899994,-600.5L135.899994,-596.599976C135.899994,-596.5,135.800003,-596.599976,135.899994,-596.599976L143.699997,-596.599976C143.800003,-596.599976,143.699997,-596.5,143.699997,-596.599976L143.699997,-600.5C143.699997,-600.554993,143.744995,-600.599976,143.800003,-600.599976L151.800003,-600.599976C151.854996,-600.599976,151.899994,-600.554993,151.899994,-600.5L151.899994,-596.599976C151.899994,-596.5,151.800003,-596.599976,151.899994,-596.599976L159.699997,-596.599976C159.800003,-596.599976,159.699997,-596.5,159.699997,-596.599976L159.699997,-600.5C159.699997,-600.554993,159.744995,-600.599976,159.800003,-600.599976L167.800003,-600.599976C167.854996,-600.599976,167.899994,-600.554993,167.899994,-600.5L167.899994,-596.599976C167.899994,-596.5,167.800003,-596.599976,167.899994,-596.599976L175.699997,-596.599976C175.800003,-596.599976,175.699997,-596.5,175.699997,-596.599976L175.699997,-600.5C175.699997,-600.554993,175.744995,-600.599976,175.800003,-600.599976L183.800003,-600.599976C183.854996,-600.599976,183.899994,-600.554993,183.899994,-600.5L183.899994,-596.599976C183.899994,-596.5,183.800003,-596.599976,183.899994,-596.599976L191.699997,-596.599976C191.800003,-596.599976,191.699997,-596.5,191.699997,-596.599976L191.699997,-600.5C191.699997,-600.554993,191.744995,-600.599976,191.800003,-600.599976L199.800003,-600.599976C199.854996,-600.599976,199.899994,-600.554993,199.899994,-600.5L199.899994,-596.599976C199.899994,-596.5,199.800003,-596.599976,199.899994,-596.599976L207.699997,-596.599976C207.800003,-596.599976,207.699997,-596.5,207.699997,-596.599976L207.699997,-600.5C207.699997,-600.554993,207.744995,-600.599976,207.800003,-600.599976L215.800003,-600.599976C215.854996,-600.599976,215.899994,-600.554993,215.899994,-600.5L215.899994,-596.599976C215.899994,-596.5,215.800003,-596.599976,215.899994,-596.599976L223.699997,-596.599976C223.800003,-596.599976,223.699997,-596.5,223.699997,-596.599976L223.699997,-600.5C223.699997,-600.554993,223.744995,-600.599976,223.800003,-600.599976L231.800003,-600.599976C231.854996,-600.599976,231.899994,-600.554993,231.899994,-600.5L231.899994,-596.599976C231.899994,-596.5,231.800003,-596.599976,231.899994,-596.599976L239.699997,-596.599976C239.800003,-596.599976,239.699997,-596.5,239.699997,-596.599976L239.699997,-600.5C239.699997,-600.554993,239.744995,-600.599976,239.800003,-600.599976L247.800003,-600.599976C247.854996,-600.599976,247.899994,-600.554993,247.899994,-600.5L247.899994,-596.599976C247.899994,-596.5,247.800003,-596.599976,247.899994,-596.599976L260.200012,-596.599976C260.255005,-596.599976,260.299988,-596.554993,260.299988,-596.5L260.299988,-583.200012C260.299988,-583.099976,260.200012,-583.200012,260.299988,-583.200012L264.200012,-583.200012C264.255005,-583.200012,264.299988,-583.155029,264.299988,-583.099976L264.299988,-575.099976C264.299988,-575.044983,264.255005,-575,264.200012,-575L260.299988,-575C260.200012,-575,260.299988,-575.099976,260.299988,-575L260.299988,-567.200012C260.299988,-567.099976,260.200012,-567.200012,260.299988,-567.200012L264.200012,-567.200012C264.255005,-567.200012,264.299988,-567.155029,264.299988,-567.099976L264.299988,-559.099976C264.299988,-559.044983,264.255005,-559,264.200012,-559L260.299988,-559C260.200012,-559,260.299988,-559.099976,260.299988,-559L260.299988,-551.200012C260.299988,-551.099976,260.200012,-551.200012,260.299988,-551.200012L264.200012,-551.200012C264.255005,-551.200012,264.299988,-551.155029,264.299988,-551.099976L264.299988,-543.099976C264.299988,-543.044983,264.255005,-543,264.200012,-543L260.299988,-543C260.200012,-543,260.299988,-543.099976,260.299988,-543L260.299988,-535.200012C260.299988,-535.099976,260.200012,-535.200012,260.299988,-535.200012L264.200012,-535.200012C264.255005,-535.200012,264.299988,-535.155029,264.299988,-535.099976L264.299988,-527.099976C264.299988,-527.044983,264.255005,-527,264.200012,-527L260.299988,-527C260.200012,-527,260.299988,-527.099976,260.299988,-527L260.299988,-519.200012C260.299988,-519.099976,260.200012,-519.200012,260.299988,-519.200012L264.200012,-519.200012C264.255005,-519.200012,264.299988,-519.155029,264.299988,-519.099976L264.299988,-511.100006C264.299988,-511.045013,264.255005,-511,264.200012,-511L260.299988,-511C260.200012,-511,260.299988,-511.100006,260.299988,-511L260.299988,-503.200012C260.299988,-503.100006,260.200012,-503.200012,260.299988,-503.200012L264.200012,-503.200012C264.255005,-503.200012,264.299988,-503.154999,264.299988,-503.100006L264.299988,-495.100006C264.299988,-495.045013,264.255005,-495,264.200012,-495L260.299988,-495C260.200012,-495,260.299988,-495.100006,260.299988,-495L260.299988,-481.700012C260.299988,-481.644989,260.255005,-481.600006,260.200012,-481.600006L115.400002,-481.600006C115.345001,-481.600006,115.300003,-481.644989,115.300003,-481.700012L115.300003,-495C115.300003,-495.100006,115.400002,-495,115.300003,-495L111.400002,-495C111.345001,-495,111.300003,-495.045013,111.300003,-495.100006L111.300003,-503.100006C111.300003,-503.154999,111.345001,-503.200012,111.400002,-503.200012L115.300003,-503.200012C115.400002,-503.200012,115.300003,-503.100006,115.300003,-503.200012L115.300003,-511C115.300003,-511.100006,115.400002,-511,115.300003,-511L111.400002,-511C111.345001,-511,111.300003,-511.045013,111.300003,-511.100006L111.300003,-519.099976C111.300003,-519.155029,111.345001,-519.200012,111.400002,-519.200012L115.300003,-519.200012C115.400002,-519.200012,115.300003,-519.099976,115.300003,-519.200012L115.300003,-527C115.300003,-527.099976,115.400002,-527,115.300003,-527L111.400002,-527C111.345001,-527,111.300003,-527.044983,111.300003,-527.099976L111.300003,-535.099976C111.300003,-535.155029,111.345001,-535.200012,111.400002,-535.200012L115.300003,-535.200012C115.400002,-535.200012,115.300003,-535.099976,115.300003,-535.200012L115.300003,-543C115.300003,-543.099976,115.400002,-543,115.300003,-543L111.400002,-543C111.345001,-543,111.300003,-543.044983,111.300003,-543.099976L111.300003,-551.099976C111.300003,-551.155029,111.345001,-551.200012,111.400002,-551.200012L115.300003,-551.200012C115.400002,-551.200012,115.300003,-551.099976,115.300003,-551.200012L115.300003,-559C115.300003,-559.099976,115.400002,-559,115.300003,-559L111.400002,-559C111.345001,-559,111.300003,-559.044983,111.300003,-559.099976L111.300003,-567.099976C111.300003,-567.155029,111.345001,-567.200012,111.400002,-567.200012L115.300003,-567.200012C115.400002,-567.200012,115.300003,-567.099976,115.300003,-567.200012L115.300003,-575C115.300003,-575.099976,115.400002,-575,115.300003,-575L111.400002,-575C111.345001,-575,111.300003,-575.044983,111.300003,-575.099976L111.300003,-583.099976C111.300003,-583.155029,111.345001,-583.200012,111.400002,-583.200012L115.300003,-583.200012C115.400002,-583.200012,115.300003,-583.099976,115.300003,-583.200012L115.300003,-596.5C115.300003,-596.554993,115.345001,-596.599976,115.400002,-596.599976z"/>
    <path transform="matrix(1,0,0,-1,288.700012,-765.099976)" style="stroke:#000000;stroke-width:0.05mm;fill:none" d="M14.4,-600.599976L23.799999,-600.599976C23.855,-600.599976,23.9,-600.554993,23.9,-600.5L23.9,-596.599976C23.9,-596.5,23.799999,-596.599976,23.9,-596.599976L31.700001,-596.599976C31.799999,-596.599976,31.700001,-596.5,31.700001,-596.599976L31.700001,-600.5C31.700001,-600.554993,31.745001,-600.599976,31.799999,-600.599976L39.799999,-600.599976C39.855,-600.599976,39.900002,-600.554993,39.900002,-600.5L39.900002,-596.599976C39.900002,-596.5,39.799999,-596.599976,39.900002,-596.599976L47.700001,-596.599976C47.799999,-596.599976,47.700001,-596.5,47.700001,-596.599976L47.700001,-600.5C47.700001,-600.554993,47.744999,-600.599976,47.799999,-600.599976L55.799999,-600.599976C55.855,-600.599976,55.900002,-600.554993,55.900002,-600.5L55.900002,-596.599976C55.900002,-596.5,55.799999,-596.599976,55.900002,-596.599976L63.700001,-596.599976C63.799999,-596.599976,63.700001,-596.5,63.700001,-596.599976L63.700001,-600.5C63.700001,-600.554993,63.744999,-600.599976,63.799999,-600.599976L71.800003,-600.599976C71.855003,-600.599976,71.900002,-600.554993,71.900002,-600.5L71.900002,-596.599976C71.900002,-596.5,71.800003,-596.599976,71.900002,-596.599976L79.699997,-596.599976C79.800003,-596.599976,79.699997,-596.5,79.699997,-596.599976L79.699997,-600.5C79.699997,-600.554993,79.745003,-600.599976,79.800003,-600.599976L87.800003,-600.599976C87.855003,-600.599976,87.900002,-600.554993,87.900002,-600.5L87.900002,-596.599976C87.900002,-596.5,87.800003,-596.599976,87.900002,-596.599976L95.699997,-596.599976C95.800003,-596.599976,95.699997,-596.5,95.699997,-596.599976L95.699997,-600.5C95.699997,-600.554993,95.745003,-600.599976,95.800003,-600.599976L105.199997,-600.599976L109.199997,-600.599976C109.254997,-600.599976,109.300003,-600.554993,109.300003,-600.5L109.300003,-596.5L109.300003,-583.099976C109.300003,-583.044983,109.254997,-583,109.199997,-583L105.300003,-583C105.199997,-583,105.300003,-583.099976,105.300003,-583L105.300003,-575.200012C105.300003,-575.099976,105.199997,-575.200012,105.300003,-575.200012L109.199997,-575.200012C109.254997,-575.200012,109.300003,-575.155029,109.300003,-575.099976L109.300003,-567.099976C109.300003,-567.044983,109.254997,-567,109.199997,-567L105.300003,-567C105.199997,-567,105.300003,-567.099976,105.300003,-567L105.300003,-559.200012C105.300003,-559.099976,105.199997,-559.200012,105.300003,-559.200012L109.199997,-559.200012C109.254997,-559.200012,109.300003,-559.155029,109.300003,-559.099976L109.300003,-551.099976C109.300003,-551.044983,109.254997,-551,109.199997,-551L105.300003,-551C105.199997,-551,105.300003,-551.099976,105.300003,-551L105.300003,-543.200012C105.300003,-543.099976,105.199997,-543.200012,105.300003,-543.200012L109.199997,-543.200012C109.254997,-543.200012,109.300003,-543.155029,109.300003,-543.099976L109.300003,-535.099976C109.300003,-535.044983,109.254997,-535,109.199997,-535L105.300003,-535C105.199997,-535,105.300003,-535.099976,105.300003,-535L105.300003,-527.200012C105.300003,-527.099976,105.199997,-527.200012,105.300003,-527.200012L109.199997,-527.200012C109.254997,-527.200012,109.300003,-527.155029,109.300003,-527.099976L109.300003,-519.099976C109.300003,-519.044983,109.254997,-519,109.199997,-519L105.300003,-519C105.199997,-519,105.300003,-519.099976,105.300003,-519L105.300003,-511.200012C105.300003,-511.100006,105.199997,-511.200012,105.300003,-511.200012L109.199997,-511.200012C109.254997,-511.200012,109.300003,-511.154999,109.300003,-511.100006L109.300003,-503.100006C109.300003,-503.045013,109.254997,-503,109.199997,-503L105.300003,-503C105.199997,-503,105.300003,-503.100006,105.300003,-503L105.300003,-495.200012C105.300003,-495.100006,105.199997,-495.200012,105.300003,-495.200012L109.199997,-495.200012C109.254997,-495.200012,109.300003,-495.154999,109.300003,-495.100006L109.300003,-481.700012C109.300003,-481.644989,109.254997,-481.600006,109.199997,-481.600006L105.199997,-481.600006L14.4,-481.600006L10.4,-481.600006C10.345,-481.600006,10.3,-481.644989,10.3,-481.700012L10.3,-495.100006C10.3,-495.154999,10.345,-495.200012,10.4,-495.200012L14.3,-495.200012C14.4,-495.200012,14.3,-495.100006,14.3,-495.200012L14.3,-503C14.3,-503.100006,14.4,-503,14.3,-503L10.4,-503C10.345,-503,10.3,-503.045013,10.3,-503.100006L10.3,-511.100006C10.3,-511.154999,10.345,-511.200012,10.4,-511.200012L14.3,-511.200012C14.4,-511.200012,14.3,-511.100006,14.3,-511.200012L14.3,-519C14.3,-519.099976,14.4,-519,14.3,-519L10.4,-519C10.345,-519,10.3,-519.044983,10.3,-519.099976L10.3,-527.099976C10.3,-527.155029,10.345,-527.200012,10.4,-527.200012L14.3,-527.200012C14.4,-527.200012,14.3,-527.099976,14.3,-527.200012L14.3,-535C14.3,-535.099976,14.4,-535,14.3,-535L10.4,-535C10.345,-535,10.3,-535.044983,10.3,-535.099976L10.3,-543.099976C10.3,-543.155029,10.345,-543.200012,10.4,-543.200012L14.3,-543.200012C14.4,-543.200012,14.3,-543.099976,14.3,-543.200012L14.3,-551C14.3,-551.099976,14.4,-551,14.3,-551L10.4,-551C10.345,-551,10.3,-551.044983,10.3,-551.099976L10.3,-559.099976C10.3,-559.155029,10.345,-559.200012,10.4,-559.200012L14.3,-559.200012C14.4,-559.200012,14.3,-559.099976,14.3,-559.200012L14.3,-567C14.3,-567.099976,14.4,-567,14.3,-567L10.4,-567C10.345,-567,10.3,-567.044983,10.3,-567.099976L10.3,-575.099976C10.3,-575.155029,10.345,-575.200012,10.4,-575.200012L14.3,-575.200012C14.4,-575.200012,14.3,-575.099976,14.3,-575.200012L14.3,-583C14.3,-583.099976,14.4,-583,14.3,-583L10.4,-583C10.345,-583,10.3,-583.044983,10.3,-583.099976L10.3,-596.5L10.3,-600.5C10.3,-600.554993,10.345,-600.599976,10.4,-600.599976L14.4,-600.599976"/>
    <path transform="matrix(1,0,0,-1,288.700012,-765.099976)" style="stroke:#000000;stroke-width:0.05mm;fill:none" d="M14.4,-721.599976L23.799999,-721.599976C23.855,-721.599976,23.9,-721.554993,23.9,-721.5L23.9,-717.599976C23.9,-717.5,23.799999,-717.599976,23.9,-717.599976L31.700001,-717.599976C31.799999,-717.599976,31.700001,-717.5,31.700001,-717.599976L31.700001,-721.5C31.700001,-721.554993,31.745001,-721.599976,31.799999,-721.599976L39.799999,-721.599976C39.855,-721.599976,39.900002,-721.554993,39.900002,-721.5L39.900002,-717.599976C39.900002,-717.5,39.799999,-717.599976,39.900002,-717.599976L47.700001,-717.599976C47.799999,-717.599976,47.700001,-717.5,47.700001,-717.599976L47.700001,-721.5C47.700001,-721.554993,47.744999,-721.599976,47.799999,-721.599976L55.799999,-721.599976C55.855,-721.599976,55.900002,-721.554993,55.900002,-721.5L55.900002,-717.599976C55.900002,-717.5,55.799999,-717.599976,55.900002,-717.599976L63.700001,-717.599976C63.799999,-717.599976,63.700001,-717.5,63.700001,-717.599976L63.700001,-721.5C63.700001,-721.554993,63.744999,-721.599976,63.799999,-721.599976L71.800003,-721.599976C71.855003,-721.599976,71.900002,-721.554993,71.900002,-721.5L71.900002,-717.599976C71.900002,-717.5,71.800003,-717.599976,71.900002,-717.599976L79.699997,-717.599976C79.800003,-717.599976,79.699997,-717.5,79.699997,-717.599976L79.699997,-721.5C79.699997,-721.554993,79.745003,-721.599976,79.800003,-721.599976L87.800003,-721.599976C87.855003,-721.599976,87.900002,-721.554993,87.900002,-721.5L87.900002,-717.599976C87.900002,-717.5,87.800003,-717.599976,87.900002,-717.599976L95.699997,-717.599976C95.800003,-717.599976,95.699997,-717.5,95.699997,-717.599976L95.699997,-721.5C95.699997,-721.554993,95.745003,-721.599976,95.800003,-721.599976L105.199997,-721.599976L109.199997,-721.599976C109.254997,-721.599976,109.300003,-721.554993,109.300003,-721.5L109.300003,-717.5L109.300003,-704.099976C109.300003,-704.044983,109.254997,-704,109.199997,-704L105.300003,-704C105.199997,-704,105.300003,-704.099976,105.300003,-704L105.300003,-696.200012C105.300003,-696.099976,105.199997,-696.200012,105.300003,-696.200012L109.199997,-696.200012C109.254997,-696.200012,109.300003,-696.155029,109.300003,-696.099976L109.300003,-688.099976C109.300003,-688.044983,109.254997,-688,109.199997,-688L105.300003,-688C105.199997,-688,105.300003,-688.099976,105.300003,-688L105.300003,-680.200012C105.300003,-680.099976,105.199997,-680.200012,105.300003,-680.200012L109.199997,-680.200012C109.254997,-680.200012,109.300003,-680.155029,109.300003,-680.099976L109.300003,-672.099976C109.300003,-672.044983,109.254997,-672,109.199997,-672L105.300003,-672C105.199997,-672,105.300003,-672.099976,105.300003,-672L105.300003,-664.200012C105.300003,-664.099976,105.199997,-664.200012,105.300003,-664.200012L109.199997,-664.200012C109.254997,-664.200012,109.300003,-664.155029,109.300003,-664.099976L109.300003,-656.099976C109.300003,-656.044983,109.254997,-656,109.199997,-656L105.300003,-656C105.199997,-656,105.300003,-656.099976,105.300003,-656L105.300003,-648.200012C105.300003,-648.099976,105.199997,-648.200012,105.300003,-648.200012L109.199997,-648.200012C109.254997,-648.200012,109.300003,-648.155029,109.300003,-648.099976L109.300003,-640.099976C109.300003,-640.044983,109.254997,-640,109.199997,-640L105.300003,-640C105.199997,-640,105.300003,-640.099976,105.300003,-640L105.300003,-632.200012C105.300003,-632.099976,105.199997,-632.200012,105.300003,-632.200012L109.199997,-632.200012C109.254997,-632.200012,109.300003,-632.155029,109.300003,-632.099976L109.300003,-624.099976C109.300003,-624.044983,109.254997,-624,109.199997,-624L105.300003,-624C105.199997,-624,105.300003,-624.099976,105.300003,-624L105.300003,-616.200012C105.300003,-616.099976,105.199997,-616.200012,105.300003,-616.200012L109.199997,-616.200012C109.254997,-616.200012,109.300003,-616.155029,109.300003,-616.099976L109.300003,-602.700012C109.300003,-602.64502,109.254997,-602.599976,109.199997,-602.599976L105.199997,-602.599976L77.959999,-602.599976C77.924004,-602.599976,77.890999,-602.619019,77.873001,-602.650024C76.042,-605.822998,73.406998,-608.45697,70.235001,-610.289001C67.061996,-612.119995,63.463001,-613.085022,59.799999,-613.085022C56.137001,-613.085022,52.537998,-612.119995,49.365002,-610.289001C46.193001,-608.45697,43.557999,-605.822998,41.727001,-602.650024C41.709,-602.619019,41.675999,-602.599976,41.639999,-602.599976L14.4,-602.599976L10.4,-602.599976C10.345,-602.599976,10.3,-602.64502,10.3,-602.700012L10.3,-616.099976C10.3,-616.155029,10.345,-616.200012,10.4,-616.200012L14.3,-616.200012C14.4,-616.200012,14.3,-616.099976,14.3,-616.200012L14.3,-624C14.3,-624.099976,14.4,-624,14.3,-624L10.4,-624C10.345,-624,10.3,-624.044983,10.3,-624.099976L10.3,-632.099976C10.3,-632.155029,10.345,-632.200012,10.4,-632.200012L14.3,-632.200012C14.4,-632.200012,14.3,-632.099976,14.3,-632.200012L14.3,-640C14.3,-640.099976,14.4,-640,14.3,-640L10.4,-640C10.345,-640,10.3,-640.044983,10.3,-640.099976L10.3,-648.099976C10.3,-648.155029,10.345,-648.200012,10.4,-648.200012L14.3,-648.200012C14.4,-648.200012,14.3,-648.099976,14.3,-648.200012L14.3,-656C14.3,-656.099976,14.4,-656,14.3,-656L10.4,-656C10.345,-656,10.3,-656.044983,10.3,-656.099976L10.3,-664.099976C10.3,-664.155029,10.345,-664.200012,10.4,-664.200012L14.3,-664.200012C14.4,-664.200012,14.3,-664.099976,14.3,-664.200012L14.3,-672C14.3,-672.099976,14.4,-672,14.3,-672L10.4,-672C10.345,-672,10.3,-672.044983,10.3,-672.099976L10.3,-680.099976C10.3,-680.155029,10.345,-680.200012,10.4,-680.200012L14.3,-680.200012C14.4,-680.200012,14.3,-680.099976,14.3,-680.200012L14.3,-688C14.3,-688.099976,14.4,-688,14.3,-688L10.4,-688C10.345,-688,10.3,-688.044983,10.3,-688.099976L10.3,-696.099976C10.3,-696.155029,10.345,-696.200012,10.4,-696.200012L14.3,-696.200012C14.4,-696.200012,14.3,-696.099976,14.3,-696.200012L14.3,-704C14.3,-704.099976,14.4,-704,14.3,-704L10.4,-704C10.345,-704,10.3,-704.044983,10.3,-704.099976L10.3,-717.5L10.3,-721.5C10.3,-721.554993,10.345,-721.599976,10.4,-721.599976L14.4,-721.599976"/>
    <path transform="matrix(1,0,0,-1,288.700012,-765.099976)" style="stroke:#000000;stroke-width:0.05mm;fill:none" d="M115.400002,-717.599976L127.699997,-717.599976C127.800003,-717.599976,127.699997,-717.5,127.699997,-717.599976L127.699997,-721.5C127.699997,-721.554993,127.745003,-721.599976,127.800003,-721.599976L135.800003,-721.599976C135.854996,-721.599976,135.899994,-721.554993,135.899994,-721.5L135.899994,-717.599976C135.899994,-717.5,135.800003,-717.599976,135.899994,-717.599976L143.699997,-717.599976C143.800003,-717.599976,143.699997,-717.5,143.699997,-717.599976L143.699997,-721.5C143.699997,-721.554993,143.744995,-721.599976,143.800003,-721.599976L151.800003,-721.599976C151.854996,-721.599976,151.899994,-721.554993,151.899994,-721.5L151.899994,-717.599976C151.899994,-717.5,151.800003,-717.599976,151.899994,-717.599976L159.699997,-717.599976C159.800003,-717.599976,159.699997,-717.5,159.699997,-717.599976L159.699997,-721.5C159.699997,-721.554993,159.744995,-721.599976,159.800003,-721.599976L167.800003,-721.599976C167.854996,-721.599976,167.899994,-721.554993,167.899994,-721.5L167.899994,-717.599976C167.899994,-717.5,167.800003,-717.599976,167.899994,-717.599976L175.699997,-717.599976C175.800003,-717.599976,175.699997,-717.5,175.699997,-717.599976L175.699997,-721.5C175.699997,-721.554993,175.744995,-721.599976,175.800003,-721.599976L183.800003,-721.599976C183.854996,-721.599976,183.899994,-721.554993,183.899994,-721.5L183.899994,-717.599976C183.899994,-717.5,183.800003,-717.599976,183.899994,-717.599976L191.699997,-717.599976C191.800003,-717.599976,191.699997,-717.5,191.699997,-717.599976L191.699997,-721.5C191.699997,-721.554993,191.744995,-721.599976,191.800003,-721.599976L199.800003,-721.599976C199.854996,-721.599976,199.899994,-721.554993,199.899994,-721.5L199.899994,-717.599976C199.899994,-717.5,199.800003,-717.599976,199.899994,-717.599976L207.699997,-717.599976C207.800003,-717.599976,207.699997,-717.5,207.699997,-717.599976L207.699997,-721.5C207.699997,-721.554993,207.744995,-721.599976,207.800003,-721.599976L215.800003,-721.599976C215.854996,-721.599976,215.899994,-721.554993,215.899994,-721.5L215.899994,-717.599976C215.899994,-717.5,215.800003,-717.599976,215.899994,-717.599976L223.699997,-717.599976C223.800003,-717.599976,223.699997,-717.5,223.699997,-717.599976L223.699997,-721.5C223.699997,-721.554993,223.744995,-721.599976,223.800003,-721.599976L231.800003,-721.599976C231.854996,-721.599976,231.899994,-721.554993,231.899994,-721.5L231.899994,-717.599976C231.899994,-717.5,231.800003,-717.599976,231.899994,-717.599976L239.699997,-717.599976C239.800003,-717.599976,239.699997,-717.5,239.699997,-717.599976L239.699997,-721.5C239.699997,-721.554993,239.744995,-721.599976,239.800003,-721.599976L247.800003,-721.599976C247.854996,-721.599976,247.899994,-721.554993,247.899994,-721.5L247.899994,-717.599976C247.899994,-717.5,247.800003,-717.599976,247.899994,-717.599976L260.200012,-717.599976C260.255005,-717.599976,260.299988,-717.554993,260.299988,-717.5L260.299988,-704.200012C260.299988,-704.099976,260.200012,-704.200012,260.299988,-704.200012L264.200012,-704.200012C264.255005,-704.200012,264.299988,-704.155029,264.299988,-704.099976L264.299988,-696.099976C264.299988,-696.044983,264.255005,-696,264.200012,-696L260.299988,-696C260.200012,-696,260.299988,-696.099976,260.299988,-696L260.299988,-688.200012C260.299988,-688.099976,260.200012,-688.200012,260.299988,-688.200012L264.200012,-688.200012C264.255005,-688.200012,264.299988,-688.155029,264.299988,-688.099976L264.299988,-680.099976C264.299988,-680.044983,264.255005,-680,264.200012,-680L260.299988,-680C260.200012,-680,260.299988,-680.099976,260.299988,-680L260.299988,-672.200012C260.299988,-672.099976,260.200012,-672.200012,260.299988,-672.200012L264.200012,-672.200012C264.255005,-672.200012,264.299988,-672.155029,264.299988,-672.099976L264.299988,-664.099976C264.299988,-664.044983,264.255005,-664,264.200012,-664L260.299988,-664C260.200012,-664,260.299988,-664.099976,260.299988,-664L260.299988,-656.200012C260.299988,-656.099976,260.200012,-656.200012,260.299988,-656.200012L264.200012,-656.200012C264.255005,-656.200012,264.299988,-656.155029,264.299988,-656.099976L264.299988,-648.099976C264.299988,-648.044983,264.255005,-648,264.200012,-648L260.299988,-648C260.200012,-648,260.299988,-648.099976,260.299988,-648L260.299988,-640.200012C260.299988,-640.099976,260.200012,-640.200012,260.299988,-640.200012L264.200012,-640.200012C264.255005,-640.200012,264.299988,-640.155029,264.299988,-640.099976L264.299988,-632.099976C264.299988,-632.044983,264.255005,-632,264.200012,-632L260.299988,-632C260.200012,-632,260.299988,-632.099976,260.299988,-632L260.299988,-624.200012C260.299988,-624.099976,260.200012,-624.200012,260.299988,-624.200012L264.200012,-624.200012C264.255005,-624.200012,264.299988,-624.155029,264.299988,-624.099976L264.299988,-616.099976C264.299988,-616.044983,264.255005,-616,264.200012,-616L260.299988,-616C260.200012,-616,260.299988,-616.099976,260.299988,-616L260.299988,-602.700012C260.299988,-602.64502,260.255005,-602.599976,260.200012,-602.599976L115.400002,-602.599976C115.345001,-602.599976,115.300003,-602.64502,115.300003,-602.700012L115.300003,-616C115.300003,-616.099976,115.400002,-616,115.300003,-616L111.400002,-616C111.345001,-616,111.300003,-616.044983,111.300003,-616.099976L111.300003,-624.099976C111.300003,-624.155029,111.345001,-624.200012,111.400002,-624.200012L115.300003,-624.200012C115.400002,-624.200012,115.300003,-624.099976,115.300003,-624.200012L115.300003,-632C115.300003,-632.099976,115.400002,-632,115.300003,-632L111.400002,-632C111.345001,-632,111.300003,-632.044983,111.300003,-632.099976L111.300003,-640.099976C111.300003,-640.155029,111.345001,-640.200012,111.400002,-640.200012L115.300003,-640.200012C115.400002,-640.200012,115.300003,-640.099976,115.300003,-640.200012L115.300003,-648C115.300003,-648.099976,115.400002,-648,115.300003,-648L111.400002,-648C111.345001,-648,111.300003,-648.044983,111.300003,-648.099976L111.300003,-656.099976C111.300003,-656.155029,111.345001,-656.200012,111.400002,-656.200012L115.300003,-656.200012C115.400002,-656.200012,115.300003,-656.099976,115.300003,-656.200012L115.300003,-664C115.300003,-664.099976,115.400002,-664,115.300003,-664L111.400002,-664C111.345001,-664,111.300003,-664.044983,111.300003,-664.099976L111.300003,-672.099976C111.300003,-672.155029,111.345001,-672.200012,111.400002,-672.200012L115.300003,-672.200012C115.400002,-672.200012,115.300003,-672.099976,115.300003,-672.200012L115.300003,-680C115.300003,-680.099976,115.400002,-680,115.300003,-680L111.400002,-680C111.345001,-680,111.300003,-680.044983,111.300003,-680.099976L111.300003,-688.099976C111.300003,-688.155029,111.345001,-688.200012,111.400002,-688.200012L115.300003,-688.200012C115.400002,-688.200012,115.300003,-688.099976,115.300003,-688.200012L115.300003,-696C115.300003,-696.099976,115.400002,-696,115.300003,-696L111.400002,-696C111.345001,-696,111.300003,-696.044983,111.300003,-696.099976L111.300003,-704.099976C111.300003,-704.155029,111.345001,-704.200012,111.400002,-704.200012L115.300003,-704.200012C115.400002,-704.200012,115.300003,-704.099976,115.300003,-704.200012L115.300003,-717.5C115.300003,-717.554993,115.345001,-717.599976,115.400002,-717.599976z"/>
</svg>
