<?xml version="1.0" encoding="UTF-8"?>
<svg xmlns="http://www.w3.org/2000/svg" xmlns:xlink="http://www.w3.org/1999/xlink" width="236.041mm" height="107.491mm" viewBox="18.153687 -373.491333 236.040771 107.491333">
    <path transform="matrix(1,0,0,-1,46.831421,-364.784576)" style="stroke:#000000;stroke-width:0.05mm;fill:none" d="M9.196289,-0.129883C9.692936,-0.09292,10.152885,0.145968,10.46875,0.531006L10.46875,0L12.696533,0L12.696533,8.459473L12.099609,8.40332C11.557237,8.356785,11.013117,8.332756,10.46875,8.331299L10.46875,5.560303L10.334961,5.739014C9.969691,6.186079,9.392917,6.40414,8.823242,6.310547C8.078203,6.249676,7.440326,5.751202,7.201172,5.042969C6.942668,4.276621,6.84033,3.46647,6.900146,2.659912C6.903469,2.041905,7.036031,1.431406,7.289307,0.867676C7.592256,0.22259,8.255487,-0.17585,8.967285,-0.140381L9.196289,-0.129883zM-9.125,-0.123047L-8.764648,-0.089355C-8.161933,-0.038285,-7.589459,0.196978,-7.125,0.584473C-6.711242,0.976385,-6.447617,1.500784,-6.379883,2.06665C-6.345679,2.28961,-6.329026,2.514914,-6.330078,2.740479L-6.330078,8.331299L-7.141846,8.331299L-7.141846,2.740479C-7.113735,2.269079,-7.222918,1.799348,-7.456055,1.388672C-7.709133,1.01111,-8.130528,0.780454,-8.584961,0.770752C-8.988539,0.714751,-9.399721,0.791569,-9.755859,0.989502C-9.994884,1.1717,-10.148974,1.443961,-10.182129,1.742676C-10.239557,2.047408,-10.265897,2.357182,-10.260742,2.667236L-10.260742,8.331299L-12.677734,8.331299L-12.677734,2.740479C-12.704907,2.125464,-12.549902,1.516058,-12.232178,0.98877C-11.913957,0.524657,-11.439851,0.189934,-10.895996,0.04541C-10.319322,-0.110044,-9.720637,-0.16699,-9.125,-0.123047zM4.006348,-0.13208L4.276855,-0.107178C4.806997,-0.068985,5.306091,0.158545,5.682617,0.533691C6.028636,0.941036,6.223019,1.455367,6.23291,1.989746L5.335693,2.252197C5.395464,1.82841,5.344032,1.395992,5.186523,0.998047C5.048638,0.717743,4.779316,0.525174,4.469482,0.485352C4.147486,0.406189,3.806795,0.486004,3.553467,0.699951C3.268351,1.010101,3.091832,1.40425,3.050293,1.823486C2.995772,2.173246,2.970132,2.526893,2.973633,2.880859L6.220703,2.880859C6.247356,3.598856,6.119468,4.314227,5.845703,4.978516C5.497686,5.761941,4.73315,6.278804,3.876465,6.309814C2.741066,6.450042,1.636143,5.873274,1.102051,4.861572C0.732616,4.15325,0.576995,3.353009,0.654053,2.557861C0.668481,1.937385,0.869529,1.335602,1.230957,0.831055C1.595136,0.38271,2.105694,0.076946,2.672852,-0.032471C3.110739,-0.126294,3.559383,-0.159807,4.006348,-0.13208zM-2.30957,-0.138428L-2.010254,-0.114014C-1.519589,-0.080782,-1.047767,0.0881,-0.647461,0.373779C-0.254215,0.697714,-0.017685,1.173793,0.00293,1.682861C0.073802,2.28444,-0.170569,2.880549,-0.643311,3.259277C-0.993453,3.558009,-1.38715,3.801537,-1.810791,3.981445L-2.379639,4.225586C-2.688925,4.351319,-2.975145,4.527639,-3.226563,4.747314C-3.448372,4.941108,-3.48311,5.273574,-3.306152,5.509033C-3.132228,5.694177,-2.882349,5.78751,-2.629639,5.761719C-2.355818,5.776618,-2.083624,5.708973,-1.848633,5.567627C-1.56594,5.368102,-1.389076,5.050932,-1.36792,4.705566L-1.3479,4.382324L-0.267578,4.571533C-0.320555,5.437841,-0.987802,6.143078,-1.849854,6.243896C-2.685377,6.410524,-3.552627,6.280972,-4.302979,5.877441C-4.934919,5.544626,-5.304996,4.863647,-5.240479,4.152344C-5.17283,3.635002,-4.899703,3.166797,-4.482666,2.853271C-4.029025,2.499408,-3.523546,2.217434,-2.984131,2.017334L-2.719971,1.883057C-2.468191,1.764909,-2.246099,1.591791,-2.070068,1.376465C-1.929986,1.129456,-1.979792,0.819376,-2.190186,0.628662C-2.365208,0.502379,-2.579196,0.441857,-2.794434,0.457764C-3.473551,0.437628,-4.080842,0.877162,-4.273926,1.528564C-4.306753,1.739965,-4.307986,1.954985,-4.277588,2.166748L-5.425049,1.934814C-5.456509,1.406256,-5.261877,0.888778,-4.889893,0.511963C-4.521283,0.190575,-4.064936,-0.013237,-3.57959,-0.073242C-3.15976,-0.140009,-2.734024,-0.161861,-2.30957,-0.138428zM2.967529,3.570557C2.961463,4.083282,3.012231,4.595136,3.118896,5.09668C3.153515,5.294525,3.248296,5.477179,3.390137,5.619385C3.522958,5.743858,3.726463,5.754086,3.871094,5.643555C4.065194,5.433535,4.183374,5.164881,4.207031,4.879883C4.275023,4.446877,4.305491,4.008802,4.298096,3.570557L2.967529,3.570557zM9.71582,0.774658C9.516896,0.836572,9.365774,0.999597,9.319092,1.202637C9.254792,1.428756,9.224679,1.663162,9.229736,1.898193C9.189674,2.810698,9.198719,3.724688,9.256836,4.63623C9.256156,4.868129,9.329932,5.09416,9.467285,5.281006C9.623092,5.439494,9.865796,5.472864,10.058594,5.362305C10.276901,5.185339,10.411687,4.926102,10.431152,4.645752L10.462646,4.406738L10.511475,3.381348C10.507446,2.792874,10.494102,2.20478,10.471436,1.616699C10.471832,1.363972,10.39075,1.117813,10.240234,0.914795C10.105234,0.773996,9.90306,0.71997,9.71582,0.774658zM9.075684,-6.934814L9.286377,-6.897217C9.64508,-6.831605,9.897084,-6.5055,9.870117,-6.141846C9.89709,-5.77819,9.645081,-5.452084,9.286377,-5.386475C8.926457,-5.295479,8.547183,-5.317473,8.200195,-5.449463C7.93425,-5.573539,7.772891,-5.849209,7.794922,-6.141846C7.767974,-6.505491,8.019975,-6.831586,8.378662,-6.897217C8.607364,-6.948035,8.842843,-6.960736,9.075684,-6.934814zM-17.9104,-14.016357L-17.587158,-13.982666C-16.823669,-13.902697,-16.123644,-13.52104,-15.642822,-12.922607C-14.911201,-11.908816,-15.028762,-10.51333,-15.919678,-9.63623C-16.463661,-9.128248,-17.106564,-8.738152,-17.80835,-8.490234L-18.171875,-8.357422C-18.592106,-8.229368,-18.987013,-8.02956,-19.339111,-7.766846C-19.706409,-7.515493,-19.835054,-7.0323,-19.641357,-6.631592C-19.501694,-6.364107,-19.243572,-6.178439,-18.945557,-6.131104C-18.383093,-6.002878,-17.794807,-6.052435,-17.261719,-6.272949C-16.852411,-6.475374,-16.589476,-6.888694,-16.57959,-7.345215C-16.564226,-7.593022,-16.586617,-7.841686,-16.645996,-8.082764L-15.522949,-7.875244C-15.499729,-7.345979,-15.634157,-6.821692,-15.90918,-6.368896C-16.248384,-5.897069,-16.762165,-5.580713,-17.336182,-5.490234C-18.138132,-5.32096,-18.971565,-5.383878,-19.739014,-5.671631C-20.479855,-5.953439,-21.028486,-6.590921,-21.196777,-7.365479C-21.417427,-8.42256,-20.978428,-9.509252,-20.085449,-10.116455C-19.686018,-10.398567,-19.249535,-10.624079,-18.78833,-10.786621L-18.38916,-10.947021C-17.987019,-11.100706,-17.623663,-11.34111,-17.324951,-11.651123C-17.017242,-12.015404,-17.000868,-12.543368,-17.2854,-12.926025C-17.439581,-13.111056,-17.650473,-13.239838,-17.885498,-13.29248C-18.454422,-13.432827,-19.053682,-13.380722,-19.589844,-13.144287C-20.009661,-12.91585,-20.272675,-12.47768,-20.276855,-11.999756C-20.293669,-11.625519,-20.250652,-11.251055,-20.149414,-10.890381L-21.315186,-11.146729C-21.418715,-11.743011,-21.3232,-12.357128,-21.043457,-12.893799C-20.71653,-13.402686,-20.197773,-13.757504,-19.60498,-13.877686C-19.049982,-14.006975,-18.479031,-14.053697,-17.9104,-14.016357zM-0.0354,-14.016357L0.287842,-13.982666C1.05133,-13.902697,1.751356,-13.52104,2.232178,-12.922607C2.963815,-11.90882,2.846254,-10.513326,1.955322,-9.63623C1.411336,-9.128246,0.768437,-8.738153,0.06665,-8.490234L-0.296875,-8.357422C-0.717104,-8.22937,-1.112014,-8.029561,-1.464111,-7.766846C-1.831408,-7.515493,-1.960052,-7.032301,-1.766357,-6.631592C-1.626691,-6.364109,-1.368571,-6.178443,-1.070557,-6.131104C-0.50809,-6.002877,0.080195,-6.052434,0.613281,-6.272949C1.02259,-6.475374,1.285526,-6.888693,1.29541,-7.345215C1.310772,-7.593021,1.288383,-7.841685,1.229004,-8.082764L2.352051,-7.875244C2.375271,-7.345978,2.240843,-6.82169,1.96582,-6.368896C1.626629,-5.897052,1.112844,-5.580694,0.538818,-5.490234C-0.263132,-5.32096,-1.096566,-5.383879,-1.864014,-5.671631C-2.604855,-5.953441,-3.153485,-6.590921,-3.321777,-7.365479C-3.542423,-8.42256,-3.103426,-9.509251,-2.210449,-10.116455C-1.811019,-10.398566,-1.374538,-10.624078,-0.91333,-10.786621L-0.51416,-10.947021C-0.112017,-11.100703,0.251339,-11.341106,0.550049,-11.651123C0.857756,-12.015405,0.874134,-12.54337,0.5896,-12.926025C0.435418,-13.111056,0.224528,-13.239839,-0.010498,-13.29248C-0.579422,-13.432828,-1.178681,-13.380722,-1.714844,-13.144287C-2.13466,-12.91585,-2.397674,-12.477681,-2.401855,-11.999756C-2.41843,-11.625525,-2.375418,-11.251106,-2.274414,-10.890381L-3.440186,-11.146729C-3.543712,-11.743012,-3.448196,-12.357126,-3.168457,-12.893799C-2.841529,-13.402686,-2.322773,-13.757504,-1.72998,-13.877686C-1.174984,-14.006975,-0.604031,-14.053698,-0.0354,-14.016357zM19.513428,-11.665527L19.922363,-11.165039L20.990479,-13.875L23.340332,-13.875L21.509277,-9.315674L22.778809,-7.722656L21.887695,-7.722656L19.513428,-10.621826L19.513428,-5.409424L18.907227,-5.468262C18.368044,-5.516865,17.827026,-5.542034,17.285645,-5.543701L17.285645,-13.875L19.513428,-13.875L19.513428,-11.665527zM-25.125,-13.998047L-24.764648,-13.964355C-24.161932,-13.913281,-23.589458,-13.67802,-23.125,-13.290527C-22.711237,-12.898618,-22.447613,-12.374216,-22.379883,-11.80835C-22.34568,-11.585391,-22.329027,-11.360086,-22.330078,-11.134521L-22.330078,-5.543701L-23.141846,-5.543701L-23.141846,-11.134521C-23.113733,-11.605921,-23.222919,-12.07565,-23.456055,-12.486328C-23.709129,-12.863893,-24.130529,-13.094545,-24.584961,-13.104248C-24.988541,-13.160269,-25.399731,-13.083456,-25.755859,-12.885498C-25.994804,-12.703337,-26.148882,-12.431187,-26.182129,-12.132568C-26.239536,-11.827751,-26.265875,-11.517898,-26.260742,-11.207764L-26.260742,-5.543701L-28.677734,-5.543701L-28.677734,-11.134521C-28.704906,-11.749536,-28.5499,-12.358941,-28.232178,-12.88623C-27.913961,-13.350348,-27.439854,-13.685075,-26.895996,-13.82959C-26.319321,-13.985044,-25.720638,-14.041988,-25.125,-13.998047zM-9.63916,-13.866455L-9.322021,-13.840332C-8.801516,-13.80527,-8.301141,-13.625399,-7.877441,-13.321045C-7.460008,-12.975689,-7.209328,-12.46909,-7.187988,-11.927734C-7.113849,-11.372874,-7.252275,-10.810362,-7.575439,-10.353271C-7.942917,-9.917515,-8.447423,-9.619253,-9.006348,-9.507324L-9.258301,-9.449951L-9.049072,-9.394775C-8.529708,-9.279708,-8.073434,-8.970634,-7.773926,-8.531006C-7.350123,-7.767945,-7.473679,-6.819663,-8.078857,-6.190674C-8.460857,-5.872867,-8.92708,-5.673009,-9.420654,-5.615479C-9.742558,-5.565954,-10.06787,-5.541954,-10.393555,-5.543701L-14.098389,-5.543701L-14.098389,-13.875L-9.978516,-13.875L-9.63916,-13.866455zM5.801758,-13.927002L6.100586,-13.881836C6.510505,-13.825439,6.867519,-13.572139,7.056152,-13.203857L7.139648,-12.977783L6.504883,-12.916748L6.477051,-13.036865C6.45555,-13.128413,6.373082,-13.192785,6.279053,-13.191406C6.150146,-13.18891,6.044169,-13.089869,6.032959,-12.961426L6.016602,-12.782471L6.016602,-8.430664L7.005371,-8.430664L7.005371,-7.740967L6.016602,-7.740967L6.016602,-5.739014L5.474609,-6.020508C4.933053,-6.282495,4.368803,-6.494712,3.788818,-6.654541L3.788818,-7.740967L3.044189,-7.740967L3.044189,-8.430664L3.788818,-8.430664L3.788818,-12.513916C3.748477,-12.96553,3.950726,-13.40536,4.319824,-13.668701C4.66849,-13.867358,5.0665,-13.962202,5.467285,-13.942139L5.801758,-13.927002zM-11.681396,-9.169189L-11.681396,-6.233398C-11.36811,-6.213885,-11.05373,-6.221236,-10.741699,-6.255371C-10.350077,-6.327363,-10.044135,-6.634474,-9.973633,-7.026367C-9.855463,-7.539165,-9.881999,-8.07464,-10.050293,-8.573242C-10.180477,-8.946692,-10.541804,-9.1896,-10.936768,-9.169189L-11.681396,-9.169189zM14.241943,-14.000244L14.532471,-13.972656C15.019276,-13.930746,15.481131,-13.738806,15.854248,-13.42334C16.247141,-13.031979,16.473179,-12.503885,16.485107,-11.949463C16.497028,-11.771635,16.498331,-11.593261,16.489014,-11.415283L15.549072,-11.128418C15.663967,-11.650493,15.647522,-12.193118,15.501221,-12.707275C15.351294,-13.189741,14.887034,-13.504857,14.383301,-13.466064C13.912492,-13.490941,13.493224,-13.16808,13.396973,-12.706543C13.227139,-11.937772,13.164208,-11.149261,13.209961,-10.363281C13.200325,-9.807355,13.298252,-9.254619,13.498291,-8.73584C13.611093,-8.406371,13.893013,-8.162735,14.235352,-8.098877C14.619826,-8.017956,15.005515,-8.233763,15.137695,-8.60376C15.226923,-8.86201,15.269086,-9.134082,15.262207,-9.407227L15.25,-9.993164L16.293701,-9.486572C16.324177,-9.009089,16.178146,-8.536667,15.883545,-8.159668C15.56001,-7.819345,15.121794,-7.61137,14.653564,-7.575928C13.927483,-7.473237,13.187147,-7.58758,12.525879,-7.904541C11.660522,-8.367628,11.072495,-9.220608,10.94751,-10.194092C10.810198,-10.987445,10.893738,-11.80342,11.188965,-12.55249C11.503115,-13.25507,12.142237,-13.759117,12.898682,-13.900879C13.339597,-13.996616,13.791743,-14.030062,14.241943,-14.000244zM9.931152,-7.563965L9.3479,-7.635986C8.801804,-7.696645,8.252825,-7.727615,7.703369,-7.72876L7.703369,-13.875L9.931152,-13.875L9.931152,-7.563965zM26.69043,-14.013428L26.989746,-13.989014C27.480427,-13.955861,27.952271,-13.786968,28.352539,-13.501221C28.745779,-13.17728,28.982309,-12.701205,29.00293,-12.192139C29.073803,-11.59056,28.829432,-10.99445,28.356689,-10.615723C28.006548,-10.316991,27.612852,-10.073463,27.189209,-9.893555L26.620361,-9.649414C26.31109,-9.523651,26.024872,-9.347336,25.773438,-9.127686C25.55163,-8.93389,25.51689,-8.601426,25.693848,-8.365967C25.867788,-8.180853,26.117659,-8.087525,26.370361,-8.113281C26.644182,-8.098386,26.916376,-8.166028,27.151367,-8.307373C27.434057,-8.5069,27.610924,-8.824068,27.63208,-9.169434L27.6521,-9.492676L28.732422,-9.303467C28.67944,-8.43716,28.012196,-7.731926,27.150146,-7.631104C26.314623,-7.464482,25.447376,-7.594035,24.697021,-7.997559C24.065098,-8.33039,23.695024,-9.011359,23.759521,-9.722656C23.827158,-10.240004,24.100285,-10.708211,24.517334,-11.021729C24.971037,-11.375565,25.476496,-11.657609,26.015869,-11.85791L26.280029,-11.992188C26.531935,-12.110129,26.754072,-12.28328,26.929932,-12.498779C27.070009,-12.74571,27.020206,-13.055727,26.809814,-13.246338C26.634796,-13.37263,26.420805,-13.433156,26.205566,-13.417236C25.526487,-13.43722,24.919292,-12.997753,24.726074,-12.346436C24.693258,-12.135035,24.69202,-11.920015,24.722412,-11.708252L23.574951,-11.940186C23.543486,-12.468743,23.738119,-12.986223,24.110107,-13.363037C24.478729,-13.684404,24.93507,-13.888221,25.42041,-13.948242C25.840235,-14.015009,26.265976,-14.036861,26.69043,-14.013428zM-11.681396,-13.185303L-11.681396,-9.858887C-11.409363,-9.850176,-11.137084,-9.852457,-10.865234,-9.865723C-10.300754,-9.890821,-9.827407,-10.302391,-9.724121,-10.85791C-9.567904,-11.42766,-9.60411,-12.032774,-9.827148,-12.579834C-10.027216,-12.946297,-10.410132,-13.175691,-10.827637,-13.179199C-11.112054,-13.191818,-11.396823,-13.193853,-11.681396,-13.185303zM-3.849121,-9.889404L-6.852051,-9.889404L-6.852051,-11.494629L-3.849121,-11.494629L-3.849121,-9.889404z"/>
    <path transform="matrix(1,0,0,-1,183.321899,-370.10675)" style="stroke:#000000;stroke-width:0.05mm;fill:none" d="M5.697021,-15.573486L6.408447,-15.499512C7.270696,-15.387814,8.105522,-15.120541,8.872314,-14.710693C9.751717,-14.242229,10.488357,-13.544979,11.004395,-12.692627C11.946035,-11.014989,11.975689,-8.976531,11.083252,-7.272217C10.597178,-6.429421,9.937456,-5.699801,9.147705,-5.131592C8.152945,-4.419661,7.06828,-3.84281,5.921875,-3.416016C5.517719,-3.26709,5.112667,-3.119812,4.707275,-2.974365L4.319336,-2.821045C3.596781,-2.554721,2.929954,-2.156099,2.353271,-1.645752C1.75163,-1.12702,1.533253,-0.288549,1.80542,0.457764C1.978509,0.982898,2.377944,1.402761,2.893799,1.601807C3.488636,1.828821,4.122995,1.934174,4.759277,1.911621C5.454621,1.932057,6.148057,1.826246,6.805664,1.599365C7.753778,1.282228,8.441166,0.454997,8.579346,-0.535156C8.680643,-1.196559,8.646419,-1.871758,8.47876,-2.519531L10.949463,-2.062988C10.979898,-1.074101,10.777776,-0.091839,10.359375,0.804688C9.833771,1.826367,8.922729,2.596653,7.827881,2.945068C6.653596,3.317982,5.417327,3.45611,4.189697,3.351563C3.325521,3.304353,2.475323,3.112908,1.674316,2.785156C0.682177,2.381082,-0.173655,1.701466,-0.791992,0.82666C-1.371437,-0.04382,-1.669461,-1.071268,-1.645752,-2.116699C-1.672325,-3.869564,-0.89303,-5.538415,0.468018,-6.643311C1.264993,-7.295633,2.155737,-7.823923,3.110352,-8.210449C3.479372,-8.3573,3.8482,-8.501038,4.219238,-8.642578L4.643799,-8.820801C5.339282,-9.106143,5.989885,-9.490486,6.575439,-9.961914C6.990248,-10.284514,7.296594,-10.726227,7.453369,-11.227783C7.605263,-11.901748,7.466947,-12.60794,7.072021,-13.174805C6.735949,-13.585058,6.270637,-13.869271,5.752197,-13.980957C4.614536,-14.242588,3.426898,-14.180446,2.322754,-13.801514C1.467954,-13.488453,0.826117,-12.76815,0.613281,-11.883057C0.453272,-11.195586,0.431696,-10.48325,0.549805,-9.787354C0.604978,-9.420124,0.678884,-9.055974,0.77124,-8.696289L-1.793457,-9.260254C-1.949143,-10.305227,-1.860554,-11.372212,-1.534668,-12.377197C-1.131857,-13.489816,-0.28742,-14.386908,0.798828,-14.856201C1.851012,-15.305359,2.979093,-15.550198,4.122803,-15.577637C4.647184,-15.60633,5.172802,-15.604943,5.697021,-15.573486zM-64.198975,-6.722412L-58.559326,-6.722412L-58.559326,-4.882813L-64.198975,-4.882813L-64.198975,1.226807L-57.552246,1.226807L-57.552246,3.066406L-69.516357,3.066406L-69.516357,-15.262451L-64.198975,-15.262451L-64.198975,-6.722412zM-50.435547,-6.453857L-49.522461,-6.453857C-48.96954,-6.42926,-48.423641,-6.585794,-47.967773,-6.899658C-47.544193,-7.236402,-47.248787,-7.70821,-47.130859,-8.236328C-47.017765,-8.68961,-46.964092,-9.155677,-46.971191,-9.622803L-46.944336,-10.992432L-46.91748,-12.080078L-46.908936,-12.546875C-46.898685,-13.477839,-46.714859,-14.39888,-46.366943,-15.262451L-40.593018,-15.262451C-40.951183,-14.724807,-41.193123,-14.118462,-41.303467,-13.481934C-41.496803,-12.517392,-41.624866,-11.54087,-41.686768,-10.559082L-41.758301,-9.990479C-41.830147,-9.283516,-42.011631,-8.591837,-42.296143,-7.940674C-42.550663,-7.473575,-42.931129,-7.08761,-43.394531,-6.826416C-43.92313,-6.507807,-44.482624,-6.243519,-45.064453,-6.037598L-44.586426,-5.902588C-43.768215,-5.672608,-43.010284,-5.266185,-42.365967,-4.711914C-41.628197,-4.039988,-41.184898,-3.104169,-41.132324,-2.107666C-40.964085,-0.575541,-41.66888,0.923005,-42.956299,1.770508C-43.793312,2.336646,-44.742035,2.716352,-45.738525,2.884033C-46.442352,3.008982,-47.156029,3.070021,-47.87085,3.066406L-55.75293,3.066406L-55.75293,-15.262451L-50.435547,-15.262451L-50.435547,-6.453857zM-25.443359,-13.422852L-33.124023,-13.422852L-33.124023,-6.158447L-27.605225,-6.158447L-27.605225,-4.318848L-33.124023,-4.318848L-33.124023,1.226807L-26.557861,1.226807L-26.557861,3.066406L-38.441406,3.066406L-38.441406,-15.262451L-25.443359,-15.262451L-25.443359,-13.422852zM-10.868408,-13.422852L-18.549072,-13.422852L-18.549072,-6.158447L-13.030273,-6.158447L-13.030273,-4.318848L-18.549072,-4.318848L-18.549072,1.226807L-11.98291,1.226807L-11.98291,3.066406L-23.866455,3.066406L-23.866455,-15.262451L-10.868408,-15.262451L-10.868408,-13.422852zM22.462402,1.226807L26.960693,1.226807L26.960693,3.066406L12.297607,3.066406L12.297607,1.226807L16.822754,1.226807L16.822754,-15.262451L22.462402,-15.262451L22.462402,1.226807zM35.608398,-15.551758C36.830872,-15.55106,38.040138,-15.298752,39.160889,-14.810547C40.566391,-14.161144,41.589596,-12.893656,41.927979,-11.382813C42.098919,-10.679338,42.181507,-9.957296,42.173828,-9.233398L42.173828,3.066406L40.387939,3.066406L40.387939,-9.233398C40.41087,-10.013162,40.291302,-10.790736,40.035156,-11.527588C39.672596,-12.593557,38.738144,-13.363753,37.622559,-13.516113C36.814796,-13.648918,35.987614,-13.596413,35.203125,-13.362549C34.609394,-13.184854,34.132671,-12.739309,33.915283,-12.158936C33.671021,-11.456326,33.543301,-10.718688,33.537109,-9.974854L33.526367,-9.394531L33.526367,3.066406L28.208984,3.066406L28.208984,-9.233398C28.173828,-10.38289,28.406878,-11.524817,28.889648,-12.568604C29.492468,-13.753907,30.543354,-14.64986,31.809082,-15.057617C33.034855,-15.452356,34.322441,-15.61982,35.608398,-15.551758zM50.47583,-6.722412L56.115479,-6.722412L56.115479,-4.882813L50.47583,-4.882813L50.47583,1.226807L57.122559,1.226807L57.122559,3.066406L45.158447,3.066406L45.158447,-15.262451L50.47583,-15.262451L50.47583,-6.722412zM64.22583,-6.722412L69.865479,-6.722412L69.865479,-4.882813L64.22583,-4.882813L64.22583,1.226807L70.872559,1.226807L70.872559,3.066406L58.908447,3.066406L58.908447,-15.262451L64.22583,-15.262451L64.22583,-6.722412zM-50.435547,-4.936523L-50.435547,1.374512C-49.955551,1.386702,-49.475319,1.382547,-48.995605,1.362061C-48.381458,1.346116,-47.787449,1.139353,-47.296143,0.770508C-46.851032,0.389981,-46.550827,-0.13255,-46.446289,-0.70874C-46.246563,-1.620284,-46.312122,-2.569634,-46.635254,-3.445068C-46.939247,-4.157316,-47.575302,-4.674034,-48.334717,-4.825684C-48.671494,-4.902185,-49.015984,-4.939379,-49.361328,-4.936523L-50.435547,-4.936523z"/>
    <path transform="matrix(-0,1,1,0,175.999985,-267.5)" style="stroke:#000000;stroke-width:0.05mm;fill:none" d="M1.5,-4C1.5,-4.552277,1.052292,-5,0.5,-5L-0.5,-5C-1.052292,-5,-1.5,-4.552277,-1.5,-4L-1.5,4C-1.5,4.552277,-1.052292,5,-0.5,5L0.5,5C1.052292,5,1.5,4.552277,1.5,4L1.5,-4z"/>
    <path transform="matrix(-0,1,1,0,155.999985,-267.5)" style="stroke:#000000;stroke-width:0.05mm;fill:none" d="M1.5,-4C1.5,-4.552277,1.052292,-5,0.5,-5L-0.5,-5C-1.052292,-5,-1.5,-4.552277,-1.5,-4L-1.5,4C-1.5,4.552277,-1.052292,5,-0.5,5L0.5,5C1.052292,5,1.5,4.552277,1.5,4L1.5,-4z"/>
    <path transform="matrix(-0,1,1,0,155.999985,-314.5)" style="stroke:#000000;stroke-width:0.05mm;fill:none" d="M1.5,-4C1.5,-4.552277,1.052292,-5,0.5,-5L-0.5,-5C-1.052292,-5,-1.5,-4.552277,-1.5,-4L-1.5,4C-1.5,4.552277,-1.052292,5,-0.5,5L0.5,5C1.052292,5,1.5,4.552277,1.5,4L1.5,-4z"/>
    <path transform="matrix(-0,1,1,0,175.999985,-314.499939)" style="stroke:#000000;stroke-width:0.05mm;fill:none" d="M1.5,-4C1.5,-4.552277,1.052292,-5,0.5,-5L-0.5,-5C-1.052292,-5,-1.5,-4.552277,-1.5,-4L-1.5,4C-1.5,4.552277,-1.052292,5,-0.5,5L0.5,5C1.052292,5,1.5,4.552277,1.5,4L1.5,-4z"/>
    <path transform="matrix(-1,-0,-0,1,132.500015,-291)" style="stroke:#000000;stroke-width:0.05mm;fill:none" d="M1.5,-4C1.5,-4.552292,1.052277,-5,0.5,-5L-0.5,-5C-1.052277,-5,-1.5,-4.552292,-1.5,-4L-1.5,4C-1.5,4.552292,-1.052277,5,-0.5,5L0.5,5C1.052277,5,1.5,4.552292,1.5,4L1.5,-4z"/>
    <path transform="matrix(-1,-0,-0,1,199.499954,-290.999969)" style="stroke:#000000;stroke-width:0.05mm;fill:none" d="M1.5,-4C1.5,-4.552292,1.052277,-5,0.5,-5L-0.5,-5C-1.052277,-5,-1.5,-4.552292,-1.5,-4L-1.5,4C-1.5,4.552292,-1.052277,5,-0.5,5L0.5,5C1.052277,5,1.5,4.552292,1.5,4L1.5,-4z"/>
    <path transform="matrix(-0,1,1,0,-125.000023,-457)" style="stroke:#000000;stroke-width:0.05mm;fill:none" d="M144,321C144,322.104584,144.895432,323,146,323L150,323C150.552292,323,151,323.447723,151,324L151,325C151,325.552277,150.552292,326,150,326L143,326C141.895432,326,141,325.104584,141,324L141,317C141,316.447723,141.447708,316,142,316L143,316C143.552292,316,144,316.447723,144,317L144,321z"/>
    <path transform="matrix(-0,1,1,0,-125.000023,-457)" style="stroke:#000000;stroke-width:0.05mm;fill:none" d="M182,326C181.447708,326,181,325.552277,181,325L181,324C181,323.447723,181.447708,323,182,323L186,323C187.104568,323,188,322.104584,188,321L188,317C188,316.447723,188.447708,316,189,316L190,316C190.552292,316,191,316.447723,191,317L191,324C191,325.104584,190.104568,326,189,326L182,326z"/>
    <path transform="matrix(-0,1,1,0,-125.000023,-457)" style="stroke:#000000;stroke-width:0.05mm;fill:none" d="M151,258C151,258.552277,150.552292,259,150,259L146,259C144.895432,259,144,259.895416,144,261L144,265C144,265.552277,143.552292,266,143,266L142,266C141.447708,266,141,265.552277,141,265L141,258C141,256.895416,141.895432,256,143,256L150,256C150.552292,256,151,256.447723,151,257L151,258z"/>
    <path transform="matrix(-0,1,1,0,-125.000023,-457)" style="stroke:#000000;stroke-width:0.05mm;fill:none" d="M189,266C188.447708,266,188,265.552277,188,265L188,261C188,259.895416,187.104568,259,186,259L182,259C181.447708,259,181,258.552277,181,258L181,257C181,256.447723,181.447708,256,182,256L189,256C190.104568,256,191,256.895416,191,258L191,265C191,265.552277,190.552292,266,190,266L189,266z"/>
    <path transform="matrix(0.084526,0,0,-0.084526,137.339355,-272.651428)" style="stroke:#000000;stroke-width:0.05mm;fill:none" d="M243,410.404541C161.179962,397.378601,97.33078,336.717865,80.479607,256C77.199326,240.287277,76.049843,212.25766,77.971954,194.851761C82.79599,151.167084,103.119377,109.619568,135.101227,78.061203C164.101883,49.444557,199.303131,31.674528,241.506134,24.34668C255.725159,21.877783,287.668579,21.885698,302,24.36167C334.592377,29.992493,359.879089,40.424721,385.5,58.810223C408.784241,75.518936,430.099945,99.645645,443.059662,123.960533C446.376038,130.182693,446.434601,130.231094,447.927856,127.982132C448.759155,126.730141,454.06546,119.532341,459.719635,111.987022L470,98.268265L470,91.584473C470,83.419563,471.675873,79.86097,477.147827,76.406685C483.525787,72.380455,498.730774,68.857613,510.765289,68.617867L521.030579,68.413361L523.113586,64.45668C529.306641,52.692982,545.181763,43.070549,569,36.643478C585.238953,32.261589,598.401794,28.790195,600.785034,28.260916C603.797791,27.591835,607,30.547562,607,33.997517C607,37.755165,603.819458,39.151833,583,44.536552C555.094543,51.753983,545.208801,55.946289,537.868225,63.6758C532.614807,69.20755,531.768921,71.225075,533.604248,73.84539C535.49054,76.53846,538.428894,76.594383,541.727112,74C544.690735,71.668839,546.901245,71.476089,549.433899,73.327988C552.247986,75.385719,551.623962,79.397186,547.74585,84.179153C542.760254,90.326744,539.012573,97.362068,530.188538,117.138153C522.195251,135.052551,518.622803,141.178818,512.852661,146.866989C508.633331,151.026321,507.092285,151.809616,493,156.957748C474.642303,163.664093,466.758087,168.263992,456.933624,178C452.216125,182.675003,447.535278,188.281921,446.531708,190.459824C443.733185,196.53302,443.523529,201.915527,445.93576,205.758652L447.98114,209.017303L459.24057,203.101471C530.979797,165.408905,555.605225,153.266479,557.671326,154.566833C560.337769,156.245056,561.347534,158.479218,560.666321,161.19342C560.163818,163.195404,557.382263,165.051895,546.769043,170.468796C518.805359,184.741226,503.001343,193.182831,503.035431,193.828766C503.054932,194.197937,503.713989,195.625,504.5,197C505.286011,198.375,505.945068,202.100037,505.964569,205.277847L506,211.055695L512.25,210.521332C537.705139,208.344925,540.466064,207.933243,545.711609,205.531754C559.415161,199.258057,576.278015,177.73877,604.507813,130.5C611.08136,119.5,616.806274,110.349998,617.229858,110.166656C617.653442,109.98333,618,109.3461,618,108.750603C618,107.625099,623.114563,99.08532,633.277405,83.241936C639.437866,73.63813,641.903198,71.807449,645.839111,73.91391C650.120544,76.205246,649.502563,78.423332,640.730286,92.251022C636.107422,99.537964,628.339722,112.25,623.468689,120.5C591.448486,174.73233,581.434204,189.594894,567.520996,203.534134C554.155701,216.924454,546.484863,219.365128,509.520782,221.988449L495.541534,222.98056L479.406921,239.092941C463.878693,254.599777,463.225128,255.416214,462.016571,260.816498C455.857483,288.338226,440.26059,319.762726,422.020264,341.400726C392.280975,376.679626,355.050507,399.134796,310.532654,408.64328C300.03717,410.884979,295.561737,411.25824,275.5,411.565125C258.370056,411.827148,250.075424,411.530945,243,410.404541z"/>
    <path transform="matrix(0.084526,0,0,-0.084526,137.339355,-272.651428)" style="stroke:#000000;stroke-width:0.05mm;fill:none" d="M295.5,398.92572C352.186737,391.63443,402.621063,357.425201,431.762238,306.5C436.340332,298.499634,446.641815,274.305084,445.818359,273.487152C445.64325,273.313232,440.259583,278.273346,433.854645,284.509583C414.443756,303.40921,410.30484,303.098511,388.514435,281.105988C381.372375,273.897705,375.237122,268,374.880585,268C374.524017,268,373.204437,270.587494,371.948181,273.75C360.740021,301.965546,337.664948,331.923981,312.146667,351.390533C305.522705,356.443573,304.306152,357,299.881958,357C293.298401,357,288.160339,352.614319,287.309143,346.26828C286.496216,340.207397,288.312317,336.831512,295.339264,331.341492C304.871613,323.894043,322.033813,306.391205,328.826324,297.189728C338.854675,283.604889,348.066895,265.248779,351.494293,252.022018C352.895844,246.613312,352.861786,246.264282,350.472076,241.543991C349.112427,238.858368,348,235.147858,348,233.298401C348,228.949982,350.421936,223.214279,353.70575,219.785889C356.259094,217.120132,356.294281,216.888565,355.681702,206.785889C353.480652,170.486282,332.742706,133.962616,298.213776,105.57341C293.656372,101.826363,289.26886,97.486809,288.463776,95.929962C285.343719,89.896439,287.411804,82.762718,293.343781,79.096542C300.423889,74.720802,305.020844,76.563766,320.465088,89.969704C341.313568,108.066643,359.256012,131.837387,369.285583,154.648788C373.782776,164.877228,378.701202,180.266739,379.572754,186.836884C379.949463,189.676605,380.54071,192,380.886658,192C381.232574,192,392.312103,181.168839,405.507813,167.93074C419.761047,153.631729,431.210602,142.976273,433.714081,141.68074L437.928162,139.5L432.425568,129.5C407.6875,84.542816,364.775208,51.350929,316.088715,39.515503C298.07605,35.136726,292.27005,34.504963,270.5,34.554913C251.542877,34.598408,248.235367,34.869846,236.5,37.345211C160.997437,53.271111,105.543533,109.823349,91.222618,185.5C89.931137,192.324646,89.51712,200.05925,89.509735,217.5C89.501228,237.5923,89.791893,241.941208,91.808891,251.899948C104.980003,316.931213,150.123184,368.901917,212.225723,390.528809C237.286926,399.256226,268.478119,402.401367,295.5,398.92572z"/>
    <path transform="matrix(0.084526,0,0,-0.084526,137.339355,-272.651428)" style="stroke:#000000;stroke-width:0.05mm;fill:none" d="M455.256836,247.25C493.382538,209.186508,495.059692,207.355804,494.785919,204.101273C494.235413,197.557159,493.058472,197.843292,469.429565,210.266144L447.5,221.795532L443.02655,218.598511C436.85257,214.186188,433,206.663437,433,199.020172C433,190.334946,438.162994,180.686264,448.218689,170.579147L456.099274,162.65831L450.299622,156.788284C441.000366,147.376129,444.331146,145.189606,398.945496,190.5C371.332123,218.067566,359.712585,230.318069,359.30719,232.290741C358.788025,234.817139,360.110474,236.474777,373.268646,249.790741C381.262848,257.880829,392.23526,269.040405,397.651794,274.589783C407.957458,285.148193,410.220764,286.919434,413.470947,286.969604C414.752686,286.98938,429.364197,273.100372,455.256836,247.25z"/>
    <path transform="matrix(0.084526,0,0,-0.084526,137.339355,-272.651428)" style="stroke:#000000;stroke-width:0.05mm;fill:none" d="M472.283234,153.353531C475.152466,151.89798,482.364227,148.970718,488.309357,146.848511C501.628998,142.093887,504.261017,140.754929,506.911713,137.385117C511.465973,131.595306,508.672302,129,497.885742,129L489.914307,129L484.823273,133.75C478.114532,140.009354,464.561707,156,465.965363,156C466.570984,156,469.414032,154.809082,472.283234,153.353531z"/>
    <path transform="matrix(0.084526,0,0,-0.084526,137.339355,-272.651428)" style="stroke:#000000;stroke-width:0.05mm;fill:none" d="M465.803406,137.608063C474.340485,127.704727,480.247681,122.393913,485.94986,119.495491C488.872284,118.010033,491.16568,117.828087,500.94986,118.305489C507.302429,118.615448,513.422058,119.152351,514.549072,119.498596C516.259155,120.024017,516.983704,119.30481,518.92926,115.151009C522.27417,108.009506,521.390686,105.490471,514.861023,103.551376C512.045715,102.715309,504.855774,101.314651,498.883392,100.438797C488.114258,98.859497,487.999573,98.86412,485.002045,100.998543C481.970367,103.15728,468.682251,118.235481,461.744171,127.389549C459.705933,130.078812,457.818085,133.678802,457.548981,135.389557C456.538727,141.812088,456.286591,147,456.984772,147C457.38208,147,461.350464,142.773636,465.803406,137.608063z"/>
    <path transform="matrix(0.084526,0,0,-0.084526,137.339355,-272.651428)" style="stroke:#000000;stroke-width:0.05mm;fill:none" d="M330.127563,104.25C331.371429,102.663948,331.33606,102.628571,329.75,103.872437C328.787506,104.627289,328,105.414787,328,105.622437C328,106.44548,328.821198,105.915749,330.127563,104.25z"/>
    <path transform="matrix(0.084526,0,0,-0.084526,137.339355,-272.651428)" style="stroke:#000000;stroke-width:0.05mm;fill:none" d="M528.570862,92.57373C529.575195,88.572113,526.983948,84.730957,521.521667,82.124214C514.433044,78.741371,510.852051,78.55426,499.149628,80.955215C487.380585,83.369843,481.682129,85.696434,481.182495,88.290924C480.890442,89.807358,481.267883,89.958908,483.669098,89.28936C488.283752,88.002625,499.697021,88.88311,512.397888,91.505669C518.941711,92.856888,524.529236,94.195877,524.814575,94.481209C526.096802,95.763474,528.014709,94.789543,528.570862,92.57373z"/>
    <path transform="matrix(0.084526,0,0,-0.084526,137.339355,-272.651428)" style="stroke:#000000;stroke-width:0.05mm;fill:none" d="M557,48.622444C557,48.414791,556.212524,47.627289,555.25,46.872444C553.66394,45.628574,553.628601,45.663944,554.872437,47.25C556.178833,48.915749,557,49.44548,557,48.622444z"/>
    <path transform="matrix(0.084526,0,0,-0.084526,137.339355,-272.651428)" style="stroke:#000000;stroke-width:0.05mm;fill:none" d="M252.5,324.114532C247.735443,321.921021,244.997543,317.621002,245.006592,312.345703C245.01503,307.423035,247.001144,304.533173,254.846436,298.028503C274.462494,281.764526,287.211487,263.200073,293.666992,241.5C296.054077,233.475876,296.343384,230.873535,296.335052,217.5C296.324036,199.793991,294.605255,191.93576,287.526031,177.2258C280.056488,161.704819,270.745636,149.932419,256.062805,137.444565C251.258774,133.358688,246.804337,128.865997,246.164093,127.4608C243.476349,121.561836,245.716232,114.363258,251.298553,110.959518C256.064117,108.053772,260.819519,108.44989,266.578552,112.232323C271.165009,115.244621,290.283936,133.573318,294.342529,138.84874C314.006439,164.408142,323,188.920166,323,216.954773C323,248.224518,311.571167,276.633087,288.726135,302.149078C277.326843,314.881134,263.054626,325.937439,258,325.951813C257.174988,325.954163,254.699997,325.12738,252.5,324.114532z"/>
    <path transform="matrix(0.084526,0,0,-0.084526,137.339355,-272.651428)" style="stroke:#000000;stroke-width:0.05mm;fill:none" d="M210.269699,292.517426C205.96814,290.6474,203.008423,285.604706,203.003738,280.137787C203.000122,275.910248,203.334213,275.447205,213.826904,265.137787C225.732498,253.44017,230.605011,246.197693,234.6241,234.225037C237.651459,225.206711,238.036118,211.864456,235.536102,202.592194C232.201218,190.223557,222.585999,176.127411,211.15097,166.843018C204.834244,161.714279,203,158.583847,203,152.932007C203,149.42453,203.614716,148.149994,206.882355,144.882355C210.37291,141.3918,211.277237,141,215.843445,141C220.384949,141,221.534515,141.490173,226.71109,145.634003C271.681915,181.63298,276.167389,239.660477,237.021591,279.018494C221.968674,294.153015,218.295532,296.00647,210.269699,292.517426z"/>
    <path transform="matrix(0.084526,0,0,-0.084526,137.339355,-272.651428)" style="stroke:#000000;stroke-width:0.05mm;fill:none" d="M167.366714,260.08194C162.697586,257.234833,161,254.194763,161,248.680267C161,244.052628,161.323181,243.468323,167.375809,237.152771C174.620407,229.59346,176.776001,225.913406,177.636459,219.635635C178.623459,212.434738,175.724289,205.505295,169.002838,199C162.274658,192.488205,161,190.34053,161,185.516083C161,175.418701,170.379318,169.584763,179.508209,174.003967C184.649307,176.492737,193.786499,186.135559,198.027557,193.548157C206.618698,208.563919,205.883362,228.602097,196.191849,243.572128C192.293442,249.593811,185.412689,256.769653,180.312698,260.132294C176.688751,262.521698,171.333679,262.500885,167.366714,260.08194z"/>
    <path transform="matrix(1,0,0,-1,50.831413,-292.784576)" style="stroke:#000000;stroke-width:0.05mm;fill:none" d="M-23.9104,-7.078857L-23.587158,-7.045166C-22.823668,-6.965196,-22.123642,-6.58354,-21.642822,-5.985107C-20.911201,-4.971318,-21.028763,-3.575832,-21.919678,-2.69873C-22.463665,-2.190747,-23.106564,-1.800653,-23.80835,-1.552734L-24.171875,-1.419922C-24.592106,-1.291869,-24.987013,-1.092061,-25.339111,-0.829346C-25.706408,-0.577994,-25.835052,-0.094801,-25.641357,0.305908C-25.501692,0.573391,-25.24357,0.759056,-24.945557,0.806396C-24.383091,0.934623,-23.794806,0.885066,-23.261719,0.664551C-22.852409,0.462126,-22.589474,0.048806,-22.57959,-0.407715C-22.564228,-0.655522,-22.586617,-0.904187,-22.645996,-1.145264L-21.522949,-0.937744C-21.499729,-0.408478,-21.634157,0.115809,-21.90918,0.568604C-22.248384,1.040431,-22.762165,1.356786,-23.336182,1.447266C-24.13813,1.616539,-24.971565,1.553622,-25.739014,1.265869C-26.825773,0.84617,-27.449032,-0.30102,-27.209717,-1.441162C-27.061546,-2.23808,-26.569212,-2.929315,-25.864502,-3.329834C-25.396288,-3.604415,-24.902124,-3.832075,-24.38916,-4.009521L-24.043213,-4.176025C-23.695847,-4.333272,-23.400509,-4.586348,-23.191895,-4.905518C-22.982702,-5.327696,-23.084951,-5.836825,-23.440918,-6.145508C-23.755915,-6.353709,-24.130957,-6.451911,-24.507568,-6.424805C-24.932827,-6.450579,-25.356213,-6.347136,-25.72168,-6.128174C-26.06531,-5.881119,-26.271395,-5.485444,-26.276855,-5.062256C-26.293667,-4.688018,-26.25065,-4.313556,-26.149414,-3.952881L-27.315186,-4.209229C-27.418711,-4.805513,-27.323198,-5.419628,-27.043457,-5.956299C-26.71653,-6.465186,-26.197773,-6.820004,-25.60498,-6.940186C-25.049984,-7.069472,-24.479031,-7.116195,-23.9104,-7.078857zM5.638428,-3.873535C5.621039,-3.204189,5.818086,-2.546566,6.200684,-1.99707C6.308089,-1.815445,6.512912,-1.714328,6.722412,-1.739502C6.892718,-1.794152,7.002899,-1.959475,6.987793,-2.137695L6.993408,-2.262207L6.993408,-6.9375L9.221191,-6.9375L9.221191,-2.018066C9.26169,-1.583896,9.076345,-1.158682,8.730713,-0.892822C8.411994,-0.699997,8.042912,-0.607238,7.670898,-0.626465C6.940313,-0.61125,6.249536,-0.959749,5.827637,-1.556396L5.638428,-1.841064L5.638428,1.521973L5.034668,1.46582C4.494542,1.419525,3.952754,1.395496,3.410645,1.393799L3.410645,-6.9375L5.638428,-6.9375L5.638428,-3.873535zM-17.133057,-7.062744C-16.776119,-7.04767,-16.424158,-6.973416,-16.091553,-6.843018C-15.441916,-6.577607,-14.99132,-5.975466,-14.919922,-5.277344C-14.882359,-5.012581,-14.870993,-4.744774,-14.885986,-4.477783L-15.825928,-4.190918C-15.711035,-4.712993,-15.72748,-5.255616,-15.873779,-5.769775C-16.023703,-6.252244,-16.487965,-6.567358,-16.991699,-6.528564C-17.462515,-6.55345,-17.881786,-6.230588,-17.978027,-5.769043C-18.147861,-5.000273,-18.210789,-4.211757,-18.165039,-3.425781C-18.174673,-2.869855,-18.076746,-2.31712,-17.876709,-1.79834C-17.76391,-1.468869,-17.481987,-1.225235,-17.139648,-1.161377C-16.755173,-1.080457,-16.36948,-1.296261,-16.237305,-1.66626C-16.148079,-1.924513,-16.105915,-2.196582,-16.112793,-2.469727L-16.125,-3.055664L-15.081299,-2.549072C-15.050821,-2.071588,-15.196852,-1.599165,-15.491455,-1.222168C-15.814989,-0.881845,-16.253206,-0.67387,-16.721436,-0.638428C-17.447517,-0.535737,-18.187855,-0.65008,-18.849121,-0.967041C-19.714478,-1.430129,-20.302505,-2.283108,-20.42749,-3.256592C-20.564804,-4.049945,-20.481262,-4.865921,-20.186035,-5.61499C-19.871765,-6.317487,-19.232712,-6.82148,-18.476318,-6.963379C-18.035404,-7.059115,-17.583258,-7.092562,-17.133057,-7.062744zM-12.21875,-7.053955L-11.980713,-7.019043C-11.536077,-6.935825,-11.139826,-6.686181,-10.872803,-6.321045L-10.791992,-6.488525C-10.604011,-6.764861,-10.307019,-6.947464,-9.975586,-6.990479C-9.259941,-7.092388,-8.53005,-6.998135,-7.86377,-6.717773L-8.077393,-6.15625L-8.18335,-6.212402C-8.261405,-6.270773,-8.359213,-6.297185,-8.455734,-6.283828C-8.552256,-6.27047,-8.639215,-6.218487,-8.698486,-6.141113C-8.769065,-6.009141,-8.80129,-5.860032,-8.791504,-5.710693L-8.791504,-1.975342C-8.789994,-1.471326,-9.115103,-1.024018,-9.594971,-0.869873C-10.152113,-0.674942,-10.740717,-0.586184,-11.330566,-0.608154C-11.952172,-0.579724,-12.573443,-0.67501,-13.157959,-0.888428C-13.756609,-1.094292,-14.113264,-1.710959,-13.993164,-2.33252L-13.961182,-2.610107L-12.856445,-2.82373L-12.931152,-2.600098C-13.047586,-2.301405,-13.057592,-1.97146,-12.959473,-1.66626C-12.820833,-1.367473,-12.52485,-1.173556,-12.195557,-1.165771C-11.914197,-1.114816,-11.623865,-1.156451,-11.368164,-1.284424C-11.16465,-1.415511,-11.034167,-1.634366,-11.015625,-1.875732C-10.953563,-2.140707,-11.035394,-2.41914,-11.230957,-2.608398C-11.525564,-2.876181,-11.874252,-3.077584,-12.253418,-3.198975L-12.636719,-3.330322C-13.14077,-3.463129,-13.601497,-3.725091,-13.973389,-4.090332C-14.355171,-4.525752,-14.509043,-5.115981,-14.388428,-5.682373C-14.319122,-6.356161,-13.80298,-6.899012,-13.133545,-7.002197C-12.832597,-7.062672,-12.524596,-7.080098,-12.21875,-7.053955zM13.506348,-7.06958L13.776855,-7.044678C14.306996,-7.006485,14.80609,-6.778955,15.182617,-6.403809C15.528636,-5.996465,15.72302,-5.482133,15.73291,-4.947754L14.835693,-4.685303C14.895472,-5.10917,14.84404,-5.54167,14.686523,-5.939697C14.548582,-6.219945,14.279281,-6.412496,13.969482,-6.452393C13.647448,-6.531317,13.306829,-6.451426,13.053467,-6.237549C12.768352,-5.927398,12.591832,-5.53325,12.550293,-5.114014C12.495772,-4.764255,12.470133,-4.410605,12.473633,-4.056641L15.720703,-4.056641C15.747357,-3.338644,15.61947,-2.623271,15.345703,-1.958984C14.997686,-1.17556,14.23315,-0.658697,13.376465,-0.627686C12.24099,-0.487389,11.135992,-1.064294,10.602051,-2.076172C10.232615,-2.784405,10.076992,-3.584566,10.154053,-4.379639C10.16848,-5.000115,10.369529,-5.601899,10.730957,-6.106445C11.095136,-6.554791,11.605695,-6.860555,12.172852,-6.969971C12.61074,-7.063795,13.059384,-7.097307,13.506348,-7.06958zM25.131348,-7.06958L25.401855,-7.044678C25.931995,-7.006488,26.431091,-6.778957,26.807617,-6.403809C27.153635,-5.996465,27.348019,-5.482133,27.35791,-4.947754L26.460693,-4.685303C26.52047,-5.10917,26.469038,-5.541669,26.311523,-5.939697C26.173582,-6.219945,25.904282,-6.412496,25.594482,-6.452393C25.272448,-6.531312,24.931829,-6.451424,24.678467,-6.237549C24.393351,-5.9274,24.216831,-5.533251,24.175293,-5.114014C24.120773,-4.764254,24.095133,-4.410605,24.098633,-4.056641L27.345703,-4.056641C27.372356,-3.338645,27.244469,-2.623272,26.970703,-1.958984C26.622686,-1.175559,25.85815,-0.658696,25.001465,-0.627686C23.865988,-0.487389,22.76099,-1.064294,22.227051,-2.076172C21.857615,-2.784406,21.701992,-3.584569,21.779053,-4.379639C21.793482,-5.000115,21.99453,-5.601898,22.355957,-6.106445C22.720137,-6.55479,23.230694,-6.860552,23.797852,-6.969971C24.235739,-7.063794,24.684383,-7.097307,25.131348,-7.06958zM-5.206055,-3.568359C-5.23031,-3.024598,-5.076981,-2.487561,-4.769287,-2.038574C-4.642032,-1.824484,-4.398262,-1.707416,-4.151611,-1.741943C-3.995204,-1.803873,-3.889596,-1.951133,-3.881104,-2.119141C-3.864211,-2.21882,-3.856204,-2.319803,-3.857178,-2.420898L-3.857178,-6.9375L-1.629395,-6.9375L-1.629395,-2.201172C-1.597057,-1.7718,-1.736426,-1.347021,-2.016846,-1.020264C-2.334899,-0.736622,-2.754735,-0.594444,-3.179688,-0.626465C-3.885119,-0.633098,-4.550461,-0.955422,-4.99292,-1.504883L-5.206055,-1.773926L-5.206055,-0.620361L-5.750488,-0.687012C-6.309735,-0.74479,-6.871612,-0.773477,-7.433838,-0.772949L-7.433838,-6.9375L-5.206055,-6.9375L-5.206055,-3.568359zM18.918945,-3.250977C18.899872,-2.730425,19.03759,-2.216043,19.314209,-1.774658C19.380953,-1.659323,19.525206,-1.613893,19.645996,-1.670166C19.762217,-1.754014,19.822729,-1.894302,19.803955,-2.036377C19.778522,-2.264612,19.727848,-2.489248,19.652832,-2.706299L19.616699,-2.85083L19.578125,-3.019043L21.104004,-3.019043C21.184631,-2.731397,21.249344,-2.439542,21.297852,-2.144775C21.365738,-1.788423,21.321991,-1.419685,21.172607,-1.089111C21.034864,-0.840272,20.784117,-0.674415,20.501221,-0.64502C19.999075,-0.561887,19.494062,-0.776797,19.205811,-1.196289C19.097149,-1.335218,19.001144,-1.483597,18.918945,-1.639648L18.918945,-0.626465L18.422363,-0.698486C17.848871,-0.777045,17.26964,-0.806045,16.691162,-0.785156L16.691162,-6.9375L18.918945,-6.9375L18.918945,-3.250977zM12.467529,-3.366943C12.461463,-2.854222,12.512231,-2.342362,12.618896,-1.84082C12.653515,-1.642975,12.748297,-1.460321,12.890137,-1.318115C13.02297,-1.193681,13.226455,-1.183455,13.371094,-1.293945C13.565243,-1.50403,13.683427,-1.772778,13.707031,-2.057861C13.775038,-2.490778,13.805506,-2.928775,13.798096,-3.366943L12.467529,-3.366943zM24.092529,-3.366943C24.086462,-2.854222,24.137232,-2.342359,24.243896,-1.84082C24.278515,-1.642975,24.373297,-1.460322,24.515137,-1.318115C24.647972,-1.193686,24.851454,-1.18346,24.996094,-1.293945C25.190243,-1.50403,25.308426,-1.772779,25.332031,-2.057861C25.40004,-2.490781,25.430508,-2.928777,25.423096,-3.366943L24.092529,-3.366943zM-11.82666,-6.192139C-11.995804,-6.098574,-12.107395,-5.926935,-12.124268,-5.734375C-12.227132,-5.278481,-12.216825,-4.804505,-12.094238,-4.353516C-11.967041,-4.001277,-11.7062,-3.712974,-11.368408,-3.55127L-11.243652,-3.457031C-11.162968,-3.390594,-11.087923,-3.317591,-11.019287,-3.23877L-11.019287,-5.002686C-11.000367,-5.314659,-11.06023,-5.626404,-11.193359,-5.90918C-11.313169,-6.139128,-11.575438,-6.25631,-11.82666,-6.192139z"/>
    <path transform="matrix(0,-0.020955,-0.020955,-0,135.807602,-229.972656)" style="stroke:#000000;stroke-width:0.05mm;fill:none" d="M4412.237793,4410.956055C4388.326172,4406.670898,4368.539551,4391.776855,4358.291016,4370.347168C4351.50293,4356.15332,4351.668945,4357.808105,4351.258789,4300.255859L4350.88623,4248.011719L3837.193115,4247.755859L3323.5,4247.5L3316.298828,4244.865723C3295.067871,4237.099609,3280.057861,4221.231934,3273.335449,4199.447754C3271.607178,4193.847656,3271.5,4187.713867,3271.5,4094.5L3271.5,3995.5L3274.585205,3986.882324C3278.420898,3976.168945,3285.263916,3965.739014,3293.123779,3958.626221C3299.898682,3952.495361,3312.532715,3945.751953,3321.460205,3943.502197C3326.723145,3942.175781,3387.277344,3942,3839.160645,3942L4350.900879,3942L4351.260254,3889.75C4351.658203,3831.802246,4351.553223,3832.821533,4358.621094,3818.385742C4375.501465,3783.907471,4418.905762,3768.442627,4453.710938,3784.505615C4458.451172,3786.693359,4521.490234,3830.385742,4637.710938,3912.0354C4734.944824,3980.346436,4816.460449,4037.828125,4818.856445,4039.772705C4821.252441,4041.717041,4825.218262,4045.826172,4827.669434,4048.904053C4850.619629,4077.720215,4848.792969,4119.735352,4823.474121,4145.393555C4816.333008,4152.630371,4465.553711,4399.557617,4455.161621,4404.663086C4451.620117,4406.402832,4445.747559,4408.578613,4442.111328,4409.498047C4434.094238,4411.524902,4419.412109,4412.241699,4412.237793,4410.956055z"/>
</svg>
